{
.appVersion = "983";
copyright = "Copyright 2016 Google Inc. All Rights Reserved.";
customParameters = (
{
name = description;
value = "Designed by Monotype design team.";
},
{
name = license;
value = "This Font Software is licensed under the SIL Open Font License, Version 1.1. This Font Software is distributed on an \"AS IS\" BASIS, WITHOUT WARRANTIES OR CONDITIONS OF ANY KIND, either express or implied. See the SIL Open Font License for the specific language, permissions and limitations governing your use of this Font Software.";
},
{
name = licenseURL;
value = "http://scripts.sil.org/OFL";
},
{
name = vendorID;
value = GOOG;
},
{
name = trademark;
value = "Noto is a trademark of Google Inc.";
},
{
name = fsType;
value = (
);
},
{
name = panose;
value = (
2,
11,
5,
2,
4,
5,
4,
2,
2,
4
);
},
{
name = unicodeRanges;
value = (
8
);
},
{
name = codePageRanges;
value = (
1252,
1250,
1257,
1258,
936,
949,
950,
1361,
852
);
},
{
name = glyphOrder;
value = (
.notdef,
null,
uni000D,
space,
uni0374,
uni0375,
uni0300,
uni0301,
uni0302,
uni0304,
uni0305,
uni0307,
uni0308,
uni03E2,
uni03E3,
uni03E4,
uni03E5,
uni03E6,
uni03E7,
uni03E8,
uni03E9,
uni03EA,
uni03EB,
uni03EC,
uni03ED,
uni03EE,
uni03EF,
uni1DCD,
uni2C80,
uni2C81,
uni2C82,
uni2C83,
uni2C84,
uni2C85,
uni2C86,
uni2C87,
uni2C88,
uni2C89,
uni2C8A,
uni2C8B,
uni2C8C,
uni2C8D,
uni2C8E,
uni2C8F,
uni2C90,
uni2C91,
uni2C92,
uni2C93,
uni2C94,
uni2C95,
uni2C96,
uni2C97,
uni2C98,
uni2C99,
uni2C9A,
uni2C9B,
uni2C9C,
uni2C9D,
uni2C9E,
uni2C9F,
uni2CA0,
uni2CA1,
uni2CA2,
uni2CA3,
uni2CA4,
uni2CA5,
uni2CA6,
uni2CA7,
uni2CA8,
uni2CA9,
uni2CAA,
uni2CAB,
uni2CAC,
uni2CAD,
uni2CAE,
uni2CAF,
uni2CB0,
uni2CB1,
uni2CB2,
uni2CB3,
uni2CB4,
uni2CB5,
uni2CB6,
uni2CB7,
uni2CB8,
uni2CB9,
uni2CBA,
uni2CBB,
uni2CBC,
uni2CBD,
uni2CBE,
uni2CBF,
uni2CC0,
uni2CC1,
uni2CC2,
uni2CC3,
uni2CC4,
uni2CC5,
uni2CC6,
uni2CC7,
uni2CC8,
uni2CC9,
uni2CCA,
uni2CCB,
uni2CCC,
uni2CCD,
uni2CCE,
uni2CCF,
uni2CD0,
uni2CD1,
uni2CD2,
uni2CD3,
uni2CD4,
uni2CD5,
uni2CD6,

glyphs = (
{
glyphname = .notdef;
lastChange = "2016-11-10 17:34:19 +0000";
layers = (
{
layerId = "B23D4CF3-C1D9-4344-818F-C48D5A58935E";
paths = (
{
closed = 1;
nodes = (
"1034 0 LINE",
"1034 1462 LINE",
"193 1462 LINE",
"193 0 LINE"
);
},
{
closed = 1;
nodes = (
"297 1358 LINE",
"930 1358 LINE",
"930 104 LINE",
"297 104 LINE"
);
}
);
width = 1229;
}
);
note = .notdef;
},
{
glyphname = uni0374;
lastChange = "2016-11-10 17:34:09 +0000";
layers = (
{
layerId = "B23D4CF3-C1D9-4344-818F-C48D5A58935E";
paths = (
{
closed = 1;
nodes = (
"160 1135 LINE",
"249 1203 OFFCURVE",
"343 1325 OFFCURVE",
"412 1442 CURVE",
"412 1462 LINE",
"195 1462 LINE",
"152 1351 OFFCURVE",
"101 1250 OFFCURVE",
"41 1159 CURVE",
"41 1135 LINE"
);
}
);
width = 453;
}
);
note = uni0374;
unicode = 0374;
},
{
glyphname = uni0375;
lastChange = "2016-11-10 17:34:19 +0000";
layers = (
{
layerId = "B23D4CF3-C1D9-4344-818F-C48D5A58935E";
paths = (
{
closed = 1;
nodes = (
"258 -451 LINE",
"302 -340 OFFCURVE",
"353 -239 OFFCURVE",
"412 -147 CURVE",
"412 -123 LINE",
"293 -123 LINE",
"202 -191 OFFCURVE",
"109 -313 OFFCURVE",
"41 -430 CURVE",
"41 -451 LINE"
);
}
);
width = 453;
}
);
note = uni0375;
unicode = 0375;
},
{
glyphname = uni0300;
lastChange = "2016-11-10 17:34:19 +0000";
layers = (
{
layerId = "B23D4CF3-C1D9-4344-818F-C48D5A58935E";
paths = (
{
closed = 1;
nodes = (
"-536 1241 LINE",
"-536 1266 LINE",
"-568 1303 OFFCURVE",
"-606 1356 OFFCURVE",
"-641 1411 CURVE SMOOTH",
"-677 1466 OFFCURVE",
"-710 1522 OFFCURVE",
"-733 1569 CURVE",
"-948 1569 LINE",
"-948 1548 LINE",
"-924 1511 OFFCURVE",
"-875 1453 OFFCURVE",
"-820 1395 CURVE SMOOTH",
"-765 1337 OFFCURVE",
"-704 1278 OFFCURVE",
"-657 1241 CURVE"
);
}
);
width = 0;
}
);
note = uni0300;
unicode = 0300;
},
{
glyphname = uni0301;
lastChange = "2016-11-10 17:34:09 +0000";
layers = (
{
layerId = "B23D4CF3-C1D9-4344-818F-C48D5A58935E";
paths = (
{
closed = 1;
nodes = (
"-643 1241 LINE",
"-595 1278 OFFCURVE",
"-535 1337 OFFCURVE",
"-479 1395 CURVE SMOOTH",
"-424 1453 OFFCURVE",
"-375 1511 OFFCURVE",
"-350 1548 CURVE",
"-350 1569 LINE",
"-567 1569 LINE",
"-591 1522 OFFCURVE",
"-624 1466 OFFCURVE",
"-660 1411 CURVE SMOOTH",
"-696 1356 OFFCURVE",
"-733 1303 OFFCURVE",
"-762 1266 CURVE",
"-762 1241 LINE"
);
}
);
width = 0;
}
);
note = uni0301;
unicode = 0301;
},
{
glyphname = uni0302;
lastChange = "2016-11-10 17:34:09 +0000";
layers = (
{
layerId = "B23D4CF3-C1D9-4344-818F-C48D5A58935E";
paths = (
{
closed = 1;
nodes = (
"-223 1241 LINE",
"-151 1286 OFFCURVE",
"-79 1352 OFFCURVE",
"-4 1425 CURVE",
"71 1352 OFFCURVE",
"147 1284 OFFCURVE",
"219 1241 CURVE",
"346 1241 LINE",
"346 1264 LINE",
"307 1303 OFFCURVE",
"255 1356 OFFCURVE",
"207 1411 CURVE SMOOTH",
"159 1466 OFFCURVE",
"114 1522 OFFCURVE",
"90 1569 CURVE",
"-94 1569 LINE",
"-107 1546 OFFCURVE",
"-124 1521 OFFCURVE",
"-145 1494 CURVE SMOOTH",
"-186 1440 OFFCURVE",
"-235 1383 OFFCURVE",
"-282 1332 CURVE SMOOTH",
"-306 1307 OFFCURVE",
"-327 1284 OFFCURVE",
"-346 1264 CURVE",
"-346 1241 LINE"
);
}
);
width = 0;
}
);
note = uni0302;
unicode = 0302;
},
{
glyphname = uni0304;
lastChange = "2016-11-10 17:34:09 +0000";
layers = (
{
layerId = "B23D4CF3-C1D9-4344-818F-C48D5A58935E";
paths = (
{
closed = 1;
nodes = (
"-361 1241 LINE",
"-361 1386 LINE",
"-969 1386 LINE",
"-969 1241 LINE"
);
}
);
width = 0;
}
);
note = uni0304;
unicode = 0304;
},
{
glyphname = uni0305;
lastChange = "2016-11-10 17:34:09 +0000";
layers = (
{
layerId = "B23D4CF3-C1D9-4344-818F-C48D5A58935E";
paths = (
{
closed = 1;
nodes = (
"640 1702 LINE",
"640 1797 LINE",
"-640 1797 LINE",
"-640 1702 LINE"
);
}
);
width = 0;
}
);
note = uni0305;
unicode = 0305;
},
{
glyphname = uni0307;
lastChange = "2016-11-10 17:34:19 +0000";
layers = (
{
layerId = "B23D4CF3-C1D9-4344-818F-C48D5A58935E";
paths = (
{
closed = 1;
nodes = (
"56 1280 OFFCURVE",
"105 1316 OFFCURVE",
"105 1395 CURVE SMOOTH",
"105 1475 OFFCURVE",
"56 1509 OFFCURVE",
"0 1509 CURVE SMOOTH",
"-60 1509 OFFCURVE",
"-106 1475 OFFCURVE",
"-106 1395 CURVE SMOOTH",
"-106 1316 OFFCURVE",
"-60 1280 OFFCURVE",
"0 1280 CURVE SMOOTH"
);
}
);
width = 0;
}
);
note = uni0307;
unicode = 0307;
},
{
glyphname = uni0308;
lastChange = "2016-11-10 17:34:19 +0000";
layers = (
{
layerId = "B23D4CF3-C1D9-4344-818F-C48D5A58935E";
paths = (
{
closed = 1;
nodes = (
"-405 1292 OFFCURVE",
"-360 1324 OFFCURVE",
"-360 1395 CURVE SMOOTH",
"-360 1466 OFFCURVE",
"-405 1495 OFFCURVE",
"-457 1495 CURVE SMOOTH",
"-510 1495 OFFCURVE",
"-553 1466 OFFCURVE",
"-553 1395 CURVE SMOOTH",
"-553 1324 OFFCURVE",
"-510 1292 OFFCURVE",
"-457 1292 CURVE SMOOTH"
);
},
{
closed = 1;
nodes = (
"-22 1292 OFFCURVE",
"23 1324 OFFCURVE",
"23 1395 CURVE SMOOTH",
"23 1466 OFFCURVE",
"-22 1495 OFFCURVE",
"-74 1495 CURVE SMOOTH",
"-125 1495 OFFCURVE",
"-168 1466 OFFCURVE",
"-168 1395 CURVE SMOOTH",
"-168 1324 OFFCURVE",
"-125 1292 OFFCURVE",
"-74 1292 CURVE SMOOTH"
);
}
);
width = 0;
}
);
note = uni0308;
unicode = 0308;
},
{
glyphname = uni03E2;
lastChange = "2016-11-10 17:34:19 +0000";
layers = (
{
layerId = "B23D4CF3-C1D9-4344-818F-C48D5A58935E";
paths = (
{
closed = 1;
nodes = (
"1336 -399 OFFCURVE",
"1484 -354 OFFCURVE",
"1608 -263 CURVE SMOOTH",
"1856 -82 OFFCURVE",
"1989 268 OFFCURVE",
"1989 731 CURVE SMOOTH",
"1989 1066 OFFCURVE",
"1844 1340 OFFCURVE",
"1579 1497 CURVE",
"1444 1380 LINE",
"1668 1252 OFFCURVE",
"1794 1018 OFFCURVE",
"1794 719 CURVE SMOOTH",
"1794 598 OFFCURVE",
"1780 494 OFFCURVE",
"1751 409 CURVE SMOOTH",
"1693 237 OFFCURVE",
"1583 147 OFFCURVE",
"1438 147 CURVE SMOOTH",
"1235 147 OFFCURVE",
"1147 300 OFFCURVE",
"1147 653 CURVE SMOOTH",
"1147 1421 LINE",
"963 1421 LINE",
"963 653 LINE SMOOTH",
"963 305 OFFCURVE",
"882 147 OFFCURVE",
"674 147 CURVE SMOOTH",
"604 147 OFFCURVE",
"542 170 OFFCURVE",
"488 216 CURVE SMOOTH",
"379 307 OFFCURVE",
"317 486 OFFCURVE",
"317 719 CURVE SMOOTH",
"317 1022 OFFCURVE",
"424 1229 OFFCURVE",
"659 1370 CURVE",
"555 1493 LINE",
"268 1333 OFFCURVE",
"125 1075 OFFCURVE",
"125 719 CURVE SMOOTH",
"125 567 OFFCURVE",
"147 435 OFFCURVE",
"192 324 CURVE SMOOTH",
"281 101 OFFCURVE",
"451 -20 OFFCURVE",
"668 -20 CURVE SMOOTH",
"855 -20 OFFCURVE",
"983 83 OFFCURVE",
"1051 289 CURVE",
"1057 289 LINE",
"1110 82 OFFCURVE",
"1230 -20 OFFCURVE",
"1399 -20 CURVE SMOOTH",
"1524 -20 OFFCURVE",
"1613 17 OFFCURVE",
"1706 121 CURVE",
"1712 115 LINE",
"1593 -124 OFFCURVE",
"1412 -236 OFFCURVE",
"1163 -236 CURVE SMOOTH",
"1088 -236 OFFCURVE",
"1022 -227 OFFCURVE",
"965 -209 CURVE",
"965 -373 LINE",
"1016 -390 OFFCURVE",
"1082 -399 OFFCURVE",
"1165 -399 CURVE SMOOTH"
);
}
);
width = 2114;
}
);
note = uni03E2;
unicode = 03E2;
},
{
glyphname = uni03E3;
lastChange = "2016-11-10 17:34:19 +0000";
layers = (
{
layerId = "B23D4CF3-C1D9-4344-818F-C48D5A58935E";
paths = (
{
closed = 1;
nodes = (
"1039 -389 OFFCURVE",
"1151 -349 OFFCURVE",
"1252 -270 CURVE SMOOTH",
"1452 -112 OFFCURVE",
"1559 177 OFFCURVE",
"1559 545 CURVE SMOOTH",
"1559 794 OFFCURVE",
"1467 994 OFFCURVE",
"1284 1147 CURVE",
"1151 1047 LINE",
"1302 912 OFFCURVE",
"1378 748 OFFCURVE",
"1378 553 CURVE SMOOTH",
"1378 468 OFFCURVE",
"1367 395 OFFCURVE",
"1346 333 CURVE SMOOTH",
"1302 208 OFFCURVE",
"1221 139 OFFCURVE",
"1128 139 CURVE SMOOTH",
"999 139 OFFCURVE",
"922 254 OFFCURVE",
"922 457 CURVE SMOOTH",
"922 1098 LINE",
"750 1098 LINE",
"750 457 LINE SMOOTH",
"750 260 OFFCURVE",
"669 139 OFFCURVE",
"526 139 CURVE SMOOTH",
"381 139 OFFCURVE",
"293 294 OFFCURVE",
"293 547 CURVE SMOOTH",
"293 762 OFFCURVE",
"362 918 OFFCURVE",
"526 1047 CURVE",
"397 1147 LINE",
"208 1004 OFFCURVE",
"113 799 OFFCURVE",
"113 547 CURVE SMOOTH",
"113 432 OFFCURVE",
"130 331 OFFCURVE",
"164 246 CURVE SMOOTH",
"231 74 OFFCURVE",
"357 -20 OFFCURVE",
"510 -20 CURVE SMOOTH",
"677 -20 OFFCURVE",
"784 69 OFFCURVE",
"831 213 CURVE",
"838 213 LINE",
"880 58 OFFCURVE",
"967 -20 OFFCURVE",
"1098 -20 CURVE SMOOTH",
"1198 -20 OFFCURVE",
"1269 23 OFFCURVE",
"1333 100 CURVE",
"1339 96 LINE",
"1238 -132 OFFCURVE",
"1112 -223 OFFCURVE",
"913 -223 CURVE SMOOTH",
"853 -223 OFFCURVE",
"803 -217 OFFCURVE",
"764 -205 CURVE",
"764 -369 LINE",
"806 -382 OFFCURVE",
"856 -389 OFFCURVE",
"915 -389 CURVE SMOOTH"
);
}
);
width = 1671;
}
);
note = uni03E3;
unicode = 03E3;
},
{
glyphname = uni03E4;
lastChange = "2016-11-10 17:34:09 +0000";
layers = (
{
layerId = "B23D4CF3-C1D9-4344-818F-C48D5A58935E";
paths = (
{
closed = 1;
nodes = (
"1196 0 LINE",
"1196 1462 LINE",
"1010 1462 LINE",
"1010 537 LINE",
"930 489 OFFCURVE",
"813 451 OFFCURVE",
"684 451 CURVE SMOOTH",
"436 451 OFFCURVE",
"295 618 OFFCURVE",
"295 891 CURVE SMOOTH",
"295 1154 OFFCURVE",
"421 1314 OFFCURVE",
"641 1325 CURVE",
"641 1485 LINE",
"309 1485 OFFCURVE",
"100 1245 OFFCURVE",
"100 870 CURVE SMOOTH",
"100 509 OFFCURVE",
"315 289 OFFCURVE",
"672 289 CURVE SMOOTH",
"787 289 OFFCURVE",
"910 322 OFFCURVE",
"1010 377 CURVE",
"1010 0 LINE"
);
}
);
width = 1395;
}
);
note = uni03E4;
unicode = 03E4;
},
{
glyphname = uni03E5;
lastChange = "2016-11-10 17:34:09 +0000";
layers = (
{
layerId = "B23D4CF3-C1D9-4344-818F-C48D5A58935E";
paths = (
{
closed = 1;
nodes = (
"1094 -492 LINE",
"1094 1098 LINE",
"913 1098 LINE",
"913 287 LINE",
"812 210 OFFCURVE",
"727 182 OFFCURVE",
"614 182 CURVE SMOOTH",
"418 182 OFFCURVE",
"299 330 OFFCURVE",
"299 559 CURVE SMOOTH",
"299 802 OFFCURVE",
"412 951 OFFCURVE",
"621 971 CURVE",
"621 1120 LINE",
"302 1099 OFFCURVE",
"113 887 OFFCURVE",
"113 555 CURVE SMOOTH",
"113 454 OFFCURVE",
"133 363 OFFCURVE",
"173 283 CURVE SMOOTH",
"252 123 OFFCURVE",
"402 29 OFFCURVE",
"598 29 CURVE SMOOTH",
"710 29 OFFCURVE",
"805 54 OFFCURVE",
"913 125 CURVE",
"913 -492 LINE"
);
}
);
width = 1268;
}
);
note = uni03E5;
unicode = 03E5;
},
{
glyphname = uni03E6;
lastChange = "2016-11-10 17:34:19 +0000";
layers = (
{
layerId = "B23D4CF3-C1D9-4344-818F-C48D5A58935E";
paths = (
{
closed = 1;
nodes = (
"584 -475 LINE",
"584 -370 OFFCURVE",
"646 -285 OFFCURVE",
"809 -173 CURVE SMOOTH",
"956 -70 OFFCURVE",
"1059 15 OFFCURVE",
"1117 83 CURVE SMOOTH",
"1233 219 OFFCURVE",
"1294 385 OFFCURVE",
"1294 592 CURVE SMOOTH",
"1294 956 OFFCURVE",
"1079 1174 OFFCURVE",
"723 1174 CURVE SMOOTH",
"615 1174 OFFCURVE",
"477 1138 OFFCURVE",
"385 1085 CURVE",
"385 1462 LINE",
"199 1462 LINE",
"199 0 LINE",
"385 0 LINE",
"385 926 LINE",
"474 979 OFFCURVE",
"599 1012 OFFCURVE",
"711 1012 CURVE SMOOTH",
"952 1012 OFFCURVE",
"1100 848 OFFCURVE",
"1100 571 CURVE SMOOTH",
"1100 412 OFFCURVE",
"1057 299 OFFCURVE",
"991 210 CURVE SMOOTH",
"925 121 OFFCURVE",
"837 56 OFFCURVE",
"750 -4 CURVE SMOOTH",
"662 -65 OFFCURVE",
"575 -122 OFFCURVE",
"509 -193 CURVE SMOOTH",
"443 -265 OFFCURVE",
"399 -352 OFFCURVE",
"399 -475 CURVE"
);
}
);
width = 1333;
}
);
note = uni03E6;
unicode = 03E6;
},
{
glyphname = uni03E7;
lastChange = "2016-11-10 17:34:19 +0000";
layers = (
{
layerId = "B23D4CF3-C1D9-4344-818F-C48D5A58935E";
paths = (
{
closed = 1;
nodes = (
"500 -492 LINE",
"500 -413 OFFCURVE",
"552 -355 OFFCURVE",
"677 -280 CURVE SMOOTH",
"773 -224 OFFCURVE",
"847 -171 OFFCURVE",
"899 -120 CURVE SMOOTH",
"1003 -20 OFFCURVE",
"1059 118 OFFCURVE",
"1059 293 CURVE SMOOTH",
"1059 558 OFFCURVE",
"904 733 OFFCURVE",
"659 733 CURVE SMOOTH",
"546 733 OFFCURVE",
"455 709 OFFCURVE",
"354 637 CURVE",
"354 1098 LINE",
"174 1098 LINE",
"174 0 LINE",
"354 0 LINE",
"354 477 LINE",
"430 542 OFFCURVE",
"516 575 OFFCURVE",
"612 575 CURVE SMOOTH",
"771 575 OFFCURVE",
"872 458 OFFCURVE",
"872 279 CURVE SMOOTH",
"872 155 OFFCURVE",
"837 68 OFFCURVE",
"785 3 CURVE SMOOTH",
"733 -62 OFFCURVE",
"664 -107 OFFCURVE",
"594 -149 CURVE SMOOTH",
"524 -191 OFFCURVE",
"454 -229 OFFCURVE",
"402 -280 CURVE SMOOTH",
"350 -332 OFFCURVE",
"315 -397 OFFCURVE",
"315 -492 CURVE"
);
}
);
width = 1118;
}
);
note = uni03E7;
unicode = 03E7;
},
{
glyphname = uni03E8;
lastChange = "2016-11-10 17:34:19 +0000";
layers = (
{
layerId = "B23D4CF3-C1D9-4344-818F-C48D5A58935E";
paths = (
{
closed = 1;
nodes = (
"866 -203 OFFCURVE",
"982 -188 OFFCURVE",
"1047 -168 CURVE",
"1047 4 LINE",
"982 -17 OFFCURVE",
"902 -27 OFFCURVE",
"805 -27 CURVE SMOOTH",
"536 -27 OFFCURVE",
"375 80 OFFCURVE",
"322 293 CURVE",
"839 441 OFFCURVE",
"1085 673 OFFCURVE",
"1085 1016 CURVE SMOOTH",
"1085 1108 OFFCURVE",
"1065 1190 OFFCURVE",
"1025 1261 CURVE SMOOTH",
"945 1403 OFFCURVE",
"791 1483 OFFCURVE",
"584 1483 CURVE SMOOTH",
"485 1483 OFFCURVE",
"398 1466 OFFCURVE",
"321 1431 CURVE SMOOTH",
"168 1361 OFFCURVE",
"80 1228 OFFCURVE",
"80 1059 CURVE SMOOTH",
"80 988 OFFCURVE",
"102 902 OFFCURVE",
"141 838 CURVE",
"311 903 LINE",
"288 943 OFFCURVE",
"270 1006 OFFCURVE",
"270 1053 CURVE SMOOTH",
"270 1220 OFFCURVE",
"383 1321 OFFCURVE",
"571 1321 CURVE SMOOTH",
"767 1321 OFFCURVE",
"889 1196 OFFCURVE",
"889 983 CURVE SMOOTH",
"889 703 OFFCURVE",
"644 519 OFFCURVE",
"100 395 CURVE",
"159 12 OFFCURVE",
"404 -203 OFFCURVE",
"801 -203 CURVE SMOOTH"
);
}
);
width = 1124;
}
);
note = uni03E8;
unicode = 03E8;
},
{
glyphname = uni03E9;
lastChange = "2016-11-10 17:34:19 +0000";
layers = (
{
layerId = "B23D4CF3-C1D9-4344-818F-C48D5A58935E";
paths = (
{
closed = 1;
nodes = (
"796 -274 OFFCURVE",
"912 -254 OFFCURVE",
"987 -225 CURVE",
"987 -72 LINE",
"923 -104 OFFCURVE",
"806 -125 OFFCURVE",
"725 -125 CURVE SMOOTH",
"490 -125 OFFCURVE",
"346 -19 OFFCURVE",
"293 193 CURVE",
"474 246 OFFCURVE",
"610 299 OFFCURVE",
"699 350 CURVE SMOOTH",
"878 452 OFFCURVE",
"969 583 OFFCURVE",
"969 764 CURVE SMOOTH",
"969 831 OFFCURVE",
"953 892 OFFCURVE",
"921 945 CURVE SMOOTH",
"857 1052 OFFCURVE",
"736 1118 OFFCURVE",
"563 1118 CURVE SMOOTH",
"474 1118 OFFCURVE",
"398 1102 OFFCURVE",
"333 1071 CURVE SMOOTH",
"203 1008 OFFCURVE",
"129 893 OFFCURVE",
"129 758 CURVE SMOOTH",
"129 693 OFFCURVE",
"147 630 OFFCURVE",
"184 571 CURVE",
"344 633 LINE",
"319 674 OFFCURVE",
"307 715 OFFCURVE",
"307 754 CURVE SMOOTH",
"307 894 OFFCURVE",
"396 971 OFFCURVE",
"551 971 CURVE SMOOTH",
"699 971 OFFCURVE",
"786 879 OFFCURVE",
"786 743 CURVE SMOOTH",
"786 638 OFFCURVE",
"733 551 OFFCURVE",
"626 480 CURVE SMOOTH",
"519 409 OFFCURVE",
"344 347 OFFCURVE",
"102 293 CURVE",
"163 -87 OFFCURVE",
"359 -274 OFFCURVE",
"700 -274 CURVE SMOOTH"
);
}
);
width = 1075;
}
);
note = uni03E9;
unicode = 03E9;
},
{
glyphname = uni03EA;
lastChange = "2016-11-10 17:34:19 +0000";
layers = (
{
layerId = "B23D4CF3-C1D9-4344-818F-C48D5A58935E";
paths = (
{
closed = 1;
nodes = (
"1636 0 LINE",
"1636 162 LINE",
"1519 162 OFFCURVE",
"1475 195 OFFCURVE",
"1382 350 CURVE SMOOTH",
"1067 883 LINE",
"1448 1460 LINE",
"1227 1460 LINE",
"948 1022 LINE",
"793 1268 LINE SMOOTH",
"701 1409 OFFCURVE",
"603 1462 OFFCURVE",
"430 1462 CURVE SMOOTH",
"389 1462 LINE",
"389 1300 LINE",
"514 1300 OFFCURVE",
"576 1266 OFFCURVE",
"659 1137 CURVE SMOOTH",
"827 868 LINE",
"377 162 LINE",
"241 162 OFFCURVE",
"207 195 OFFCURVE",
"207 291 CURVE",
"33 291 LINE",
"33 88 OFFCURVE",
"126 0 OFFCURVE",
"319 0 CURVE SMOOTH"
);
},
{
closed = 1;
nodes = (
"944 733 LINE",
"1278 162 LINE",
"590 162 LINE"
);
}
);
width = 1671;
}
);
note = uni03EA;
unicode = 03EA;
},
{
glyphname = uni03EB;
lastChange = "2016-11-10 17:34:19 +0000";
layers = (
{
layerId = "B23D4CF3-C1D9-4344-818F-C48D5A58935E";
paths = (
{
closed = 1;
nodes = (
"1339 0 LINE",
"1339 145 LINE",
"1251 145 OFFCURVE",
"1209 167 OFFCURVE",
"1130 276 CURVE SMOOTH",
"872 635 LINE",
"1204 1098 LINE",
"1006 1098 LINE",
"760 752 LINE",
"635 932 LINE SMOOTH",
"551 1056 OFFCURVE",
"472 1100 OFFCURVE",
"340 1100 CURVE SMOOTH",
"291 1100 LINE",
"291 958 LINE",
"386 958 OFFCURVE",
"425 936 OFFCURVE",
"492 844 CURVE SMOOTH",
"651 623 LINE",
"299 145 LINE",
"200 145 OFFCURVE",
"174 176 OFFCURVE",
"174 244 CURVE",
"25 244 LINE",
"25 81 OFFCURVE",
"97 0 OFFCURVE",
"240 0 CURVE SMOOTH"
);
},
{
closed = 1;
nodes = (
"756 500 LINE",
"1006 145 LINE",
"506 145 LINE"
);
}
);
width = 1346;
}
);
note = uni03EB;
unicode = 03EB;
},
{
glyphname = uni03EC;
lastChange = "2016-11-10 17:34:19 +0000";
layers = (
{
layerId = "B23D4CF3-C1D9-4344-818F-C48D5A58935E";
paths = (
{
closed = 1;
nodes = (
"842 -20 OFFCURVE",
"951 6 OFFCURVE",
"1048 58 CURVE SMOOTH",
"1243 161 OFFCURVE",
"1356 358 OFFCURVE",
"1356 586 CURVE SMOOTH",
"1356 694 OFFCURVE",
"1334 791 OFFCURVE",
"1289 876 CURVE SMOOTH",
"1199 1046 OFFCURVE",
"1028 1141 OFFCURVE",
"807 1141 CURVE SMOOTH",
"627 1141 OFFCURVE",
"453 1074 OFFCURVE",
"350 961 CURVE",
"346 965 LINE",
"413 1192 OFFCURVE",
"590 1317 OFFCURVE",
"885 1352 CURVE SMOOTH",
"1054 1373 OFFCURVE",
"1172 1390 OFFCURVE",
"1241 1402 CURVE SMOOTH",
"1309 1413 OFFCURVE",
"1370 1427 OFFCURVE",
"1423 1442 CURVE",
"1423 1610 LINE",
"1323 1575 OFFCURVE",
"1150 1545 OFFCURVE",
"903 1518 CURVE SMOOTH",
"380 1457 OFFCURVE",
"125 1174 OFFCURVE",
"125 647 CURVE SMOOTH",
"125 514 OFFCURVE",
"150 397 OFFCURVE",
"199 296 CURVE SMOOTH",
"298 94 OFFCURVE",
"486 -20 OFFCURVE",
"723 -20 CURVE SMOOTH"
);
},
{
closed = 1;
nodes = (
"649 139 OFFCURVE",
"579 158 OFFCURVE",
"517 195 CURVE SMOOTH",
"393 270 OFFCURVE",
"319 408 OFFCURVE",
"319 567 CURVE SMOOTH",
"319 818 OFFCURVE",
"490 979 OFFCURVE",
"762 979 CURVE SMOOTH",
"1021 979 OFFCURVE",
"1161 827 OFFCURVE",
"1161 575 CURVE SMOOTH",
"1161 307 OFFCURVE",
"996 139 OFFCURVE",
"727 139 CURVE SMOOTH"
);
}
);
width = 1438;
}
);
note = uni03EC;
unicode = 03EC;
},
{
glyphname = uni03ED;
lastChange = "2016-11-10 17:34:19 +0000";
layers = (
{
layerId = "B23D4CF3-C1D9-4344-818F-C48D5A58935E";
paths = (
{
closed = 1;
nodes = (
"718 -20 OFFCURVE",
"806 2 OFFCURVE",
"884 47 CURVE SMOOTH",
"1040 136 OFFCURVE",
"1130 303 OFFCURVE",
"1130 492 CURVE SMOOTH",
"1130 788 OFFCURVE",
"958 983 OFFCURVE",
"674 1010 CURVE",
"689 1015 OFFCURVE",
"733 1028 OFFCURVE",
"805 1049 CURVE",
"1042 1106 OFFCURVE",
"1204 1156 OFFCURVE",
"1329 1227 CURVE",
"1329 1389 LINE",
"1229 1321 OFFCURVE",
"1056 1260 OFFCURVE",
"768 1192 CURVE SMOOTH",
"343 1091 OFFCURVE",
"113 850 OFFCURVE",
"113 506 CURVE SMOOTH",
"113 401 OFFCURVE",
"133 308 OFFCURVE",
"174 229 CURVE SMOOTH",
"254 70 OFFCURVE",
"412 -20 OFFCURVE",
"621 -20 CURVE SMOOTH"
);
},
{
closed = 1;
nodes = (
"422 129 OFFCURVE",
"299 277 OFFCURVE",
"299 516 CURVE SMOOTH",
"299 685 OFFCURVE",
"350 812 OFFCURVE",
"475 907 CURVE",
"510 908 LINE SMOOTH",
"783 908 OFFCURVE",
"940 758 OFFCURVE",
"940 479 CURVE SMOOTH",
"940 266 OFFCURVE",
"818 129 OFFCURVE",
"621 129 CURVE SMOOTH"
);
}
);
width = 1229;
}
);
note = uni03ED;
unicode = 03ED;
},
{
glyphname = uni03EE;
lastChange = "2016-11-10 17:34:19 +0000";
layers = (
{
layerId = "B23D4CF3-C1D9-4344-818F-C48D5A58935E";
paths = (
{
closed = 1;
nodes = (
"717 0 LINE",
"717 1079 LINE",
"926 1079 LINE SMOOTH",
"1009 1079 OFFCURVE",
"1051 1035 OFFCURVE",
"1051 948 CURVE",
"1227 948 LINE",
"1227 1143 OFFCURVE",
"1130 1241 OFFCURVE",
"936 1241 CURVE SMOOTH",
"717 1241 LINE",
"717 1462 LINE",
"532 1462 LINE",
"532 1241 LINE",
"313 1241 LINE SMOOTH",
"120 1241 OFFCURVE",
"23 1143 OFFCURVE",
"23 948 CURVE",
"199 948 LINE",
"199 1035 OFFCURVE",
"241 1079 OFFCURVE",
"324 1079 CURVE SMOOTH",
"532 1079 LINE",
"532 0 LINE"
);
}
);
width = 1249;
}
);
note = uni03EE;
unicode = 03EE;
},
{
glyphname = uni03EF;
lastChange = "2016-11-10 17:34:19 +0000";
layers = (
{
layerId = "B23D4CF3-C1D9-4344-818F-C48D5A58935E";
paths = (
{
closed = 1;
nodes = (
"672 -289 LINE",
"672 946 LINE",
"870 946 LINE SMOOTH",
"935 946 OFFCURVE",
"967 914 OFFCURVE",
"967 850 CURVE",
"1128 850 LINE",
"1128 1015 OFFCURVE",
"1040 1098 OFFCURVE",
"885 1098 CURVE SMOOTH",
"672 1098 LINE",
"672 1364 LINE",
"489 1364 LINE",
"489 1098 LINE",
"276 1098 LINE SMOOTH",
"121 1098 OFFCURVE",
"33 1014 OFFCURVE",
"33 850 CURVE",
"195 850 LINE",
"195 914 OFFCURVE",
"227 946 OFFCURVE",
"291 946 CURVE SMOOTH",
"489 946 LINE",
"489 -289 LINE"
);
}
);
width = 1161;
}
);
note = uni03EF;
unicode = 03EF;
},
{
glyphname = uni1DCD;
lastChange = "2016-11-10 17:34:19 +0000";
layers = (
{
layerId = "B23D4CF3-C1D9-4344-818F-C48D5A58935E";
paths = (
{
closed = 1;
nodes = (
"-1468 1241 LINE",
"-1440 1300 OFFCURVE",
"-1384 1356 OFFCURVE",
"-1291 1397 CURVE SMOOTH",
"-1198 1437 OFFCURVE",
"-1067 1464 OFFCURVE",
"-887 1464 CURVE SMOOTH",
"-707 1464 OFFCURVE",
"-575 1437 OFFCURVE",
"-482 1397 CURVE SMOOTH",
"-389 1356 OFFCURVE",
"-333 1300 OFFCURVE",
"-305 1241 CURVE",
"-84 1241 LINE",
"-128 1337 OFFCURVE",
"-209 1429 OFFCURVE",
"-338 1496 CURVE SMOOTH",
"-467 1563 OFFCURVE",
"-647 1606 OFFCURVE",
"-887 1606 CURVE SMOOTH",
"-1127 1606 OFFCURVE",
"-1307 1563 OFFCURVE",
"-1436 1496 CURVE SMOOTH",
"-1565 1429 OFFCURVE",
"-1646 1337 OFFCURVE",
"-1690 1241 CURVE"
);
}
);
width = 0;
}
);
note = uni1DCD;
unicode = 0361;
},
{
glyphname = uni2C80;
lastChange = "2016-11-10 17:34:19 +0000";
layers = (
{
layerId = "B23D4CF3-C1D9-4344-818F-C48D5A58935E";
paths = (
{
closed = 1;
nodes = (
"680 -29 OFFCURVE",
"853 56 OFFCURVE",
"981 209 CURVE",
"999 172 LINE SMOOTH",
"1056 55 OFFCURVE",
"1139 0 OFFCURVE",
"1282 0 CURVE SMOOTH",
"1321 0 LINE",
"1321 176 LINE",
"1237 176 OFFCURVE",
"1174 236 OFFCURVE",
"1118 360 CURVE SMOOTH",
"758 1184 LINE SMOOTH",
"666 1393 OFFCURVE",
"554 1462 OFFCURVE",
"319 1462 CURVE SMOOTH",
"281 1462 LINE",
"281 1294 LINE",
"453 1294 OFFCURVE",
"525 1247 OFFCURVE",
"596 1079 CURVE SMOOTH",
"707 813 LINE",
"43 231 LINE",
"125 58 OFFCURVE",
"274 -29 OFFCURVE",
"489 -29 CURVE SMOOTH"
);
},
{
closed = 1;
nodes = (
"413 139 OFFCURVE",
"320 178 OFFCURVE",
"285 229 CURVE",
"776 657 LINE",
"913 350 LINE",
"801 214 OFFCURVE",
"651 139 OFFCURVE",
"492 139 CURVE SMOOTH"
);
}
);
width = 1296;
}
);
note = uni2C80;
unicode = 2C80;
},
{
glyphname = uni2C81;
lastChange = "2016-11-10 17:34:19 +0000";
layers = (
{
layerId = "B23D4CF3-C1D9-4344-818F-C48D5A58935E";
paths = (
{
closed = 1;
nodes = (
"601 -20 OFFCURVE",
"735 33 OFFCURVE",
"874 168 CURVE",
"911 113 OFFCURVE",
"941 76 OFFCURVE",
"965 57 CURVE SMOOTH",
"1012 18 OFFCURVE",
"1068 0 OFFCURVE",
"1145 0 CURVE SMOOTH",
"1186 0 LINE",
"1186 152 LINE",
"1101 152 OFFCURVE",
"1057 187 OFFCURVE",
"1010 274 CURVE SMOOTH",
"686 883 LINE SMOOTH",
"599 1044 OFFCURVE",
"494 1098 OFFCURVE",
"303 1098 CURVE SMOOTH",
"272 1098 LINE",
"272 944 LINE",
"399 944 OFFCURVE",
"470 908 OFFCURVE",
"537 791 CURVE SMOOTH",
"616 643 LINE",
"41 205 LINE",
"104 66 OFFCURVE",
"248 -20 OFFCURVE",
"432 -20 CURVE SMOOTH"
);
},
{
closed = 1;
nodes = (
"396 131 OFFCURVE",
"308 170 OFFCURVE",
"281 211 CURVE",
"684 516 LINE",
"809 281 LINE",
"704 181 OFFCURVE",
"590 131 OFFCURVE",
"465 131 CURVE SMOOTH"
);
}
);
width = 1176;
}
);
note = uni2C81;
unicode = 2C81;
},
{
glyphname = uni2C82;
lastChange = "2016-11-10 17:34:19 +0000";
layers = (
{
layerId = "B23D4CF3-C1D9-4344-818F-C48D5A58935E";
paths = (
{
closed = 1;
nodes = (
"713 0 LINE SMOOTH",
"1033 0 OFFCURVE",
"1221 155 OFFCURVE",
"1221 416 CURVE SMOOTH",
"1221 609 OFFCURVE",
"1118 727 OFFCURVE",
"893 766 CURVE",
"893 776 LINE",
"1074 809 OFFCURVE",
"1171 927 OFFCURVE",
"1171 1100 CURVE SMOOTH",
"1171 1349 OFFCURVE",
"1008 1462 OFFCURVE",
"616 1462 CURVE SMOOTH",
"199 1462 LINE",
"199 0 LINE"
);
},
{
closed = 1;
nodes = (
"383 686 LINE",
"664 686 LINE SMOOTH",
"904 686 OFFCURVE",
"1024 605 OFFCURVE",
"1024 430 CURVE SMOOTH",
"1024 246 OFFCURVE",
"913 156 OFFCURVE",
"678 156 CURVE SMOOTH",
"383 156 LINE"
);
},
{
closed = 1;
nodes = (
"383 1305 LINE",
"625 1305 LINE SMOOTH",
"872 1305 OFFCURVE",
"981 1239 OFFCURVE",
"981 1079 CURVE SMOOTH",
"981 907 OFFCURVE",
"882 840 OFFCURVE",
"653 840 CURVE SMOOTH",
"383 840 LINE"
);
}
);
width = 1331;
}
);
note = uni2C82;
unicode = 2C82;
},
{
glyphname = uni2C83;
lastChange = "2016-11-10 17:34:19 +0000";
layers = (
{
layerId = "B23D4CF3-C1D9-4344-818F-C48D5A58935E";
paths = (
{
closed = 1;
nodes = (
"668 0 LINE SMOOTH",
"955 0 OFFCURVE",
"1112 114 OFFCURVE",
"1112 322 CURVE SMOOTH",
"1112 465 OFFCURVE",
"1031 550 OFFCURVE",
"846 575 CURVE",
"846 584 LINE",
"994 611 OFFCURVE",
"1077 680 OFFCURVE",
"1077 821 CURVE SMOOTH",
"1077 1006 OFFCURVE",
"940 1098 OFFCURVE",
"666 1098 CURVE SMOOTH",
"174 1098 LINE",
"174 0 LINE"
);
},
{
closed = 1;
nodes = (
"354 498 LINE",
"649 498 LINE SMOOTH",
"834 498 OFFCURVE",
"932 455 OFFCURVE",
"932 332 CURVE SMOOTH",
"932 207 OFFCURVE",
"839 145 OFFCURVE",
"653 145 CURVE SMOOTH",
"354 145 LINE"
);
},
{
closed = 1;
nodes = (
"354 948 LINE",
"662 948 LINE SMOOTH",
"822 948 OFFCURVE",
"901 908 OFFCURVE",
"901 805 CURVE SMOOTH",
"901 692 OFFCURVE",
"825 647 OFFCURVE",
"629 647 CURVE SMOOTH",
"354 647 LINE"
);
}
);
width = 1180;
}
);
note = uni2C83;
unicode = 2C83;
},
{
glyphname = uni2C84;
lastChange = "2016-11-10 17:34:19 +0000";
layers = (
{
layerId = "B23D4CF3-C1D9-4344-818F-C48D5A58935E";
paths = (
{
closed = 1;
nodes = (
"383 0 LINE",
"383 1298 LINE",
"698 1298 LINE SMOOTH",
"845 1298 OFFCURVE",
"891 1262 OFFCURVE",
"891 1147 CURVE",
"1065 1147 LINE",
"1065 1241 OFFCURVE",
"1055 1307 OFFCURVE",
"1036 1346 CURVE SMOOTH",
"997 1422 OFFCURVE",
"915 1462 OFFCURVE",
"758 1462 CURVE SMOOTH",
"199 1462 LINE",
"199 0 LINE"
);
}
);
width = 1073;
}
);
note = uni2C84;
unicode = 2C84;
},
{
glyphname = uni2C85;
lastChange = "2016-11-10 17:34:19 +0000";
layers = (
{
layerId = "B23D4CF3-C1D9-4344-818F-C48D5A58935E";
paths = (
{
closed = 1;
nodes = (
"354 0 LINE",
"354 946 LINE",
"518 946 LINE SMOOTH",
"649 946 OFFCURVE",
"690 911 OFFCURVE",
"690 807 CURVE",
"848 807 LINE",
"848 893 OFFCURVE",
"839 954 OFFCURVE",
"822 990 CURVE SMOOTH",
"787 1061 OFFCURVE",
"714 1098 OFFCURVE",
"571 1098 CURVE SMOOTH",
"174 1098 LINE",
"174 0 LINE"
);
}
);
width = 887;
}
);
note = uni2C85;
unicode = 2C85;
},
{
glyphname = uni2C86;
lastChange = "2016-11-10 17:34:19 +0000";
layers = (
{
layerId = "B23D4CF3-C1D9-4344-818F-C48D5A58935E";
paths = (
{
closed = 1;
nodes = (
"1636 0 LINE",
"1636 162 LINE",
"1583 162 OFFCURVE",
"1546 167 OFFCURVE",
"1523 178 CURVE SMOOTH",
"1478 198 OFFCURVE",
"1446 241 OFFCURVE",
"1401 342 CURVE SMOOTH",
"1028 1180 LINE SMOOTH",
"935 1392 OFFCURVE",
"825 1462 OFFCURVE",
"594 1462 CURVE SMOOTH",
"555 1462 LINE",
"555 1300 LINE",
"614 1300 OFFCURVE",
"660 1296 OFFCURVE",
"694 1289 CURVE SMOOTH",
"761 1273 OFFCURVE",
"798 1246 OFFCURVE",
"854 1135 CURVE",
"377 162 LINE",
"241 162 OFFCURVE",
"207 195 OFFCURVE",
"207 291 CURVE",
"33 291 LINE",
"33 88 OFFCURVE",
"126 0 OFFCURVE",
"319 0 CURVE SMOOTH"
);
},
{
closed = 1;
nodes = (
"938 971 LINE",
"1292 162 LINE",
"561 162 LINE"
);
}
);
width = 1667;
}
);
note = uni2C86;
unicode = 2C86;
},
{
glyphname = uni2C87;
lastChange = "2016-11-10 17:34:19 +0000";
layers = (
{
layerId = "B23D4CF3-C1D9-4344-818F-C48D5A58935E";
paths = (
{
closed = 1;
nodes = (
"1327 0 LINE",
"1327 145 LINE",
"1285 145 OFFCURVE",
"1254 149 OFFCURVE",
"1235 157 CURVE SMOOTH",
"1196 173 OFFCURVE",
"1165 208 OFFCURVE",
"1133 276 CURVE SMOOTH",
"850 872 LINE SMOOTH",
"769 1036 OFFCURVE",
"668 1100 OFFCURVE",
"500 1100 CURVE SMOOTH",
"420 1100 LINE",
"420 954 LINE",
"581 954 OFFCURVE",
"623 930 OFFCURVE",
"670 823 CURVE",
"299 145 LINE",
"200 145 OFFCURVE",
"174 176 OFFCURVE",
"174 244 CURVE",
"20 244 LINE",
"20 81 OFFCURVE",
"92 0 OFFCURVE",
"236 0 CURVE SMOOTH"
);
},
{
closed = 1;
nodes = (
"758 672 LINE",
"1014 145 LINE",
"485 145 LINE"
);
}
);
width = 1348;
}
);
note = uni2C87;
unicode = 2C87;
},
{
glyphname = uni2C88;
lastChange = "2016-11-10 17:34:19 +0000";
layers = (
{
layerId = "B23D4CF3-C1D9-4344-818F-C48D5A58935E";
paths = (
{
closed = 1;
nodes = (
"964 -20 OFFCURVE",
"1095 0 OFFCURVE",
"1200 39 CURVE",
"1200 199 LINE",
"1065 160 OFFCURVE",
"943 141 OFFCURVE",
"834 141 CURVE SMOOTH",
"511 141 OFFCURVE",
"335 326 OFFCURVE",
"319 682 CURVE",
"1036 682 LINE",
"1036 842 LINE",
"324 842 LINE",
"359 1154 OFFCURVE",
"541 1321 OFFCURVE",
"834 1321 CURVE SMOOTH",
"949 1321 OFFCURVE",
"1065 1293 OFFCURVE",
"1182 1237 CURVE",
"1257 1395 LINE",
"1134 1455 OFFCURVE",
"995 1485 OFFCURVE",
"838 1485 CURVE SMOOTH",
"389 1485 OFFCURVE",
"125 1198 OFFCURVE",
"125 733 CURVE SMOOTH",
"125 246 OFFCURVE",
"365 -20 OFFCURVE",
"809 -20 CURVE SMOOTH"
);
}
);
width = 1317;
}
);
note = uni2C88;
unicode = 2C88;
},
{
glyphname = uni2C89;
lastChange = "2016-11-10 17:34:09 +0000";
layers = (
{
layerId = "B23D4CF3-C1D9-4344-818F-C48D5A58935E";
paths = (
{
closed = 1;
nodes = (
"750 -20 OFFCURVE",
"848 0 OFFCURVE",
"928 39 CURVE",
"928 195 LINE",
"845 162 OFFCURVE",
"755 133 OFFCURVE",
"631 133 CURVE SMOOTH",
"416 133 OFFCURVE",
"309 247 OFFCURVE",
"297 492 CURVE",
"838 492 LINE",
"838 639 LINE",
"299 639 LINE",
"322 858 OFFCURVE",
"426 963 OFFCURVE",
"637 963 CURVE SMOOTH",
"715 963 OFFCURVE",
"800 946 OFFCURVE",
"891 911 CURVE",
"944 1059 LINE",
"865 1094 OFFCURVE",
"753 1118 OFFCURVE",
"641 1118 CURVE SMOOTH",
"304 1118 OFFCURVE",
"113 915 OFFCURVE",
"113 543 CURVE SMOOTH",
"113 178 OFFCURVE",
"302 -20 OFFCURVE",
"635 -20 CURVE SMOOTH"
);
}
);
width = 1014;
}
);
note = uni2C89;
unicode = 2C89;
},
{
glyphname = uni2C8A;
lastChange = "2016-11-10 17:34:19 +0000";
layers = (
{
layerId = "B23D4CF3-C1D9-4344-818F-C48D5A58935E";
paths = (
{
closed = 1;
nodes = (
"541 -143 LINE SMOOTH",
"790 -143 OFFCURVE",
"961 17 OFFCURVE",
"961 242 CURVE SMOOTH",
"961 359 OFFCURVE",
"918 444 OFFCURVE",
"854 512 CURVE SMOOTH",
"790 580 OFFCURVE",
"705 630 OFFCURVE",
"620 677 CURVE SMOOTH",
"535 724 OFFCURVE",
"450 768 OFFCURVE",
"386 822 CURVE SMOOTH",
"322 876 OFFCURVE",
"279 941 OFFCURVE",
"279 1030 CURVE SMOOTH",
"279 1206 OFFCURVE",
"386 1313 OFFCURVE",
"561 1313 CURVE SMOOTH",
"606 1313 OFFCURVE",
"659 1308 OFFCURVE",
"720 1297 CURVE SMOOTH",
"781 1286 OFFCURVE",
"831 1280 OFFCURVE",
"870 1280 CURVE SMOOTH",
"1023 1280 OFFCURVE",
"1113 1327 OFFCURVE",
"1188 1440 CURVE",
"1061 1530 LINE",
"1018 1469 OFFCURVE",
"968 1440 OFFCURVE",
"864 1440 CURVE SMOOTH",
"837 1440 OFFCURVE",
"796 1446 OFFCURVE",
"739 1457 CURVE SMOOTH",
"682 1468 OFFCURVE",
"626 1473 OFFCURVE",
"573 1473 CURVE SMOOTH",
"479 1473 OFFCURVE",
"395 1454 OFFCURVE",
"322 1416 CURVE SMOOTH",
"174 1340 OFFCURVE",
"92 1199 OFFCURVE",
"92 1028 CURVE SMOOTH",
"92 907 OFFCURVE",
"135 818 OFFCURVE",
"199 747 CURVE SMOOTH",
"263 676 OFFCURVE",
"349 624 OFFCURVE",
"434 577 CURVE SMOOTH",
"519 529 OFFCURVE",
"605 485 OFFCURVE",
"669 432 CURVE SMOOTH",
"733 379 OFFCURVE",
"776 315 OFFCURVE",
"776 227 CURVE SMOOTH",
"776 96 OFFCURVE",
"688 16 OFFCURVE",
"549 16 CURVE SMOOTH",
"507 16 OFFCURVE",
"471 18 OFFCURVE",
"440 23 CURVE",
"440 -141 LINE",
"490 -143 LINE"
);
}
);
width = 1139;
}
);
note = uni2C8A;
unicode = 2C8A;
},
{
glyphname = uni2C8B;
lastChange = "2016-11-10 17:34:19 +0000";
layers = (
{
layerId = "B23D4CF3-C1D9-4344-818F-C48D5A58935E";
paths = (
{
closed = 1;
nodes = (
"562 -360 OFFCURVE",
"629 -343 OFFCURVE",
"688 -309 CURVE SMOOTH",
"805 -242 OFFCURVE",
"874 -118 OFFCURVE",
"874 14 CURVE SMOOTH",
"874 68 OFFCURVE",
"864 117 OFFCURVE",
"843 160 CURVE SMOOTH",
"802 246 OFFCURVE",
"736 309 OFFCURVE",
"572 400 CURVE SMOOTH",
"475 453 OFFCURVE",
"410 493 OFFCURVE",
"377 521 CURVE SMOOTH",
"309 576 OFFCURVE",
"270 638 OFFCURVE",
"270 723 CURVE SMOOTH",
"270 866 OFFCURVE",
"363 963 OFFCURVE",
"510 963 CURVE SMOOTH",
"539 963 OFFCURVE",
"583 959 OFFCURVE",
"642 951 CURVE SMOOTH",
"701 942 OFFCURVE",
"752 938 OFFCURVE",
"793 938 CURVE SMOOTH",
"902 938 OFFCURVE",
"980 976 OFFCURVE",
"1051 1087 CURVE",
"932 1169 LINE",
"891 1108 OFFCURVE",
"845 1085 OFFCURVE",
"778 1085 CURVE SMOOTH",
"747 1085 OFFCURVE",
"705 1090 OFFCURVE",
"651 1099 CURVE SMOOTH",
"597 1108 OFFCURVE",
"549 1112 OFFCURVE",
"506 1112 CURVE SMOOTH",
"269 1112 OFFCURVE",
"98 953 OFFCURVE",
"98 725 CURVE SMOOTH",
"98 669 OFFCURVE",
"107 620 OFFCURVE",
"124 579 CURVE SMOOTH",
"158 495 OFFCURVE",
"214 431 OFFCURVE",
"285 382 CURVE SMOOTH",
"356 333 OFFCURVE",
"431 290 OFFCURVE",
"503 249 CURVE SMOOTH",
"538 228 OFFCURVE",
"570 206 OFFCURVE",
"598 183 CURVE SMOOTH",
"653 135 OFFCURVE",
"690 79 OFFCURVE",
"690 2 CURVE SMOOTH",
"690 -121 OFFCURVE",
"610 -205 OFFCURVE",
"485 -205 CURVE SMOOTH",
"470 -205 OFFCURVE",
"451 -204 OFFCURVE",
"430 -201 CURVE",
"430 -356 LINE",
"445 -359 OFFCURVE",
"464 -360 OFFCURVE",
"487 -360 CURVE SMOOTH"
);
}
);
width = 981;
}
);
note = uni2C8B;
unicode = 2C8B;
},
{
glyphname = uni2C8C;
lastChange = "2016-11-10 17:34:19 +0000";
layers = (
{
layerId = "B23D4CF3-C1D9-4344-818F-C48D5A58935E";
paths = (
{
closed = 1;
nodes = (
"1136 -186 LINE",
"1136 63 OFFCURVE",
"1067 164 OFFCURVE",
"827 164 CURVE SMOOTH",
"301 164 LINE",
"1071 1323 LINE",
"1071 1462 LINE",
"102 1462 LINE",
"102 1298 LINE",
"848 1298 LINE",
"78 139 LINE",
"78 0 LINE",
"782 0 LINE SMOOTH",
"926 0 OFFCURVE",
"956 -59 OFFCURVE",
"959 -186 CURVE"
);
}
);
width = 1171;
}
);
note = uni2C8C;
unicode = 2C8C;
},
{
glyphname = uni2C8D;
lastChange = "2016-11-10 17:34:19 +0000";
layers = (
{
layerId = "B23D4CF3-C1D9-4344-818F-C48D5A58935E";
paths = (
{
closed = 1;
nodes = (
"928 -186 LINE",
"925 -83 OFFCURVE",
"915 -11 OFFCURVE",
"897 28 CURVE SMOOTH",
"861 107 OFFCURVE",
"786 139 OFFCURVE",
"641 139 CURVE SMOOTH",
"287 139 LINE",
"868 963 LINE",
"868 1098 LINE",
"115 1098 LINE",
"115 958 LINE",
"670 958 LINE",
"80 119 LINE",
"80 0 LINE",
"600 0 LINE SMOOTH",
"699 0 OFFCURVE",
"733 -18 OFFCURVE",
"751 -66 CURVE SMOOTH",
"760 -90 OFFCURVE",
"764 -130 OFFCURVE",
"764 -186 CURVE"
);
}
);
width = 930;
}
);
note = uni2C8D;
unicode = 2C8D;
},
{
glyphname = uni2C8E;
lastChange = "2016-11-10 17:34:19 +0000";
layers = (
{
layerId = "B23D4CF3-C1D9-4344-818F-C48D5A58935E";
paths = (
{
closed = 1;
nodes = (
"383 0 LINE",
"383 682 LINE",
"1133 682 LINE",
"1133 0 LINE",
"1317 0 LINE",
"1317 1462 LINE",
"1133 1462 LINE",
"1133 844 LINE",
"383 844 LINE",
"383 1462 LINE",
"199 1462 LINE",
"199 0 LINE"
);
}
);
width = 1518;
}
);
note = uni2C8E;
unicode = 2C8E;
},
{
glyphname = uni2C8F;
lastChange = "2016-11-10 17:34:19 +0000";
layers = (
{
layerId = "B23D4CF3-C1D9-4344-818F-C48D5A58935E";
paths = (
{
closed = 1;
nodes = (
"354 0 LINE",
"354 489 LINE",
"950 489 LINE",
"950 0 LINE",
"1130 0 LINE",
"1130 1098 LINE",
"950 1098 LINE",
"950 641 LINE",
"354 641 LINE",
"354 1098 LINE",
"174 1098 LINE",
"174 0 LINE"
);
}
);
width = 1305;
}
);
note = uni2C8F;
unicode = 2C8F;
},
{
glyphname = uni2C90;
lastChange = "2016-11-10 17:34:19 +0000";
layers = (
{
layerId = "B23D4CF3-C1D9-4344-818F-C48D5A58935E";
paths = (
{
closed = 1;
nodes = (
"1226 -20 OFFCURVE",
"1475 265 OFFCURVE",
"1475 733 CURVE SMOOTH",
"1475 1204 OFFCURVE",
"1227 1485 OFFCURVE",
"803 1485 CURVE SMOOTH",
"367 1485 OFFCURVE",
"125 1211 OFFCURVE",
"125 735 CURVE SMOOTH",
"125 255 OFFCURVE",
"370 -20 OFFCURVE",
"801 -20 CURVE SMOOTH"
);
},
{
closed = 1;
nodes = (
"504 139 OFFCURVE",
"339 319 OFFCURVE",
"322 666 CURVE",
"1278 666 LINE",
"1262 319 OFFCURVE",
"1097 139 OFFCURVE",
"801 139 CURVE SMOOTH"
);
},
{
closed = 1;
nodes = (
"347 1154 OFFCURVE",
"512 1323 OFFCURVE",
"803 1323 CURVE SMOOTH",
"1090 1323 OFFCURVE",
"1251 1156 OFFCURVE",
"1276 825 CURVE",
"322 825 LINE"
);
}
);
width = 1602;
}
);
note = uni2C90;
unicode = 2C90;
},
{
glyphname = uni2C91;
lastChange = "2016-11-10 17:34:19 +0000";
layers = (
{
layerId = "B23D4CF3-C1D9-4344-818F-C48D5A58935E";
paths = (
{
closed = 1;
nodes = (
"936 -20 OFFCURVE",
"1128 192 OFFCURVE",
"1128 551 CURVE SMOOTH",
"1128 900 OFFCURVE",
"932 1118 OFFCURVE",
"623 1118 CURVE SMOOTH",
"300 1118 OFFCURVE",
"113 908 OFFCURVE",
"113 551 CURVE SMOOTH",
"113 436 OFFCURVE",
"134 336 OFFCURVE",
"175 249 CURVE SMOOTH",
"258 76 OFFCURVE",
"417 -20 OFFCURVE",
"616 -20 CURVE SMOOTH"
);
},
{
closed = 1;
nodes = (
"418 129 OFFCURVE",
"311 249 OFFCURVE",
"299 489 CURVE",
"940 489 LINE",
"925 254 OFFCURVE",
"829 129 OFFCURVE",
"621 129 CURVE SMOOTH"
);
},
{
closed = 1;
nodes = (
"320 855 OFFCURVE",
"415 967 OFFCURVE",
"618 967 CURVE SMOOTH",
"813 967 OFFCURVE",
"920 858 OFFCURVE",
"940 639 CURVE",
"301 639 LINE"
);
}
);
width = 1239;
}
);
note = uni2C91;
unicode = 2C91;
},
{
glyphname = uni2C92;
lastChange = "2016-11-10 17:34:19 +0000";
layers = (
{
layerId = "B23D4CF3-C1D9-4344-818F-C48D5A58935E";
paths = (
{
closed = 1;
nodes = (
"383 0 LINE",
"383 1462 LINE",
"199 1462 LINE",
"199 0 LINE"
);
}
);
width = 582;
}
);
note = uni2C92;
unicode = 2C92;
},
{
glyphname = uni2C93;
lastChange = "2016-11-10 17:34:19 +0000";
layers = (
{
layerId = "B23D4CF3-C1D9-4344-818F-C48D5A58935E";
paths = (
{
closed = 1;
nodes = (
"354 0 LINE",
"354 1098 LINE",
"174 1098 LINE",
"174 0 LINE"
);
}
);
width = 528;
}
);
note = uni2C93;
unicode = 2C93;
},
{
glyphname = uni2C94;
lastChange = "2016-11-10 17:34:19 +0000";
layers = (
{
layerId = "B23D4CF3-C1D9-4344-818F-C48D5A58935E";
paths = (
{
closed = 1;
nodes = (
"383 0 LINE",
"383 567 LINE",
"532 698 LINE",
"1051 0 LINE",
"1268 0 LINE",
"666 825 LINE",
"1245 1462 LINE",
"1030 1462 LINE",
"509 880 LINE",
"383 741 LINE",
"383 1462 LINE",
"199 1462 LINE",
"199 0 LINE"
);
}
);
width = 1268;
}
);
note = uni2C94;
unicode = 2C94;
},
{
glyphname = uni2C95;
lastChange = "2016-11-10 17:34:19 +0000";
layers = (
{
layerId = "B23D4CF3-C1D9-4344-818F-C48D5A58935E";
paths = (
{
closed = 1;
nodes = (
"365 0 LINE",
"365 385 LINE",
"500 496 LINE",
"860 0 LINE",
"1075 0 LINE",
"627 610 LINE",
"1042 1096 LINE",
"825 1096 LINE",
"352 537 LINE",
"361 628 OFFCURVE",
"365 720 OFFCURVE",
"365 811 CURVE SMOOTH",
"365 1096 LINE",
"174 1096 LINE",
"174 0 LINE"
);
}
);
width = 1094;
}
);
note = uni2C95;
unicode = 2C95;
},
{
glyphname = uni2C96;
lastChange = "2016-11-10 17:34:19 +0000";
layers = (
{
layerId = "B23D4CF3-C1D9-4344-818F-C48D5A58935E";
paths = (
{
closed = 1;
nodes = (
"1122 -20 OFFCURVE",
"1163 -12 OFFCURVE",
"1196 4 CURVE",
"1196 137 LINE",
"1171 130 OFFCURVE",
"1151 127 OFFCURVE",
"1135 127 CURVE SMOOTH",
"1082 127 OFFCURVE",
"1047 175 OFFCURVE",
"1014 266 CURVE SMOOTH",
"647 1227 LINE SMOOTH",
"576 1410 OFFCURVE",
"489 1483 OFFCURVE",
"346 1483 CURVE SMOOTH",
"289 1483 OFFCURVE",
"238 1473 OFFCURVE",
"195 1454 CURVE",
"236 1305 LINE",
"261 1316 OFFCURVE",
"285 1321 OFFCURVE",
"309 1321 CURVE SMOOTH",
"382 1321 OFFCURVE",
"435 1272 OFFCURVE",
"475 1165 CURVE SMOOTH",
"528 1028 LINE",
"-4 0 LINE",
"193 0 LINE",
"612 825 LINE",
"848 182 LINE SMOOTH",
"900 37 OFFCURVE",
"960 -20 OFFCURVE",
"1075 -20 CURVE SMOOTH"
);
}
);
width = 1190;
}
);
note = uni2C96;
unicode = 2C96;
},
{
glyphname = uni2C97;
lastChange = "2016-11-10 17:34:19 +0000";
layers = (
{
layerId = "B23D4CF3-C1D9-4344-818F-C48D5A58935E";
paths = (
{
closed = 1;
nodes = (
"152 0 LINE",
"487 602 LINE",
"647 244 LINE SMOOTH",
"685 158 OFFCURVE",
"715 101 OFFCURVE",
"737 74 CURVE SMOOTH",
"780 19 OFFCURVE",
"827 0 OFFCURVE",
"936 0 CURVE SMOOTH",
"965 0 LINE",
"965 143 LINE",
"889 143 OFFCURVE",
"864 171 OFFCURVE",
"819 274 CURVE SMOOTH",
"530 913 LINE SMOOTH",
"507 962 OFFCURVE",
"485 1000 OFFCURVE",
"462 1026 CURVE SMOOTH",
"417 1078 OFFCURVE",
"365 1098 OFFCURVE",
"244 1098 CURVE SMOOTH",
"207 1098 LINE",
"207 956 LINE",
"302 956 OFFCURVE",
"330 939 OFFCURVE",
"373 848 CURVE SMOOTH",
"408 774 LINE",
"-31 0 LINE"
);
}
);
width = 956;
}
);
note = uni2C97;
unicode = 2C97;
},
{
glyphname = uni2C98;
lastChange = "2016-11-10 17:34:19 +0000";
layers = (
{
layerId = "B23D4CF3-C1D9-4344-818F-C48D5A58935E";
paths = (
{
closed = 1;
nodes = (
"383 0 LINE",
"383 438 LINE",
"471 182 OFFCURVE",
"626 45 OFFCURVE",
"817 45 CURVE SMOOTH",
"1016 45 OFFCURVE",
"1138 165 OFFCURVE",
"1255 438 CURVE",
"1255 0 LINE",
"1440 0 LINE",
"1440 1462 LINE",
"1255 1462 LINE",
"1255 1114 LINE SMOOTH",
"1255 683 OFFCURVE",
"1067 240 OFFCURVE",
"823 240 CURVE SMOOTH",
"582 240 OFFCURVE",
"383 642 OFFCURVE",
"383 1118 CURVE SMOOTH",
"383 1462 LINE",
"199 1462 LINE",
"199 0 LINE"
);
}
);
width = 1638;
}
);
note = uni2C98;
unicode = 2C98;
},
{
glyphname = uni2C99;
lastChange = "2016-11-10 17:34:09 +0000";
layers = (
{
layerId = "B23D4CF3-C1D9-4344-818F-C48D5A58935E";
paths = (
{
closed = 1;
nodes = (
"960 -16 OFFCURVE",
"1080 129 OFFCURVE",
"1159 438 CURVE",
"1163 438 LINE",
"1169 327 OFFCURVE",
"1194 181 OFFCURVE",
"1239 0 CURVE",
"1413 0 LINE",
"1344 221 OFFCURVE",
"1295 443 OFFCURVE",
"1266 666 CURVE",
"1278 1098 LINE",
"1077 1098 LINE",
"1081 666 LINE",
"1042 494 OFFCURVE",
"997 369 OFFCURVE",
"945 290 CURVE SMOOTH",
"893 211 OFFCURVE",
"832 172 OFFCURVE",
"762 172 CURVE SMOOTH",
"635 172 OFFCURVE",
"543 337 OFFCURVE",
"487 666 CURVE",
"498 1098 LINE",
"293 1098 LINE",
"303 666 LINE",
"246 381 OFFCURVE",
"176 168 OFFCURVE",
"123 0 CURVE",
"295 0 LINE",
"322 106 LINE SMOOTH",
"357 234 OFFCURVE",
"378 345 OFFCURVE",
"387 438 CURVE",
"391 438 LINE",
"439 143 OFFCURVE",
"565 -16 OFFCURVE",
"760 -16 CURVE SMOOTH"
);
}
);
width = 1528;
}
);
note = uni2C99;
unicode = 2C99;
},
{
glyphname = uni2C9A;
lastChange = "2016-11-10 17:34:19 +0000";
layers = (
{
layerId = "B23D4CF3-C1D9-4344-818F-C48D5A58935E";
paths = (
{
closed = 1;
nodes = (
"383 0 LINE",
"383 817 LINE SMOOTH",
"383 916 OFFCURVE",
"379 1022 OFFCURVE",
"372 1133 CURVE SMOOTH",
"367 1214 LINE",
"375 1214 LINE",
"1126 0 LINE",
"1341 0 LINE",
"1341 1462 LINE",
"1155 1462 LINE",
"1155 637 LINE SMOOTH",
"1155 549 OFFCURVE",
"1166 284 OFFCURVE",
"1169 252 CURVE",
"1161 252 LINE",
"412 1462 LINE",
"199 1462 LINE",
"199 0 LINE"
);
}
);
width = 1556;
}
);
note = uni2C9A;
unicode = 2C9A;
},
{
glyphname = uni2C9B;
lastChange = "2016-11-10 17:34:19 +0000";
layers = (
{
layerId = "B23D4CF3-C1D9-4344-818F-C48D5A58935E";
paths = (
{
closed = 1;
nodes = (
"354 0 LINE",
"354 829 LINE",
"950 170 LINE",
"950 0 LINE",
"1130 0 LINE",
"1130 1098 LINE",
"950 1098 LINE",
"950 418 LINE",
"354 1098 LINE",
"174 1098 LINE",
"174 0 LINE"
);
}
);
width = 1294;
}
);
note = uni2C9B;
unicode = 2C9B;
},
{
glyphname = uni2C9C;
lastChange = "2016-11-10 17:34:19 +0000";
layers = (
{
layerId = "B23D4CF3-C1D9-4344-818F-C48D5A58935E";
paths = (
{
closed = 1;
nodes = (
"1136 -186 LINE",
"1136 57 OFFCURVE",
"1075 164 OFFCURVE",
"818 164 CURVE",
"798 163 OFFCURVE",
"776 163 OFFCURVE",
"751 163 CURVE",
"673 159 LINE SMOOTH",
"618 156 OFFCURVE",
"563 151 OFFCURVE",
"532 147 CURVE",
"532 156 LINE",
"879 227 OFFCURVE",
"1069 368 OFFCURVE",
"1069 561 CURVE SMOOTH",
"1069 789 OFFCURVE",
"892 889 OFFCURVE",
"469 889 CURVE",
"469 895 LINE",
"1051 1315 LINE",
"1051 1462 LINE",
"102 1462 LINE",
"102 1298 LINE",
"330 1298 LINE SMOOTH",
"533 1298 OFFCURVE",
"687 1304 OFFCURVE",
"799 1317 CURVE",
"799 1313 LINE",
"201 879 LINE",
"201 741 LINE",
"432 741 LINE SMOOTH",
"586 741 OFFCURVE",
"695 726 OFFCURVE",
"760 696 CURVE SMOOTH",
"824 666 OFFCURVE",
"856 614 OFFCURVE",
"856 541 CURVE SMOOTH",
"856 345 OFFCURVE",
"501 204 OFFCURVE",
"78 164 CURVE",
"78 0 LINE",
"782 0 LINE SMOOTH",
"926 0 OFFCURVE",
"956 -59 OFFCURVE",
"959 -186 CURVE"
);
}
);
width = 1171;
}
);
note = uni2C9C;
unicode = 2C9C;
},
{
glyphname = uni2C9D;
lastChange = "2016-11-10 17:34:19 +0000";
layers = (
{
layerId = "B23D4CF3-C1D9-4344-818F-C48D5A58935E";
paths = (
{
closed = 1;
nodes = (
"926 -186 LINE",
"923 -79 OFFCURVE",
"915 -8 OFFCURVE",
"900 27 CURVE SMOOTH",
"870 98 OFFCURVE",
"807 127 OFFCURVE",
"676 127 CURVE SMOOTH",
"639 127 LINE SMOOTH",
"604 127 OFFCURVE",
"558 124 OFFCURVE",
"501 117 CURVE SMOOTH",
"467 113 LINE",
"467 121 LINE",
"732 164 OFFCURVE",
"870 265 OFFCURVE",
"870 440 CURVE SMOOTH",
"870 607 OFFCURVE",
"716 680 OFFCURVE",
"403 680 CURVE",
"403 686 LINE",
"858 952 LINE",
"858 1098 LINE",
"84 1098 LINE",
"84 958 LINE",
"379 958 LINE SMOOTH",
"478 958 OFFCURVE",
"569 960 OFFCURVE",
"653 965 CURVE",
"653 956 LINE",
"582 927 OFFCURVE",
"507 889 OFFCURVE",
"430 842 CURVE SMOOTH",
"184 686 LINE",
"184 563 LINE",
"352 563 LINE SMOOTH",
"469 563 OFFCURVE",
"555 551 OFFCURVE",
"610 527 CURVE SMOOTH",
"665 502 OFFCURVE",
"692 463 OFFCURVE",
"692 410 CURVE SMOOTH",
"692 360 OFFCURVE",
"667 317 OFFCURVE",
"618 280 CURVE SMOOTH",
"519 207 OFFCURVE",
"310 151 OFFCURVE",
"90 135 CURVE",
"90 0 LINE",
"551 0 LINE SMOOTH",
"611 0 OFFCURVE",
"655 -5 OFFCURVE",
"684 -15 CURVE SMOOTH",
"740 -35 OFFCURVE",
"762 -79 OFFCURVE",
"762 -186 CURVE"
);
}
);
width = 963;
}
);
note = uni2C9D;
unicode = 2C9D;
},
{
glyphname = uni2C9E;
lastChange = "2016-11-10 17:34:19 +0000";
layers = (
{
layerId = "B23D4CF3-C1D9-4344-818F-C48D5A58935E";
paths = (
{
closed = 1;
nodes = (
"1226 -20 OFFCURVE",
"1475 265 OFFCURVE",
"1475 733 CURVE SMOOTH",
"1475 1204 OFFCURVE",
"1227 1485 OFFCURVE",
"803 1485 CURVE SMOOTH",
"367 1485 OFFCURVE",
"125 1211 OFFCURVE",
"125 735 CURVE SMOOTH",
"125 255 OFFCURVE",
"370 -20 OFFCURVE",
"801 -20 CURVE SMOOTH"
);
},
{
closed = 1;
nodes = (
"486 139 OFFCURVE",
"319 346 OFFCURVE",
"319 733 CURVE SMOOTH",
"319 1118 OFFCURVE",
"486 1323 OFFCURVE",
"803 1323 CURVE SMOOTH",
"1116 1323 OFFCURVE",
"1280 1124 OFFCURVE",
"1280 733 CURVE SMOOTH",
"1280 341 OFFCURVE",
"1114 139 OFFCURVE",
"801 139 CURVE SMOOTH"
);
}
);
width = 1599;
}
);
note = uni2C9E;
unicode = 2C9E;
},
{
glyphname = uni2C9F;
lastChange = "2016-11-10 17:34:19 +0000";
layers = (
{
layerId = "B23D4CF3-C1D9-4344-818F-C48D5A58935E";
paths = (
{
closed = 1;
nodes = (
"936 -20 OFFCURVE",
"1128 192 OFFCURVE",
"1128 551 CURVE SMOOTH",
"1128 900 OFFCURVE",
"932 1118 OFFCURVE",
"623 1118 CURVE SMOOTH",
"300 1118 OFFCURVE",
"113 908 OFFCURVE",
"113 551 CURVE SMOOTH",
"113 436 OFFCURVE",
"134 336 OFFCURVE",
"175 249 CURVE SMOOTH",
"258 76 OFFCURVE",
"417 -20 OFFCURVE",
"616 -20 CURVE SMOOTH"
);
},
{
closed = 1;
nodes = (
"409 129 OFFCURVE",
"299 275 OFFCURVE",
"299 551 CURVE SMOOTH",
"299 828 OFFCURVE",
"405 967 OFFCURVE",
"618 967 CURVE SMOOTH",
"830 967 OFFCURVE",
"942 827 OFFCURVE",
"942 551 CURVE SMOOTH",
"942 275 OFFCURVE",
"830 129 OFFCURVE",
"621 129 CURVE SMOOTH"
);
}
);
width = 1239;
}
);
note = uni2C9F;
unicode = 2C9F;
},
{
glyphname = uni2CA0;
lastChange = "2016-11-10 17:34:19 +0000";
layers = (
{
layerId = "B23D4CF3-C1D9-4344-818F-C48D5A58935E";
paths = (
{
closed = 1;
nodes = (
"383 0 LINE",
"383 1300 LINE",
"1114 1300 LINE",
"1114 0 LINE",
"1296 0 LINE",
"1296 1462 LINE",
"199 1462 LINE",
"199 0 LINE"
);
}
);
width = 1497;
}
);
note = uni2CA0;
unicode = 2CA0;
},
{
glyphname = uni2CA1;
lastChange = "2016-11-10 17:34:19 +0000";
layers = (
{
layerId = "B23D4CF3-C1D9-4344-818F-C48D5A58935E";
paths = (
{
closed = 1;
nodes = (
"354 0 LINE",
"354 944 LINE",
"922 944 LINE",
"922 0 LINE",
"1102 0 LINE",
"1102 1098 LINE",
"174 1098 LINE",
"174 0 LINE"
);
}
);
width = 1278;
}
);
note = uni2CA1;
unicode = 2CA1;
},
{
glyphname = uni2CA2;
lastChange = "2016-11-10 17:34:19 +0000";
layers = (
{
layerId = "B23D4CF3-C1D9-4344-818F-C48D5A58935E";
paths = (
{
closed = 1;
nodes = (
"383 0 LINE",
"383 569 LINE",
"551 569 LINE SMOOTH",
"922 569 OFFCURVE",
"1135 733 OFFCURVE",
"1135 1032 CURVE SMOOTH",
"1135 1319 OFFCURVE",
"952 1462 OFFCURVE",
"586 1462 CURVE SMOOTH",
"199 1462 LINE",
"199 0 LINE"
);
},
{
closed = 1;
nodes = (
"383 1305 LINE",
"569 1305 LINE SMOOTH",
"826 1305 OFFCURVE",
"944 1212 OFFCURVE",
"944 1024 CURVE SMOOTH",
"944 816 OFFCURVE",
"821 727 OFFCURVE",
"530 727 CURVE SMOOTH",
"383 727 LINE"
);
}
);
width = 1239;
}
);
note = uni2CA2;
unicode = 2CA2;
},
{
glyphname = uni2CA3;
lastChange = "2016-11-10 17:34:19 +0000";
layers = (
{
layerId = "B23D4CF3-C1D9-4344-818F-C48D5A58935E";
paths = (
{
closed = 1;
nodes = (
"358 -492 LINE",
"358 252 LINE",
"516 252 LINE SMOOTH",
"820 252 OFFCURVE",
"1004 414 OFFCURVE",
"1004 686 CURVE SMOOTH",
"1004 943 OFFCURVE",
"837 1098 OFFCURVE",
"549 1098 CURVE SMOOTH",
"176 1098 LINE",
"176 -492 LINE"
);
},
{
closed = 1;
nodes = (
"358 952 LINE",
"522 952 LINE SMOOTH",
"711 952 OFFCURVE",
"817 855 OFFCURVE",
"817 680 CURVE SMOOTH",
"817 493 OFFCURVE",
"709 397 OFFCURVE",
"506 397 CURVE SMOOTH",
"358 397 LINE"
);
}
);
width = 1085;
}
);
note = uni2CA3;
unicode = 2CA3;
},
{
glyphname = uni2CA4;
lastChange = "2016-11-10 17:34:19 +0000";
layers = (
{
layerId = "B23D4CF3-C1D9-4344-818F-C48D5A58935E";
paths = (
{
closed = 1;
nodes = (
"946 -20 OFFCURVE",
"1050 -6 OFFCURVE",
"1174 39 CURVE",
"1174 199 LINE",
"1044 160 OFFCURVE",
"927 141 OFFCURVE",
"823 141 CURVE SMOOTH",
"500 141 OFFCURVE",
"319 354 OFFCURVE",
"319 731 CURVE SMOOTH",
"319 1096 OFFCURVE",
"510 1321 OFFCURVE",
"825 1321 CURVE SMOOTH",
"930 1321 OFFCURVE",
"1040 1294 OFFCURVE",
"1157 1241 CURVE",
"1231 1397 LINE",
"1116 1454 OFFCURVE",
"982 1483 OFFCURVE",
"827 1483 CURVE SMOOTH",
"683 1483 OFFCURVE",
"558 1452 OFFCURVE",
"452 1391 CURVE SMOOTH",
"239 1268 OFFCURVE",
"125 1034 OFFCURVE",
"125 733 CURVE SMOOTH",
"125 253 OFFCURVE",
"366 -20 OFFCURVE",
"797 -20 CURVE SMOOTH"
);
}
);
width = 1294;
}
);
note = uni2CA4;
unicode = 2CA4;
},
{
glyphname = uni2CA5;
lastChange = "2016-11-10 17:34:09 +0000";
layers = (
{
layerId = "B23D4CF3-C1D9-4344-818F-C48D5A58935E";
paths = (
{
closed = 1;
nodes = (
"727 -20 OFFCURVE",
"821 0 OFFCURVE",
"897 39 CURVE",
"897 199 LINE",
"804 156 OFFCURVE",
"709 135 OFFCURVE",
"612 135 CURVE SMOOTH",
"405 135 OFFCURVE",
"299 280 OFFCURVE",
"299 545 CURVE SMOOTH",
"299 821 OFFCURVE",
"402 961 OFFCURVE",
"623 961 CURVE SMOOTH",
"688 961 OFFCURVE",
"767 944 OFFCURVE",
"860 909 CURVE",
"915 1059 LINE",
"847 1094 OFFCURVE",
"734 1118 OFFCURVE",
"627 1118 CURVE SMOOTH",
"298 1118 OFFCURVE",
"113 911 OFFCURVE",
"113 543 CURVE SMOOTH",
"113 180 OFFCURVE",
"298 -20 OFFCURVE",
"614 -20 CURVE SMOOTH"
);
}
);
width = 983;
}
);
note = uni2CA5;
unicode = 2CA5;
},
{
glyphname = uni2CA6;
lastChange = "2016-11-10 17:34:19 +0000";
layers = (
{
layerId = "B23D4CF3-C1D9-4344-818F-C48D5A58935E";
paths = (
{
closed = 1;
nodes = (
"717 0 LINE",
"717 1300 LINE",
"926 1300 LINE SMOOTH",
"1009 1300 OFFCURVE",
"1051 1256 OFFCURVE",
"1051 1169 CURVE",
"1227 1169 LINE",
"1227 1364 OFFCURVE",
"1130 1462 OFFCURVE",
"936 1462 CURVE SMOOTH",
"313 1462 LINE SMOOTH",
"120 1462 OFFCURVE",
"23 1364 OFFCURVE",
"23 1169 CURVE",
"199 1169 LINE",
"199 1256 OFFCURVE",
"241 1300 OFFCURVE",
"324 1300 CURVE SMOOTH",
"532 1300 LINE",
"532 0 LINE"
);
}
);
width = 1249;
}
);
note = uni2CA6;
unicode = 2CA6;
},
{
glyphname = uni2CA7;
lastChange = "2016-11-10 17:34:19 +0000";
layers = (
{
layerId = "B23D4CF3-C1D9-4344-818F-C48D5A58935E";
paths = (
{
closed = 1;
nodes = (
"672 0 LINE",
"672 946 LINE",
"870 946 LINE SMOOTH",
"935 946 OFFCURVE",
"967 914 OFFCURVE",
"967 850 CURVE",
"1128 850 LINE",
"1128 1015 OFFCURVE",
"1040 1098 OFFCURVE",
"885 1098 CURVE SMOOTH",
"276 1098 LINE SMOOTH",
"121 1098 OFFCURVE",
"33 1014 OFFCURVE",
"33 850 CURVE",
"195 850 LINE",
"195 914 OFFCURVE",
"227 946 OFFCURVE",
"291 946 CURVE SMOOTH",
"489 946 LINE",
"489 0 LINE"
);
}
);
width = 1161;
}
);
note = uni2CA7;
unicode = 2CA7;
},
{
glyphname = uni2CA8;
lastChange = "2016-11-10 17:34:19 +0000";
layers = (
{
layerId = "B23D4CF3-C1D9-4344-818F-C48D5A58935E";
paths = (
{
closed = 1;
nodes = (
"672 0 LINE",
"672 567 LINE",
"1159 1462 LINE",
"961 1462 LINE",
"580 743 LINE",
"201 1462 LINE",
"0 1462 LINE",
"487 559 LINE",
"487 0 LINE"
);
}
);
width = 1159;
}
);
note = uni2CA8;
unicode = 2CA8;
},
{
glyphname = uni2CA9;
lastChange = "2016-11-10 17:34:19 +0000";
layers = (
{
layerId = "B23D4CF3-C1D9-4344-818F-C48D5A58935E";
paths = (
{
closed = 1;
nodes = (
"610 -492 LINE",
"610 274 LINE",
"1126 1098 LINE",
"909 1098 LINE",
"520 451 LINE",
"131 1098 LINE",
"-86 1098 LINE",
"430 274 LINE",
"430 -492 LINE"
);
}
);
width = 1040;
}
);
note = uni2CA9;
unicode = 2CA9;
},
{
glyphname = uni2CAA;
lastChange = "2016-11-10 17:34:19 +0000";
layers = (
{
layerId = "B23D4CF3-C1D9-4344-818F-C48D5A58935E";
paths = (
{
closed = 1;
nodes = (
"913 -20 LINE",
"913 205 LINE",
"952 205 LINE SMOOTH",
"1071 205 OFFCURVE",
"1174 227 OFFCURVE",
"1261 270 CURVE SMOOTH",
"1436 357 OFFCURVE",
"1540 538 OFFCURVE",
"1540 758 CURVE SMOOTH",
"1540 863 OFFCURVE",
"1518 957 OFFCURVE",
"1474 1040 CURVE SMOOTH",
"1386 1205 OFFCURVE",
"1213 1303 OFFCURVE",
"981 1303 CURVE SMOOTH",
"913 1303 LINE",
"913 1483 LINE",
"731 1483 LINE",
"731 1303 LINE",
"666 1303 LINE SMOOTH",
"551 1303 OFFCURVE",
"452 1280 OFFCURVE",
"367 1233 CURVE SMOOTH",
"198 1139 OFFCURVE",
"104 965 OFFCURVE",
"104 758 CURVE SMOOTH",
"104 652 OFFCURVE",
"128 556 OFFCURVE",
"177 469 CURVE SMOOTH",
"273 295 OFFCURVE",
"451 205 OFFCURVE",
"688 205 CURVE SMOOTH",
"731 205 LINE",
"731 -20 LINE"
);
},
{
closed = 1;
nodes = (
"442 356 OFFCURVE",
"291 508 OFFCURVE",
"291 760 CURVE SMOOTH",
"291 997 OFFCURVE",
"435 1147 OFFCURVE",
"676 1147 CURVE SMOOTH",
"731 1147 LINE",
"731 356 LINE",
"709 356 LINE SMOOTH"
);
},
{
closed = 1;
nodes = (
"913 1147 LINE",
"969 1147 LINE SMOOTH",
"1212 1147 OFFCURVE",
"1354 1000 OFFCURVE",
"1354 760 CURVE SMOOTH",
"1354 508 OFFCURVE",
"1201 356 OFFCURVE",
"938 356 CURVE SMOOTH",
"913 356 LINE"
);
}
);
width = 1647;
}
);
note = uni2CAA;
unicode = 2CAA;
},
{
glyphname = uni2CAB;
lastChange = "2016-11-10 17:34:19 +0000";
layers = (
{
layerId = "B23D4CF3-C1D9-4344-818F-C48D5A58935E";
paths = (
{
closed = 1;
nodes = (
"829 -492 LINE",
"829 -16 LINE",
"1170 11 OFFCURVE",
"1372 222 OFFCURVE",
"1372 549 CURVE SMOOTH",
"1372 869 OFFCURVE",
"1166 1081 OFFCURVE",
"829 1114 CURVE",
"829 1556 LINE",
"659 1556 LINE",
"659 1114 LINE",
"312 1087 OFFCURVE",
"111 882 OFFCURVE",
"111 549 CURVE SMOOTH",
"111 224 OFFCURVE",
"317 12 OFFCURVE",
"653 -16 CURVE",
"653 -492 LINE"
);
},
{
closed = 1;
nodes = (
"419 156 OFFCURVE",
"299 295 OFFCURVE",
"299 549 CURVE SMOOTH",
"299 797 OFFCURVE",
"408 940 OFFCURVE",
"659 965 CURVE",
"659 131 LINE"
);
},
{
closed = 1;
nodes = (
"829 963 LINE",
"1067 937 OFFCURVE",
"1186 799 OFFCURVE",
"1186 549 CURVE SMOOTH",
"1186 296 OFFCURVE",
"1067 157 OFFCURVE",
"829 131 CURVE"
);
}
);
width = 1485;
}
);
note = uni2CAB;
unicode = 2CAB;
},
{
glyphname = uni2CAC;
lastChange = "2016-11-10 17:34:19 +0000";
layers = (
{
layerId = "B23D4CF3-C1D9-4344-818F-C48D5A58935E";
paths = (
{
closed = 1;
nodes = (
"203 0 LINE",
"596 635 LINE",
"983 0 LINE",
"1192 0 LINE",
"705 766 LINE",
"1157 1462 LINE",
"963 1462 LINE",
"602 889 LINE",
"244 1462 LINE",
"39 1462 LINE",
"494 762 LINE",
"8 0 LINE"
);
}
);
width = 1200;
}
);
note = uni2CAC;
unicode = 2CAC;
},
{
glyphname = uni2CAD;
lastChange = "2016-11-10 17:34:09 +0000";
layers = (
{
layerId = "B23D4CF3-C1D9-4344-818F-C48D5A58935E";
paths = (
{
closed = 1;
nodes = (
"240 0 LINE",
"543 438 LINE",
"842 0 LINE",
"1047 0 LINE",
"647 561 LINE",
"1026 1098 LINE",
"823 1098 LINE",
"543 684 LINE",
"260 1098 LINE",
"55 1098 LINE",
"434 561 LINE",
"37 0 LINE"
);
}
);
width = 1083;
}
);
note = uni2CAD;
unicode = 2CAD;
},
{
glyphname = uni2CAE;
lastChange = "2016-11-10 17:34:19 +0000";
layers = (
{
layerId = "B23D4CF3-C1D9-4344-818F-C48D5A58935E";
paths = (
{
closed = 1;
nodes = (
"942 0 LINE",
"942 465 LINE",
"1079 474 OFFCURVE",
"1197 508 OFFCURVE",
"1298 569 CURVE SMOOTH",
"1498 689 OFFCURVE",
"1610 900 OFFCURVE",
"1610 1145 CURVE SMOOTH",
"1610 1278 LINE",
"1421 1278 LINE",
"1421 1163 LINE SMOOTH",
"1421 838 OFFCURVE",
"1246 648 OFFCURVE",
"942 623 CURVE",
"942 1462 LINE",
"762 1462 LINE",
"762 623 LINE",
"462 635 OFFCURVE",
"283 842 OFFCURVE",
"283 1167 CURVE SMOOTH",
"283 1278 LINE",
"98 1278 LINE",
"98 1147 LINE SMOOTH",
"98 746 OFFCURVE",
"347 488 OFFCURVE",
"762 465 CURVE",
"762 0 LINE"
);
}
);
width = 1708;
}
);
note = uni2CAE;
unicode = 2CAE;
},
{
glyphname = uni2CAF;
lastChange = "2016-11-10 17:34:19 +0000";
layers = (
{
layerId = "B23D4CF3-C1D9-4344-818F-C48D5A58935E";
paths = (
{
closed = 1;
nodes = (
"801 -492 LINE",
"801 223 LINE",
"912 230 OFFCURVE",
"1008 258 OFFCURVE",
"1091 308 CURVE SMOOTH",
"1256 408 OFFCURVE",
"1354 598 OFFCURVE",
"1354 829 CURVE SMOOTH",
"1354 944 LINE",
"1174 944 LINE",
"1174 846 LINE SMOOTH",
"1174 550 OFFCURVE",
"1052 400 OFFCURVE",
"801 383 CURVE",
"801 1098 LINE",
"627 1098 LINE",
"627 383 LINE",
"379 391 OFFCURVE",
"258 555 OFFCURVE",
"258 850 CURVE SMOOTH",
"258 944 LINE",
"80 944 LINE",
"80 831 LINE SMOOTH",
"80 468 OFFCURVE",
"278 244 OFFCURVE",
"627 223 CURVE",
"627 -492 LINE"
);
}
);
width = 1434;
}
);
note = uni2CAF;
unicode = 2CAF;
},
{
glyphname = uni2CB0;
lastChange = "2016-11-10 17:34:19 +0000";
layers = (
{
layerId = "B23D4CF3-C1D9-4344-818F-C48D5A58935E";
paths = (
{
closed = 1;
nodes = (
"855 -20 OFFCURVE",
"983 83 OFFCURVE",
"1051 289 CURVE",
"1057 289 LINE",
"1109 96 OFFCURVE",
"1248 -20 OFFCURVE",
"1440 -20 CURVE SMOOTH",
"1551 -20 OFFCURVE",
"1648 10 OFFCURVE",
"1731 71 CURVE SMOOTH",
"1897 191 OFFCURVE",
"1989 426 OFFCURVE",
"1989 731 CURVE SMOOTH",
"1989 1066 OFFCURVE",
"1844 1340 OFFCURVE",
"1579 1497 CURVE",
"1444 1380 LINE",
"1668 1252 OFFCURVE",
"1794 1018 OFFCURVE",
"1794 719 CURVE SMOOTH",
"1794 602 OFFCURVE",
"1779 500 OFFCURVE",
"1749 414 CURVE SMOOTH",
"1688 241 OFFCURVE",
"1574 147 OFFCURVE",
"1438 147 CURVE SMOOTH",
"1235 147 OFFCURVE",
"1147 300 OFFCURVE",
"1147 653 CURVE SMOOTH",
"1147 1421 LINE",
"963 1421 LINE",
"963 653 LINE SMOOTH",
"963 305 OFFCURVE",
"882 147 OFFCURVE",
"674 147 CURVE SMOOTH",
"604 147 OFFCURVE",
"542 170 OFFCURVE",
"488 216 CURVE SMOOTH",
"379 307 OFFCURVE",
"317 486 OFFCURVE",
"317 719 CURVE SMOOTH",
"317 1022 OFFCURVE",
"424 1229 OFFCURVE",
"659 1370 CURVE",
"555 1493 LINE",
"268 1333 OFFCURVE",
"125 1075 OFFCURVE",
"125 719 CURVE SMOOTH",
"125 567 OFFCURVE",
"147 435 OFFCURVE",
"192 324 CURVE SMOOTH",
"281 101 OFFCURVE",
"451 -20 OFFCURVE",
"668 -20 CURVE SMOOTH"
);
}
);
width = 2114;
}
);
note = uni2CB0;
unicode = 2CB0;
},
{
glyphname = uni2CB1;
lastChange = "2016-11-10 17:34:19 +0000";
layers = (
{
layerId = "B23D4CF3-C1D9-4344-818F-C48D5A58935E";
paths = (
{
closed = 1;
nodes = (
"675 -20 OFFCURVE",
"774 48 OFFCURVE",
"827 209 CURVE",
"834 209 LINE",
"874 56 OFFCURVE",
"978 -20 OFFCURVE",
"1130 -20 CURVE SMOOTH",
"1215 -20 OFFCURVE",
"1290 4 OFFCURVE",
"1355 52 CURVE SMOOTH",
"1485 147 OFFCURVE",
"1559 335 OFFCURVE",
"1559 578 CURVE SMOOTH",
"1559 785 OFFCURVE",
"1444 1014 OFFCURVE",
"1284 1147 CURVE",
"1151 1047 LINE",
"1302 912 OFFCURVE",
"1378 748 OFFCURVE",
"1378 553 CURVE SMOOTH",
"1378 470 OFFCURVE",
"1367 398 OFFCURVE",
"1346 335 CURVE SMOOTH",
"1302 210 OFFCURVE",
"1221 139 OFFCURVE",
"1128 139 CURVE SMOOTH",
"999 139 OFFCURVE",
"922 263 OFFCURVE",
"922 459 CURVE SMOOTH",
"922 1038 LINE",
"750 1038 LINE",
"750 459 LINE SMOOTH",
"750 256 OFFCURVE",
"670 139 OFFCURVE",
"526 139 CURVE SMOOTH",
"381 139 OFFCURVE",
"293 294 OFFCURVE",
"293 547 CURVE SMOOTH",
"293 762 OFFCURVE",
"362 918 OFFCURVE",
"526 1047 CURVE",
"397 1147 LINE",
"208 1004 OFFCURVE",
"113 799 OFFCURVE",
"113 547 CURVE SMOOTH",
"113 432 OFFCURVE",
"130 331 OFFCURVE",
"164 246 CURVE SMOOTH",
"231 74 OFFCURVE",
"357 -20 OFFCURVE",
"510 -20 CURVE SMOOTH"
);
}
);
width = 1671;
}
);
note = uni2CB1;
unicode = 2CB1;
},
{
glyphname = uni2CB2;
lastChange = "2016-11-10 17:34:19 +0000";
layers = (
{
layerId = "B23D4CF3-C1D9-4344-818F-C48D5A58935E";
paths = (
{
closed = 1;
nodes = (
"1305 418 LINE",
"1305 596 LINE",
"729 596 LINE",
"729 1229 LINE",
"551 1229 LINE",
"551 596 LINE",
"20 596 LINE",
"20 418 LINE"
);
}
);
width = 1325;
}
);
note = uni2CB2;
unicode = 2CB2;
},
{
glyphname = uni2CB3;
lastChange = "2016-11-10 17:34:19 +0000";
layers = (
{
layerId = "B23D4CF3-C1D9-4344-818F-C48D5A58935E";
paths = (
{
closed = 1;
nodes = (
"1016 266 LINE",
"1016 440 LINE",
"600 440 LINE",
"600 981 LINE",
"428 981 LINE",
"428 440 LINE",
"20 440 LINE",
"20 266 LINE"
);
}
);
width = 1036;
}
);
note = uni2CB3;
unicode = 2CB3;
},
{
glyphname = uni2CB4;
lastChange = "2016-11-10 17:34:19 +0000";
layers = (
{
layerId = "B23D4CF3-C1D9-4344-818F-C48D5A58935E";
paths = (
{
closed = 1;
nodes = (
"1022 0 LINE",
"250 764 LINE",
"999 1462 LINE",
"750 1462 LINE",
"68 829 LINE",
"68 684 LINE",
"770 0 LINE"
);
},
{
closed = 1;
nodes = (
"997 639 OFFCURVE",
"1053 689 OFFCURVE",
"1053 770 CURVE SMOOTH",
"1053 853 OFFCURVE",
"999 903 OFFCURVE",
"920 903 CURVE SMOOTH",
"844 903 OFFCURVE",
"784 862 OFFCURVE",
"784 770 CURVE SMOOTH",
"784 686 OFFCURVE",
"837 639 OFFCURVE",
"920 639 CURVE SMOOTH"
);
}
);
width = 1135;
}
);
note = uni2CB4;
unicode = 2CB4;
},
{
glyphname = uni2CB5;
lastChange = "2016-11-10 17:34:19 +0000";
layers = (
{
layerId = "B23D4CF3-C1D9-4344-818F-C48D5A58935E";
paths = (
{
closed = 1;
nodes = (
"944 0 LINE",
"322 592 LINE",
"928 1098 LINE",
"662 1098 LINE",
"158 666 LINE",
"158 518 LINE",
"688 0 LINE"
);
},
{
closed = 1;
nodes = (
"976 459 OFFCURVE",
"1026 505 OFFCURVE",
"1026 582 CURVE SMOOTH",
"1026 659 OFFCURVE",
"979 705 OFFCURVE",
"903 705 CURVE SMOOTH",
"831 705 OFFCURVE",
"778 669 OFFCURVE",
"778 582 CURVE SMOOTH",
"778 498 OFFCURVE",
"831 459 OFFCURVE",
"903 459 CURVE SMOOTH"
);
}
);
width = 1171;
}
);
note = uni2CB5;
unicode = 2CB5;
},
{
glyphname = uni2CB6;
lastChange = "2016-11-10 17:34:19 +0000";
layers = (
{
layerId = "B23D4CF3-C1D9-4344-818F-C48D5A58935E";
paths = (
{
closed = 1;
nodes = (
"1231 655 LINE",
"1231 819 LINE",
"57 819 LINE",
"57 655 LINE"
);
},
{
closed = 1;
nodes = (
"1231 0 LINE",
"1231 162 LINE",
"57 162 LINE",
"57 0 LINE"
);
},
{
closed = 1;
nodes = (
"1231 1300 LINE",
"1231 1462 LINE",
"57 1462 LINE",
"57 1300 LINE"
);
}
);
width = 1290;
}
);
note = uni2CB6;
unicode = 2CB6;
},
{
glyphname = uni2CB7;
lastChange = "2016-11-10 17:34:19 +0000";
layers = (
{
layerId = "B23D4CF3-C1D9-4344-818F-C48D5A58935E";
paths = (
{
closed = 1;
nodes = (
"1051 940 LINE",
"1051 1098 LINE",
"70 1098 LINE",
"70 940 LINE"
);
},
{
closed = 1;
nodes = (
"1051 0 LINE",
"1051 158 LINE",
"70 158 LINE",
"70 0 LINE"
);
},
{
closed = 1;
nodes = (
"1051 477 LINE",
"1051 633 LINE",
"70 633 LINE",
"70 477 LINE"
);
}
);
width = 1130;
}
);
note = uni2CB7;
unicode = 2CB7;
},
{
glyphname = uni2CB8;
lastChange = "2016-11-10 17:34:19 +0000";
layers = (
{
layerId = "B23D4CF3-C1D9-4344-818F-C48D5A58935E";
paths = (
{
closed = 1;
nodes = (
"1136 -186 LINE",
"1136 63 OFFCURVE",
"1067 164 OFFCURVE",
"827 164 CURVE SMOOTH",
"309 164 LINE",
"1077 737 LINE",
"1077 877 LINE",
"150 1462 LINE",
"150 1253 LINE",
"874 801 LINE",
"78 188 LINE",
"78 0 LINE",
"782 0 LINE SMOOTH",
"926 0 OFFCURVE",
"956 -59 OFFCURVE",
"959 -186 CURVE"
);
}
);
width = 1171;
}
);
note = uni2CB8;
unicode = 2CB8;
},
{
glyphname = uni2CB9;
lastChange = "2016-11-10 17:34:19 +0000";
layers = (
{
layerId = "B23D4CF3-C1D9-4344-818F-C48D5A58935E";
paths = (
{
closed = 1;
nodes = (
"928 -186 LINE",
"925 -79 OFFCURVE",
"914 -6 OFFCURVE",
"896 32 CURVE SMOOTH",
"859 107 OFFCURVE",
"790 139 OFFCURVE",
"641 139 CURVE SMOOTH",
"297 139 LINE",
"858 532 LINE",
"858 688 LINE",
"127 1098 LINE",
"127 913 LINE",
"694 600 LINE",
"66 139 LINE",
"66 0 LINE",
"600 0 LINE SMOOTH",
"705 0 OFFCURVE",
"733 -16 OFFCURVE",
"751 -65 CURVE SMOOTH",
"760 -90 OFFCURVE",
"764 -130 OFFCURVE",
"764 -186 CURVE"
);
}
);
width = 963;
}
);
note = uni2CB9;
unicode = 2CB9;
},
{
glyphname = uni2CBA;
lastChange = "2016-11-10 17:34:19 +0000";
layers = (
{
layerId = "B23D4CF3-C1D9-4344-818F-C48D5A58935E";
paths = (
{
closed = 1;
nodes = (
"1305 1120 LINE",
"1305 1298 LINE",
"20 1298 LINE",
"20 1120 LINE"
);
}
);
width = 1325;
}
);
note = uni2CBA;
unicode = 2CBA;
},
{
glyphname = uni2CBB;
lastChange = "2016-11-10 17:34:19 +0000";
layers = (
{
layerId = "B23D4CF3-C1D9-4344-818F-C48D5A58935E";
paths = (
{
closed = 1;
nodes = (
"1016 778 LINE",
"1016 952 LINE",
"20 952 LINE",
"20 778 LINE"
);
}
);
width = 1036;
}
);
note = uni2CBB;
unicode = 2CBB;
},
{
glyphname = uni2CBC;
lastChange = "2016-11-10 17:34:19 +0000";
layers = (
{
layerId = "B23D4CF3-C1D9-4344-818F-C48D5A58935E";
paths = (
{
closed = 1;
nodes = (
"887 0 LINE",
"887 1462 LINE",
"723 1462 LINE",
"723 0 LINE"
);
},
{
closed = 1;
nodes = (
"360 0 LINE",
"360 1462 LINE",
"199 1462 LINE",
"199 0 LINE"
);
},
{
closed = 1;
nodes = (
"1415 0 LINE",
"1415 1462 LINE",
"1253 1462 LINE",
"1253 0 LINE"
);
}
);
width = 1614;
}
);
note = uni2CBC;
unicode = 2CBC;
},
{
glyphname = uni2CBD;
lastChange = "2016-11-10 17:34:19 +0000";
layers = (
{
layerId = "B23D4CF3-C1D9-4344-818F-C48D5A58935E";
paths = (
{
closed = 1;
nodes = (
"1272 0 LINE",
"1272 1098 LINE",
"1114 1098 LINE",
"1114 0 LINE"
);
},
{
closed = 1;
nodes = (
"332 0 LINE",
"332 1098 LINE",
"174 1098 LINE",
"174 0 LINE"
);
},
{
closed = 1;
nodes = (
"801 0 LINE",
"801 1098 LINE",
"645 1098 LINE",
"645 0 LINE"
);
}
);
width = 1446;
}
);
note = uni2CBD;
unicode = 2CBD;
},
{
glyphname = uni2CBE;
lastChange = "2016-11-10 17:34:19 +0000";
layers = (
{
layerId = "B23D4CF3-C1D9-4344-818F-C48D5A58935E";
paths = (
{
closed = 1;
nodes = (
"360 0 LINE",
"360 668 LINE",
"723 668 LINE",
"723 0 LINE",
"887 0 LINE",
"887 668 LINE",
"1253 668 LINE",
"1253 0 LINE",
"1415 0 LINE",
"1415 668 LINE",
"1651 668 LINE",
"1651 815 LINE",
"1415 815 LINE",
"1415 1462 LINE",
"1253 1462 LINE",
"1253 815 LINE",
"887 815 LINE",
"887 1462 LINE",
"723 1462 LINE",
"723 815 LINE",
"360 815 LINE",
"360 1462 LINE",
"199 1462 LINE",
"199 0 LINE"
);
}
);
width = 1671;
}
);
note = uni2CBE;
unicode = 2CBE;
},
{
glyphname = uni2CBF;
lastChange = "2016-11-10 17:34:19 +0000";
layers = (
{
layerId = "B23D4CF3-C1D9-4344-818F-C48D5A58935E";
paths = (
{
closed = 1;
nodes = (
"332 0 LINE",
"332 489 LINE",
"645 489 LINE",
"645 0 LINE",
"801 0 LINE",
"801 489 LINE",
"1114 489 LINE",
"1114 0 LINE",
"1272 0 LINE",
"1272 489 LINE",
"1501 489 LINE",
"1501 637 LINE",
"1272 637 LINE",
"1272 1098 LINE",
"1114 1098 LINE",
"1114 637 LINE",
"801 637 LINE",
"801 1098 LINE",
"645 1098 LINE",
"645 637 LINE",
"332 637 LINE",
"332 1098 LINE",
"174 1098 LINE",
"174 0 LINE"
);
}
);
width = 1526;
}
);
note = uni2CBF;
unicode = 2CBF;
},
{
glyphname = uni2CC0;
lastChange = "2016-11-10 17:34:19 +0000";
layers = (
{
layerId = "B23D4CF3-C1D9-4344-818F-C48D5A58935E";
paths = (
{
closed = 1;
nodes = (
"473 -334 LINE",
"473 133 LINE",
"1051 133 LINE",
"1051 293 LINE",
"473 293 LINE",
"473 569 LINE",
"641 569 LINE SMOOTH",
"1012 569 OFFCURVE",
"1225 733 OFFCURVE",
"1225 1032 CURVE SMOOTH",
"1225 1319 OFFCURVE",
"1042 1462 OFFCURVE",
"676 1462 CURVE SMOOTH",
"289 1462 LINE",
"289 293 LINE",
"4 293 LINE",
"4 133 LINE",
"289 133 LINE",
"289 -334 LINE"
);
},
{
closed = 1;
nodes = (
"473 1305 LINE",
"659 1305 LINE SMOOTH",
"918 1305 OFFCURVE",
"1034 1212 OFFCURVE",
"1034 1024 CURVE SMOOTH",
"1034 817 OFFCURVE",
"912 727 OFFCURVE",
"621 727 CURVE SMOOTH",
"473 727 LINE"
);
}
);
width = 1329;
}
);
note = uni2CC0;
unicode = 2CC0;
},
{
glyphname = uni2CC1;
lastChange = "2016-11-10 17:34:19 +0000";
layers = (
{
layerId = "B23D4CF3-C1D9-4344-818F-C48D5A58935E";
paths = (
{
closed = 1;
nodes = (
"375 -492 LINE",
"375 -115 LINE",
"741 -115 LINE",
"741 31 LINE",
"375 31 LINE",
"375 252 LINE",
"532 252 LINE SMOOTH",
"836 252 OFFCURVE",
"1020 414 OFFCURVE",
"1020 686 CURVE SMOOTH",
"1020 943 OFFCURVE",
"853 1098 OFFCURVE",
"565 1098 CURVE SMOOTH",
"193 1098 LINE",
"193 31 LINE",
"-4 31 LINE",
"-4 -115 LINE",
"193 -115 LINE",
"193 -492 LINE"
);
},
{
closed = 1;
nodes = (
"375 952 LINE",
"539 952 LINE SMOOTH",
"728 952 OFFCURVE",
"834 855 OFFCURVE",
"834 680 CURVE SMOOTH",
"834 493 OFFCURVE",
"725 397 OFFCURVE",
"522 397 CURVE SMOOTH",
"375 397 LINE"
);
}
);
width = 1102;
}
);
note = uni2CC1;
unicode = 2CC1;
},
{
glyphname = uni2CC2;
lastChange = "2016-11-10 17:34:19 +0000";
layers = (
{
layerId = "B23D4CF3-C1D9-4344-818F-C48D5A58935E";
paths = (
{
closed = 1;
nodes = (
"1336 -399 OFFCURVE",
"1484 -354 OFFCURVE",
"1608 -263 CURVE SMOOTH",
"1856 -82 OFFCURVE",
"1989 268 OFFCURVE",
"1989 731 CURVE SMOOTH",
"1989 1066 OFFCURVE",
"1844 1340 OFFCURVE",
"1579 1497 CURVE",
"1444 1380 LINE",
"1668 1252 OFFCURVE",
"1794 1018 OFFCURVE",
"1794 719 CURVE SMOOTH",
"1794 598 OFFCURVE",
"1780 494 OFFCURVE",
"1751 409 CURVE SMOOTH",
"1693 237 OFFCURVE",
"1583 147 OFFCURVE",
"1438 147 CURVE SMOOTH",
"1235 147 OFFCURVE",
"1147 300 OFFCURVE",
"1147 653 CURVE SMOOTH",
"1147 1421 LINE",
"963 1421 LINE",
"963 653 LINE SMOOTH",
"963 305 OFFCURVE",
"882 147 OFFCURVE",
"674 147 CURVE SMOOTH",
"604 147 OFFCURVE",
"542 170 OFFCURVE",
"488 216 CURVE SMOOTH",
"379 307 OFFCURVE",
"317 486 OFFCURVE",
"317 719 CURVE SMOOTH",
"317 1022 OFFCURVE",
"424 1229 OFFCURVE",
"659 1370 CURVE",
"555 1493 LINE",
"268 1333 OFFCURVE",
"125 1075 OFFCURVE",
"125 719 CURVE SMOOTH",
"125 567 OFFCURVE",
"147 435 OFFCURVE",
"192 324 CURVE SMOOTH",
"281 101 OFFCURVE",
"451 -20 OFFCURVE",
"668 -20 CURVE SMOOTH",
"855 -20 OFFCURVE",
"983 83 OFFCURVE",
"1051 289 CURVE",
"1057 289 LINE",
"1110 82 OFFCURVE",
"1230 -20 OFFCURVE",
"1399 -20 CURVE SMOOTH",
"1524 -20 OFFCURVE",
"1613 17 OFFCURVE",
"1706 121 CURVE",
"1712 115 LINE",
"1593 -124 OFFCURVE",
"1412 -236 OFFCURVE",
"1163 -236 CURVE SMOOTH",
"1088 -236 OFFCURVE",
"1022 -227 OFFCURVE",
"965 -209 CURVE",
"965 -373 LINE",
"1016 -390 OFFCURVE",
"1082 -399 OFFCURVE",
"1165 -399 CURVE SMOOTH"
);
},
{
closed = 1;
nodes = (
"807 1935 OFFCURVE",
"852 1967 OFFCURVE",
"852 2038 CURVE SMOOTH",
"852 2099 OFFCURVE",
"817 2138 OFFCURVE",
"756 2138 CURVE SMOOTH",
"701 2138 OFFCURVE",
"659 2109 OFFCURVE",
"659 2038 CURVE SMOOTH",
"659 1967 OFFCURVE",
"701 1935 OFFCURVE",
"756 1935 CURVE SMOOTH"
);
},
{
closed = 1;
nodes = (
"1124 1569 LINE",
"1124 1712 LINE",
"1458 1712 LINE",
"1458 1849 LINE",
"1124 1849 LINE",
"1124 2130 LINE",
"979 2130 LINE",
"979 1849 LINE",
"645 1849 LINE",
"645 1712 LINE",
"979 1712 LINE",
"979 1569 LINE"
);
},
{
closed = 1;
nodes = (
"1395 1935 OFFCURVE",
"1440 1967 OFFCURVE",
"1440 2038 CURVE SMOOTH",
"1440 2109 OFFCURVE",
"1395 2138 OFFCURVE",
"1343 2138 CURVE SMOOTH",
"1292 2138 OFFCURVE",
"1249 2109 OFFCURVE",
"1249 2038 CURVE SMOOTH",
"1249 1967 OFFCURVE",
"1292 1935 OFFCURVE",
"1343 1935 CURVE SMOOTH"
);
}
);
width = 2114;
}
);
note = uni2CC2;
unicode = 2CC2;
},
{
glyphname = uni2CC3;
lastChange = "2016-11-10 17:34:19 +0000";
layers = (
{
layerId = "B23D4CF3-C1D9-4344-818F-C48D5A58935E";
paths = (
{
closed = 1;
nodes = (
"1039 -389 OFFCURVE",
"1151 -349 OFFCURVE",
"1252 -270 CURVE SMOOTH",
"1452 -112 OFFCURVE",
"1559 177 OFFCURVE",
"1559 545 CURVE SMOOTH",
"1559 794 OFFCURVE",
"1467 994 OFFCURVE",
"1284 1147 CURVE",
"1151 1047 LINE",
"1302 912 OFFCURVE",
"1378 748 OFFCURVE",
"1378 553 CURVE SMOOTH",
"1378 468 OFFCURVE",
"1367 395 OFFCURVE",
"1346 333 CURVE SMOOTH",
"1302 208 OFFCURVE",
"1221 139 OFFCURVE",
"1128 139 CURVE SMOOTH",
"999 139 OFFCURVE",
"922 254 OFFCURVE",
"922 457 CURVE SMOOTH",
"922 1098 LINE",
"750 1098 LINE",
"750 457 LINE SMOOTH",
"750 260 OFFCURVE",
"669 139 OFFCURVE",
"526 139 CURVE SMOOTH",
"381 139 OFFCURVE",
"293 294 OFFCURVE",
"293 547 CURVE SMOOTH",
"293 762 OFFCURVE",
"362 918 OFFCURVE",
"526 1047 CURVE",
"397 1147 LINE",
"208 1004 OFFCURVE",
"113 799 OFFCURVE",
"113 547 CURVE SMOOTH",
"113 432 OFFCURVE",
"130 331 OFFCURVE",
"164 246 CURVE SMOOTH",
"231 74 OFFCURVE",
"357 -20 OFFCURVE",
"510 -20 CURVE SMOOTH",
"677 -20 OFFCURVE",
"784 69 OFFCURVE",
"831 213 CURVE",
"838 213 LINE",
"880 58 OFFCURVE",
"967 -20 OFFCURVE",
"1098 -20 CURVE SMOOTH",
"1198 -20 OFFCURVE",
"1269 23 OFFCURVE",
"1333 100 CURVE",
"1339 96 LINE",
"1238 -132 OFFCURVE",
"1112 -223 OFFCURVE",
"913 -223 CURVE SMOOTH",
"853 -223 OFFCURVE",
"803 -217 OFFCURVE",
"764 -205 CURVE",
"764 -369 LINE",
"806 -382 OFFCURVE",
"856 -389 OFFCURVE",
"915 -389 CURVE SMOOTH"
);
},
{
closed = 1;
nodes = (
"590 1595 OFFCURVE",
"635 1627 OFFCURVE",
"635 1698 CURVE SMOOTH",
"635 1759 OFFCURVE",
"600 1798 OFFCURVE",
"539 1798 CURVE SMOOTH",
"484 1798 OFFCURVE",
"442 1769 OFFCURVE",
"442 1698 CURVE SMOOTH",
"442 1627 OFFCURVE",
"484 1595 OFFCURVE",
"539 1595 CURVE SMOOTH"
);
},
{
closed = 1;
nodes = (
"907 1229 LINE",
"907 1372 LINE",
"1241 1372 LINE",
"1241 1509 LINE",
"907 1509 LINE",
"907 1790 LINE",
"762 1790 LINE",
"762 1509 LINE",
"428 1509 LINE",
"428 1372 LINE",
"762 1372 LINE",
"762 1229 LINE"
);
},
{
closed = 1;
nodes = (
"1178 1595 OFFCURVE",
"1223 1627 OFFCURVE",
"1223 1698 CURVE SMOOTH",
"1223 1769 OFFCURVE",
"1178 1798 OFFCURVE",
"1126 1798 CURVE SMOOTH",
"1075 1798 OFFCURVE",
"1032 1769 OFFCURVE",
"1032 1698 CURVE SMOOTH",
"1032 1627 OFFCURVE",
"1075 1595 OFFCURVE",
"1126 1595 CURVE SMOOTH"
);
}
);
width = 1671;
}
);
note = uni2CC3;
unicode = 2CC3;
},
{
glyphname = uni2CC4;
lastChange = "2016-11-10 17:34:19 +0000";
layers = (
{
layerId = "B23D4CF3-C1D9-4344-818F-C48D5A58935E";
paths = (
{
closed = 1;
nodes = (
"866 -20 OFFCURVE",
"1083 154 OFFCURVE",
"1083 453 CURVE SMOOTH",
"1083 540 OFFCURVE",
"1062 617 OFFCURVE",
"1021 684 CURVE SMOOTH",
"938 816 OFFCURVE",
"781 896 OFFCURVE",
"596 901 CURVE",
"1022 1317 LINE",
"1022 1462 LINE",
"113 1462 LINE",
"113 1298 LINE",
"791 1298 LINE",
"369 885 LINE",
"369 752 LINE",
"496 752 LINE SMOOTH",
"753 752 OFFCURVE",
"891 644 OFFCURVE",
"891 455 CURVE SMOOTH",
"891 247 OFFCURVE",
"761 131 OFFCURVE",
"496 131 CURVE SMOOTH",
"365 131 OFFCURVE",
"205 163 OFFCURVE",
"72 227 CURVE",
"72 59 LINE",
"181 6 OFFCURVE",
"321 -20 OFFCURVE",
"494 -20 CURVE SMOOTH"
);
}
);
width = 1196;
}
);
note = uni2CC4;
unicode = 2CC4;
},
{
glyphname = uni2CC5;
lastChange = "2016-11-10 17:34:19 +0000";
layers = (
{
layerId = "B23D4CF3-C1D9-4344-818F-C48D5A58935E";
paths = (
{
closed = 1;
nodes = (
"726 -389 OFFCURVE",
"950 -197 OFFCURVE",
"950 88 CURVE SMOOTH",
"950 361 OFFCURVE",
"770 523 OFFCURVE",
"446 528 CURVE",
"895 967 LINE",
"895 1098 LINE",
"57 1098 LINE",
"57 946 LINE",
"684 946 LINE",
"236 510 LINE",
"236 385 LINE",
"336 385 LINE SMOOTH",
"625 385 OFFCURVE",
"770 285 OFFCURVE",
"770 84 CURVE SMOOTH",
"770 -113 OFFCURVE",
"626 -240 OFFCURVE",
"399 -240 CURVE SMOOTH",
"277 -240 OFFCURVE",
"154 -213 OFFCURVE",
"29 -158 CURVE",
"29 -322 LINE",
"132 -367 OFFCURVE",
"253 -389 OFFCURVE",
"391 -389 CURVE SMOOTH"
);
}
);
width = 1020;
}
);
note = uni2CC5;
unicode = 2CC5;
},
{
glyphname = uni2CC6;
lastChange = "2016-11-10 17:34:19 +0000";
layers = (
{
layerId = "B23D4CF3-C1D9-4344-818F-C48D5A58935E";
paths = (
{
closed = 1;
nodes = (
"205 0 LINE",
"872 1462 LINE",
"696 1462 LINE",
"29 0 LINE"
);
}
);
width = 903;
}
);
note = uni2CC6;
unicode = 2CC6;
},
{
glyphname = uni2CC7;
lastChange = "2016-11-10 17:34:19 +0000";
layers = (
{
layerId = "B23D4CF3-C1D9-4344-818F-C48D5A58935E";
paths = (
{
closed = 1;
nodes = (
"197 0 LINE",
"758 1098 LINE",
"582 1098 LINE",
"20 0 LINE"
);
}
);
width = 778;
}
);
note = uni2CC7;
unicode = 2CC7;
},
{
glyphname = uni2CC8;
lastChange = "2016-11-10 17:34:19 +0000";
layers = (
{
layerId = "B23D4CF3-C1D9-4344-818F-C48D5A58935E";
paths = (
{
closed = 1;
nodes = (
"866 -203 OFFCURVE",
"982 -188 OFFCURVE",
"1047 -168 CURVE",
"1047 4 LINE",
"982 -17 OFFCURVE",
"902 -27 OFFCURVE",
"805 -27 CURVE SMOOTH",
"532 -27 OFFCURVE",
"371 59 OFFCURVE",
"322 252 CURVE",
"604 324 OFFCURVE",
"807 433 OFFCURVE",
"930 578 CURVE",
"1110 578 LINE",
"1110 705 LINE",
"1016 705 LINE",
"1062 798 OFFCURVE",
"1085 902 OFFCURVE",
"1085 1016 CURVE SMOOTH",
"1085 1108 OFFCURVE",
"1065 1190 OFFCURVE",
"1025 1261 CURVE SMOOTH",
"945 1403 OFFCURVE",
"791 1483 OFFCURVE",
"584 1483 CURVE SMOOTH",
"485 1483 OFFCURVE",
"398 1466 OFFCURVE",
"321 1431 CURVE SMOOTH",
"168 1361 OFFCURVE",
"80 1228 OFFCURVE",
"80 1059 CURVE SMOOTH",
"80 988 OFFCURVE",
"102 902 OFFCURVE",
"141 838 CURVE",
"311 903 LINE",
"288 943 OFFCURVE",
"270 1006 OFFCURVE",
"270 1053 CURVE SMOOTH",
"270 1220 OFFCURVE",
"383 1321 OFFCURVE",
"571 1321 CURVE SMOOTH",
"767 1321 OFFCURVE",
"889 1196 OFFCURVE",
"889 983 CURVE SMOOTH",
"889 875 OFFCURVE",
"862 782 OFFCURVE",
"807 705 CURVE",
"430 705 LINE",
"430 578 LINE",
"682 578 LINE",
"555 483 OFFCURVE",
"361 408 OFFCURVE",
"100 354 CURVE",
"157 -10 OFFCURVE",
"400 -203 OFFCURVE",
"801 -203 CURVE SMOOTH"
);
}
);
width = 1124;
}
);
note = uni2CC8;
unicode = 2CC8;
},
{
glyphname = uni2CC9;
lastChange = "2016-11-10 17:34:19 +0000";
layers = (
{
layerId = "B23D4CF3-C1D9-4344-818F-C48D5A58935E";
paths = (
{
closed = 1;
nodes = (
"796 -274 OFFCURVE",
"912 -254 OFFCURVE",
"987 -225 CURVE",
"987 -72 LINE",
"923 -104 OFFCURVE",
"806 -125 OFFCURVE",
"725 -125 CURVE SMOOTH",
"480 -125 OFFCURVE",
"336 -40 OFFCURVE",
"293 131 CURVE",
"572 195 OFFCURVE",
"737 279 OFFCURVE",
"844 395 CURVE",
"997 395 LINE",
"997 510 LINE",
"922 510 LINE",
"953 575 OFFCURVE",
"969 649 OFFCURVE",
"969 731 CURVE SMOOTH",
"969 974 OFFCURVE",
"816 1118 OFFCURVE",
"563 1118 CURVE SMOOTH",
"474 1118 OFFCURVE",
"398 1102 OFFCURVE",
"333 1071 CURVE SMOOTH",
"203 1008 OFFCURVE",
"129 893 OFFCURVE",
"129 758 CURVE SMOOTH",
"129 693 OFFCURVE",
"147 630 OFFCURVE",
"184 571 CURVE",
"344 633 LINE",
"319 674 OFFCURVE",
"307 715 OFFCURVE",
"307 754 CURVE SMOOTH",
"307 894 OFFCURVE",
"396 971 OFFCURVE",
"551 971 CURVE SMOOTH",
"702 971 OFFCURVE",
"786 877 OFFCURVE",
"786 725 CURVE SMOOTH",
"786 640 OFFCURVE",
"766 569 OFFCURVE",
"725 510 CURVE",
"358 510 LINE",
"358 395 LINE",
"600 395 LINE",
"492 329 OFFCURVE",
"326 274 OFFCURVE",
"102 231 CURVE",
"158 -116 OFFCURVE",
"349 -274 OFFCURVE",
"700 -274 CURVE SMOOTH"
);
}
);
width = 1075;
}
);
note = uni2CC9;
unicode = 2CC9;
},
{
glyphname = uni2CCA;
lastChange = "2016-11-10 17:34:19 +0000";
layers = (
{
layerId = "B23D4CF3-C1D9-4344-818F-C48D5A58935E";
paths = (
{
closed = 1;
nodes = (
"382 -20 OFFCURVE",
"539 17 OFFCURVE",
"676 90 CURVE SMOOTH",
"948 237 OFFCURVE",
"1090 510 OFFCURVE",
"1090 866 CURVE SMOOTH",
"1090 1257 OFFCURVE",
"905 1483 OFFCURVE",
"578 1483 CURVE SMOOTH",
"285 1483 OFFCURVE",
"92 1308 OFFCURVE",
"92 1040 CURVE SMOOTH",
"92 781 OFFCURVE",
"276 614 OFFCURVE",
"575 578 CURVE",
"614 733 LINE",
"385 770 OFFCURVE",
"279 868 OFFCURVE",
"279 1047 CURVE SMOOTH",
"279 1219 OFFCURVE",
"391 1327 OFFCURVE",
"578 1327 CURVE SMOOTH",
"786 1327 OFFCURVE",
"899 1153 OFFCURVE",
"899 844 CURVE SMOOTH",
"899 388 OFFCURVE",
"642 147 OFFCURVE",
"203 147 CURVE",
"203 -20 LINE"
);
}
);
width = 1171;
}
);
note = uni2CCA;
unicode = 2CCA;
},
{
glyphname = uni2CCB;
lastChange = "2016-11-10 17:34:19 +0000";
layers = (
{
layerId = "B23D4CF3-C1D9-4344-818F-C48D5A58935E";
paths = (
{
closed = 1;
nodes = (
"374 -489 OFFCURVE",
"523 -447 OFFCURVE",
"659 -363 CURVE SMOOTH",
"931 -195 OFFCURVE",
"1090 114 OFFCURVE",
"1090 487 CURVE SMOOTH",
"1090 890 OFFCURVE",
"908 1118 OFFCURVE",
"588 1118 CURVE SMOOTH",
"494 1118 OFFCURVE",
"410 1097 OFFCURVE",
"336 1055 CURVE SMOOTH",
"187 971 OFFCURVE",
"104 818 OFFCURVE",
"104 639 CURVE SMOOTH",
"104 386 OFFCURVE",
"250 227 OFFCURVE",
"567 150 CURVE",
"631 305 LINE",
"391 369 OFFCURVE",
"291 475 OFFCURVE",
"291 655 CURVE SMOOTH",
"291 843 OFFCURVE",
"406 967 OFFCURVE",
"582 967 CURVE SMOOTH",
"785 967 OFFCURVE",
"899 796 OFFCURVE",
"899 479 CURVE SMOOTH",
"899 320 OFFCURVE",
"870 180 OFFCURVE",
"812 58 CURVE SMOOTH",
"695 -186 OFFCURVE",
"474 -326 OFFCURVE",
"213 -326 CURVE",
"213 -489 LINE"
);
}
);
width = 1171;
}
);
note = uni2CCB;
unicode = 2CCB;
},
{
glyphname = uni2CCC;
lastChange = "2016-11-10 17:34:19 +0000";
layers = (
{
layerId = "B23D4CF3-C1D9-4344-818F-C48D5A58935E";
paths = (
{
closed = 1;
nodes = (
"877 -20 OFFCURVE",
"1094 141 OFFCURVE",
"1094 414 CURVE SMOOTH",
"1094 607 OFFCURVE",
"965 731 OFFCURVE",
"717 764 CURVE",
"717 772 LINE",
"936 805 OFFCURVE",
"1063 931 OFFCURVE",
"1063 1120 CURVE SMOOTH",
"1063 1343 OFFCURVE",
"880 1483 OFFCURVE",
"580 1483 CURVE SMOOTH",
"390 1483 OFFCURVE",
"225 1432 OFFCURVE",
"84 1331 CURVE",
"172 1206 LINE",
"317 1301 OFFCURVE",
"426 1331 OFFCURVE",
"578 1331 CURVE SMOOTH",
"758 1331 OFFCURVE",
"872 1243 OFFCURVE",
"872 1102 CURVE SMOOTH",
"872 938 OFFCURVE",
"729 834 OFFCURVE",
"440 834 CURVE SMOOTH",
"242 834 LINE",
"242 680 LINE",
"451 680 LINE SMOOTH",
"750 680 OFFCURVE",
"901 589 OFFCURVE",
"901 414 CURVE SMOOTH",
"901 231 OFFCURVE",
"766 131 OFFCURVE",
"502 131 CURVE SMOOTH",
"371 131 OFFCURVE",
"210 164 OFFCURVE",
"78 227 CURVE",
"78 59 LINE",
"187 6 OFFCURVE",
"329 -20 OFFCURVE",
"504 -20 CURVE SMOOTH"
);
}
);
width = 1204;
}
);
note = uni2CCC;
unicode = 2CCC;
},
{
glyphname = uni2CCD;
lastChange = "2016-11-10 17:34:19 +0000";
layers = (
{
layerId = "B23D4CF3-C1D9-4344-818F-C48D5A58935E";
paths = (
{
closed = 1;
nodes = (
"751 -389 OFFCURVE",
"954 -216 OFFCURVE",
"954 59 CURVE SMOOTH",
"954 259 OFFCURVE",
"828 381 OFFCURVE",
"604 412 CURVE",
"604 420 LINE",
"793 453 OFFCURVE",
"901 574 OFFCURVE",
"901 754 CURVE SMOOTH",
"901 986 OFFCURVE",
"746 1118 OFFCURVE",
"485 1118 CURVE SMOOTH",
"331 1118 OFFCURVE",
"195 1068 OFFCURVE",
"76 969 CURVE",
"156 846 LINE",
"284 941 OFFCURVE",
"374 967 OFFCURVE",
"487 967 CURVE SMOOTH",
"642 967 OFFCURVE",
"727 882 OFFCURVE",
"727 741 CURVE SMOOTH",
"727 569 OFFCURVE",
"600 481 OFFCURVE",
"360 481 CURVE SMOOTH",
"266 481 LINE",
"266 328 LINE",
"358 328 LINE SMOOTH",
"643 328 OFFCURVE",
"772 241 OFFCURVE",
"772 57 CURVE SMOOTH",
"772 -134 OFFCURVE",
"647 -240 OFFCURVE",
"414 -240 CURVE SMOOTH",
"301 -240 OFFCURVE",
"182 -213 OFFCURVE",
"57 -158 CURVE",
"57 -322 LINE",
"160 -367 OFFCURVE",
"279 -389 OFFCURVE",
"412 -389 CURVE SMOOTH"
);
}
);
width = 1044;
}
);
note = uni2CCD;
unicode = 2CCD;
},
{
glyphname = uni2CCE;
lastChange = "2016-11-10 17:34:19 +0000";
layers = (
{
layerId = "B23D4CF3-C1D9-4344-818F-C48D5A58935E";
paths = (
{
closed = 1;
nodes = (
"195 -334 LINE",
"567 1305 LINE",
"627 1305 LINE SMOOTH",
"884 1305 OFFCURVE",
"1001 1212 OFFCURVE",
"1001 1024 CURVE SMOOTH",
"1001 817 OFFCURVE",
"879 727 OFFCURVE",
"588 727 CURVE SMOOTH",
"526 727 LINE",
"526 569 LINE",
"608 569 LINE SMOOTH",
"981 569 OFFCURVE",
"1192 735 OFFCURVE",
"1192 1032 CURVE SMOOTH",
"1192 1319 OFFCURVE",
"1009 1462 OFFCURVE",
"643 1462 CURVE SMOOTH",
"420 1462 LINE",
"14 -334 LINE"
);
}
);
width = 1264;
}
);
note = uni2CCE;
unicode = 2CCE;
},
{
glyphname = uni2CCF;
lastChange = "2016-11-10 17:34:19 +0000";
layers = (
{
layerId = "B23D4CF3-C1D9-4344-818F-C48D5A58935E";
paths = (
{
closed = 1;
nodes = (
"131 -489 LINE",
"465 950 LINE",
"535 950 LINE SMOOTH",
"755 950 OFFCURVE",
"870 865 OFFCURVE",
"870 676 CURVE SMOOTH",
"870 483 OFFCURVE",
"758 393 OFFCURVE",
"494 393 CURVE SMOOTH",
"440 393 LINE",
"440 250 LINE",
"512 250 LINE SMOOTH",
"860 250 OFFCURVE",
"1055 405 OFFCURVE",
"1055 686 CURVE SMOOTH",
"1055 962 OFFCURVE",
"885 1100 OFFCURVE",
"545 1100 CURVE SMOOTH",
"317 1100 LINE",
"-47 -489 LINE"
);
}
);
width = 1126;
}
);
note = uni2CCF;
unicode = 2CCF;
},
{
glyphname = uni2CD0;
lastChange = "2016-11-10 17:34:19 +0000";
layers = (
{
layerId = "B23D4CF3-C1D9-4344-818F-C48D5A58935E";
paths = (
{
closed = 1;
nodes = (
"1022 0 LINE",
"1022 164 LINE",
"383 164 LINE",
"383 1462 LINE",
"199 1462 LINE",
"199 0 LINE"
);
}
);
width = 1073;
}
);
note = uni2CD0;
unicode = 2CD0;
},
{
glyphname = uni2CD1;
lastChange = "2016-11-10 17:34:09 +0000";
layers = (
{
layerId = "B23D4CF3-C1D9-4344-818F-C48D5A58935E";
paths = (
{
closed = 1;
nodes = (
"854 0 LINE",
"854 150 LINE",
"354 150 LINE",
"354 1098 LINE",
"174 1098 LINE",
"174 0 LINE"
);
}
);
width = 891;
}
);
note = uni2CD1;
unicode = 2CD1;
},
{
glyphname = uni2CD2;
lastChange = "2016-11-10 17:34:19 +0000";
layers = (
{
layerId = "B23D4CF3-C1D9-4344-818F-C48D5A58935E";
paths = (
{
closed = 1;
nodes = (
"883 -20 OFFCURVE",
"1079 150 OFFCURVE",
"1079 422 CURVE SMOOTH",
"1079 677 OFFCURVE",
"897 846 OFFCURVE",
"596 885 CURVE",
"553 729 LINE",
"784 692 OFFCURVE",
"893 595 OFFCURVE",
"893 416 CURVE SMOOTH",
"893 243 OFFCURVE",
"781 135 OFFCURVE",
"594 135 CURVE SMOOTH",
"385 135 OFFCURVE",
"272 309 OFFCURVE",
"272 618 CURVE SMOOTH",
"272 1073 OFFCURVE",
"526 1315 OFFCURVE",
"969 1315 CURVE",
"969 1483 LINE",
"791 1483 OFFCURVE",
"634 1447 OFFCURVE",
"497 1374 CURVE SMOOTH",
"224 1228 OFFCURVE",
"82 955 OFFCURVE",
"82 596 CURVE SMOOTH",
"82 462 OFFCURVE",
"102 349 OFFCURVE",
"143 258 CURVE SMOOTH",
"224 75 OFFCURVE",
"381 -20 OFFCURVE",
"594 -20 CURVE SMOOTH"
);
}
);
width = 1171;
}
);
note = uni2CD2;
unicode = 2CD2;
},
{
glyphname = uni2CD3;
lastChange = "2016-11-10 17:34:19 +0000";
layers = (
{
layerId = "B23D4CF3-C1D9-4344-818F-C48D5A58935E";
paths = (
{
closed = 1;
nodes = (
"701 -20 OFFCURVE",
"785 0 OFFCURVE",
"859 41 CURVE SMOOTH",
"1006 121 OFFCURVE",
"1090 271 OFFCURVE",
"1090 446 CURVE SMOOTH",
"1090 525 OFFCURVE",
"1075 595 OFFCURVE",
"1044 654 CURVE SMOOTH",
"983 773 OFFCURVE",
"861 850 OFFCURVE",
"621 907 CURVE",
"565 758 LINE",
"656 733 OFFCURVE",
"725 706 OFFCURVE",
"771 679 CURVE SMOOTH",
"863 623 OFFCURVE",
"909 546 OFFCURVE",
"909 434 CURVE SMOOTH",
"909 251 OFFCURVE",
"792 131 OFFCURVE",
"612 131 CURVE SMOOTH",
"396 131 OFFCURVE",
"293 286 OFFCURVE",
"293 586 CURVE SMOOTH",
"293 741 OFFCURVE",
"322 877 OFFCURVE",
"379 992 CURVE SMOOTH",
"494 1222 OFFCURVE",
"709 1346 OFFCURVE",
"981 1346 CURVE",
"981 1511 LINE",
"815 1511 OFFCURVE",
"664 1472 OFFCURVE",
"529 1393 CURVE SMOOTH",
"257 1235 OFFCURVE",
"106 941 OFFCURVE",
"106 578 CURVE SMOOTH",
"106 187 OFFCURVE",
"274 -20 OFFCURVE",
"606 -20 CURVE SMOOTH"
);
}
);
width = 1171;
}
);
note = uni2CD3;
unicode = 2CD3;
},
{
glyphname = uni2CD4;
lastChange = "2016-11-10 17:34:19 +0000";
layers = (
{
layerId = "B23D4CF3-C1D9-4344-818F-C48D5A58935E";
paths = (
{
closed = 1;
nodes = (
"489 -334 LINE",
"489 1137 LINE",
"219 1137 LINE",
"246 1261 OFFCURVE",
"349 1329 OFFCURVE",
"508 1329 CURVE SMOOTH",
"558 1329 OFFCURVE",
"599 1325 OFFCURVE",
"631 1317 CURVE",
"631 1466 LINE",
"599 1473 OFFCURVE",
"557 1477 OFFCURVE",
"504 1477 CURVE SMOOTH",
"224 1477 OFFCURVE",
"40 1300 OFFCURVE",
"23 997 CURVE",
"305 997 LINE",
"305 -334 LINE"
);
}
);
width = 731;
}
);
note = uni2CD4;
unicode = 2CD4;
},
{
glyphname = uni2CD5;
lastChange = "2016-11-10 17:34:19 +0000";
layers = (
{
layerId = "B23D4CF3-C1D9-4344-818F-C48D5A58935E";
paths = (
{
closed = 1;
nodes = (
"494 -492 LINE",
"494 799 LINE",
"240 799 LINE",
"269 908 OFFCURVE",
"349 963 OFFCURVE",
"481 963 CURVE SMOOTH",
"528 963 OFFCURVE",
"567 959 OFFCURVE",
"596 952 CURVE",
"596 1100 LINE",
"562 1105 OFFCURVE",
"522 1108 OFFCURVE",
"477 1108 CURVE SMOOTH",
"226 1108 OFFCURVE",
"60 944 OFFCURVE",
"39 659 CURVE",
"313 659 LINE",
"313 -492 LINE"
);
}
);
width = 756;
}
);
note = uni2CD5;
unicode = 2CD5;
},
{
glyphname = uni2CD6;
lastChange = "2016-11-10 17:34:19 +0000";
layers = (
{
layerId = "B23D4CF3-C1D9-4344-818F-C48D5A58935E";
paths = (
{
closed = 1;
nodes = (
"430 -342 OFFCURVE",
"537 -221 OFFCURVE",
"537 0 CURVE",
"1176 0 LINE",
"1176 164 LINE",
"537 164 LINE",
"537 1462 LINE",
"352 1462 LINE",
"352 164 LINE",
"322 164 LINE SMOOTH",
"105 164 OFFCURVE",
"-12 64 OFFCURVE",
"-12 -100 CURVE SMOOTH",
"-12 -249 OFFCURVE",
"80 -342 OFFCURVE",
"231 -342 CURVE SMOOTH"
);
},
{
closed = 1;
nodes = (
"201 -184 OFFCURVE",
"164 -157 OFFCURVE",
"164 -102 CURVE SMOOTH",
"164 -30 OFFCURVE",
"212 0 OFFCURVE",
"315 0 CURVE SMOOTH",
"352 0 LINE",
"352 -29 LINE SMOOTH",
"352 -132 OFFCURVE",
"319 -184 OFFCURVE",
"246 -184 CURVE SMOOTH"
);
}
);
width = 1227;
}
);
note = uni2CD6;
unicode = 2CD6;
},
{
glyphname = uni2CD7;
lastChange = "2016-11-10 17:34:19 +0000";
layers = (
{
layerId = "B23D4CF3-C1D9-4344-818F-C48D5A58935E";
paths = (
{
closed = 1;
nodes = (
"420 -332 OFFCURVE",
"526 -215 OFFCURVE",
"526 0 CURVE",
"1016 0 LINE",
"1016 152 LINE",
"526 152 LINE",
"526 1098 LINE",
"346 1098 LINE",
"346 152 LINE",
"332 152 LINE SMOOTH",
"113 152 OFFCURVE",
"-12 60 OFFCURVE",
"-12 -100 CURVE SMOOTH",
"-12 -247 OFFCURVE",
"74 -332 OFFCURVE",
"225 -332 CURVE SMOOTH"
);
},
{
closed = 1;
nodes = (
"195 -186 OFFCURVE",
"158 -157 OFFCURVE",
"158 -102 CURVE SMOOTH",
"158 -30 OFFCURVE",
"206 0 OFFCURVE",
"309 0 CURVE SMOOTH",
"346 0 LINE",
"346 -29 LINE SMOOTH",
"346 -134 OFFCURVE",
"311 -186 OFFCURVE",
"240 -186 CURVE SMOOTH"
);
}
);
width = 1059;
}
);
note = uni2CD7;
unicode = 2CD7;
},
{
glyphname = uni2CD8;
lastChange = "2016-11-10 17:34:09 +0000";
layers = (
{
layerId = "B23D4CF3-C1D9-4344-818F-C48D5A58935E";
paths = (
{
closed = 1;
nodes = (
"1296 0 LINE",
"1296 1462 LINE",
"1112 1462 LINE",
"1112 162 LINE",
"381 162 LINE",
"381 1462 LINE",
"199 1462 LINE",
"199 0 LINE"
);
}
);
width = 1497;
}
);
note = uni2CD8;
unicode = 2CD8;
},
{
glyphname = uni2CD9;
lastChange = "2016-11-10 17:34:19 +0000";
layers = (
{
layerId = "B23D4CF3-C1D9-4344-818F-C48D5A58935E";
paths = (
{
closed = 1;
nodes = (
"1102 0 LINE",
"1102 1098 LINE",
"922 1098 LINE",
"922 154 LINE",
"354 154 LINE",
"354 1098 LINE",
"174 1098 LINE",
"174 0 LINE"
);
}
);
width = 1278;
}
);
note = uni2CD9;
unicode = 2CD9;
},
{
glyphname = uni2CDA;
lastChange = "2016-11-10 17:34:19 +0000";
layers = (
{
layerId = "B23D4CF3-C1D9-4344-818F-C48D5A58935E";
paths = (
{
closed = 1;
nodes = (
"1636 0 LINE",
"1636 162 LINE",
"1585 162 OFFCURVE",
"1548 167 OFFCURVE",
"1525 178 CURVE SMOOTH",
"1480 199 OFFCURVE",
"1448 242 OFFCURVE",
"1401 346 CURVE SMOOTH",
"905 1462 LINE",
"700 1462 LINE",
"854 1137 LINE",
"627 670 LINE",
"358 829 LINE",
"297 735 LINE",
"578 569 LINE",
"377 162 LINE",
"241 162 OFFCURVE",
"207 195 OFFCURVE",
"207 291 CURVE",
"33 291 LINE",
"33 88 OFFCURVE",
"126 0 OFFCURVE",
"319 0 CURVE SMOOTH"
);
},
{
closed = 1;
nodes = (
"1166 159 OFFCURVE",
"1082 162 OFFCURVE",
"984 162 CURVE SMOOTH",
"559 162 LINE",
"711 483 LINE",
"878 380 OFFCURVE",
"980 317 OFFCURVE",
"1016 294 CURVE SMOOTH",
"1127 221 OFFCURVE",
"1202 176 OFFCURVE",
"1239 158 CURVE",
"1235 154 LINE"
);
},
{
closed = 1;
nodes = (
"1179 318 OFFCURVE",
"1095 379 OFFCURVE",
"1014 428 CURVE SMOOTH",
"760 588 LINE",
"938 971 LINE",
"1153 479 LINE SMOOTH",
"1199 368 OFFCURVE",
"1238 291 OFFCURVE",
"1270 250 CURVE",
"1266 246 LINE"
);
}
);
width = 1667;
}
);
note = uni2CDA;
unicode = 2CDA;
},
{
glyphname = uni2CDB;
lastChange = "2016-11-10 17:34:19 +0000";
layers = (
{
layerId = "B23D4CF3-C1D9-4344-818F-C48D5A58935E";
paths = (
{
closed = 1;
nodes = (
"1327 0 LINE",
"1327 145 LINE",
"1286 145 OFFCURVE",
"1256 149 OFFCURVE",
"1235 157 CURVE SMOOTH",
"1194 173 OFFCURVE",
"1163 207 OFFCURVE",
"1128 276 CURVE SMOOTH",
"731 1098 LINE",
"537 1098 LINE",
"670 829 LINE",
"502 516 LINE",
"334 612 LINE",
"283 526 LINE",
"455 430 LINE",
"299 145 LINE",
"200 145 OFFCURVE",
"174 176 OFFCURVE",
"174 244 CURVE",
"20 244 LINE",
"20 81 OFFCURVE",
"92 0 OFFCURVE",
"236 0 CURVE SMOOTH"
);
},
{
closed = 1;
nodes = (
"657 145 LINE",
"477 145 LINE",
"586 356 LINE",
"785 241 OFFCURVE",
"912 170 OFFCURVE",
"967 145 CURVE",
"965 141 LINE"
);
},
{
closed = 1;
nodes = (
"822 339 OFFCURVE",
"741 385 OFFCURVE",
"633 449 CURVE",
"754 682 LINE",
"889 399 LINE",
"917 343 LINE",
"969 246 LINE",
"965 242 LINE"
);
}
);
width = 1348;
}
);
note = uni2CDB;
unicode = 2CDB;
},
{
glyphname = uni2CDC;
lastChange = "2016-11-10 17:34:19 +0000";
layers = (
{
layerId = "B23D4CF3-C1D9-4344-818F-C48D5A58935E";
paths = (
{
closed = 1;
nodes = (
"721 -20 OFFCURVE",
"815 0 OFFCURVE",
"896 41 CURVE SMOOTH",
"1056 121 OFFCURVE",
"1143 274 OFFCURVE",
"1143 463 CURVE SMOOTH",
"1143 542 OFFCURVE",
"1128 612 OFFCURVE",
"1097 674 CURVE SMOOTH",
"1036 797 OFFCURVE",
"928 891 OFFCURVE",
"711 995 CURVE SMOOTH",
"619 1040 OFFCURVE",
"546 1074 OFFCURVE",
"497 1111 CURVE SMOOTH",
"448 1148 OFFCURVE",
"422 1190 OFFCURVE",
"422 1253 CURVE SMOOTH",
"422 1340 OFFCURVE",
"511 1401 OFFCURVE",
"647 1401 CURVE SMOOTH",
"772 1401 OFFCURVE",
"897 1365 OFFCURVE",
"1020 1294 CURVE",
"1090 1446 LINE",
"938 1524 OFFCURVE",
"792 1563 OFFCURVE",
"653 1563 CURVE SMOOTH",
"408 1563 OFFCURVE",
"236 1434 OFFCURVE",
"236 1257 CURVE SMOOTH",
"236 1207 OFFCURVE",
"245 1163 OFFCURVE",
"264 1125 CURVE SMOOTH",
"300 1049 OFFCURVE",
"362 991 OFFCURVE",
"518 911 CURVE",
"246 823 OFFCURVE",
"106 659 OFFCURVE",
"106 438 CURVE SMOOTH",
"106 163 OFFCURVE",
"310 -20 OFFCURVE",
"614 -20 CURVE SMOOTH"
);
},
{
closed = 1;
nodes = (
"420 139 OFFCURVE",
"295 259 OFFCURVE",
"295 442 CURVE SMOOTH",
"295 509 OFFCURVE",
"309 566 OFFCURVE",
"336 615 CURVE SMOOTH",
"391 712 OFFCURVE",
"483 776 OFFCURVE",
"674 829 CURVE",
"882 720 OFFCURVE",
"956 612 OFFCURVE",
"956 461 CURVE SMOOTH",
"956 265 OFFCURVE",
"828 139 OFFCURVE",
"612 139 CURVE SMOOTH"
);
}
);
width = 1237;
}
);
note = uni2CDC;
unicode = 2CDC;
},
{
glyphname = uni2CDD;
lastChange = "2016-11-10 17:34:19 +0000";
layers = (
{
layerId = "B23D4CF3-C1D9-4344-818F-C48D5A58935E";
paths = (
{
closed = 1;
nodes = (
"937 -20 OFFCURVE",
"1126 168 OFFCURVE",
"1126 483 CURVE SMOOTH",
"1126 692 OFFCURVE",
"1025 845 OFFCURVE",
"741 1001 CURVE SMOOTH",
"631 1062 OFFCURVE",
"558 1110 OFFCURVE",
"522 1146 CURVE SMOOTH",
"485 1181 OFFCURVE",
"467 1222 OFFCURVE",
"467 1268 CURVE SMOOTH",
"467 1355 OFFCURVE",
"536 1409 OFFCURVE",
"645 1409 CURVE SMOOTH",
"761 1409 OFFCURVE",
"862 1380 OFFCURVE",
"997 1305 CURVE",
"1075 1446 LINE",
"904 1531 OFFCURVE",
"792 1556 OFFCURVE",
"653 1556 CURVE SMOOTH",
"428 1556 OFFCURVE",
"285 1446 OFFCURVE",
"285 1270 CURVE SMOOTH",
"285 1139 OFFCURVE",
"354 1039 OFFCURVE",
"539 934 CURVE",
"267 854 OFFCURVE",
"111 677 OFFCURVE",
"111 438 CURVE SMOOTH",
"111 158 OFFCURVE",
"309 -20 OFFCURVE",
"614 -20 CURVE SMOOTH"
);
},
{
closed = 1;
nodes = (
"421 129 OFFCURVE",
"299 252 OFFCURVE",
"299 436 CURVE SMOOTH",
"299 651 OFFCURVE",
"430 796 OFFCURVE",
"682 856 CURVE",
"867 759 OFFCURVE",
"940 646 OFFCURVE",
"940 481 CURVE SMOOTH",
"940 253 OFFCURVE",
"825 129 OFFCURVE",
"614 129 CURVE SMOOTH"
);
}
);
width = 1237;
}
);
note = uni2CDD;
unicode = 2CDD;
},
{
glyphname = uni2CDE;
lastChange = "2016-11-10 17:34:19 +0000";
layers = (
{
layerId = "B23D4CF3-C1D9-4344-818F-C48D5A58935E";
paths = (
{
closed = 1;
nodes = (
"1016 0 LINE",
"1016 162 LINE",
"383 162 LINE",
"383 1300 LINE",
"1016 1300 LINE",
"1016 1462 LINE",
"199 1462 LINE",
"199 0 LINE"
);
}
);
width = 1139;
}
);
note = uni2CDE;
unicode = 2CDE;
},
{
glyphname = uni2CDF;
lastChange = "2016-11-10 17:34:19 +0000";
layers = (
{
layerId = "B23D4CF3-C1D9-4344-818F-C48D5A58935E";
paths = (
{
closed = 1;
nodes = (
"895 0 LINE",
"895 150 LINE",
"344 150 LINE",
"344 948 LINE",
"895 948 LINE",
"895 1098 LINE",
"174 1098 LINE",
"174 0 LINE"
);
}
);
width = 963;
}
);
note = uni2CDF;
unicode = 2CDF;
},
{
glyphname = uni2CE0;
lastChange = "2016-11-10 17:34:19 +0000";
layers = (
{
layerId = "B23D4CF3-C1D9-4344-818F-C48D5A58935E";
paths = (
{
closed = 1;
nodes = (
"926 -334 LINE",
"926 358 LINE",
"1063 367 OFFCURVE",
"1180 399 OFFCURVE",
"1277 455 CURVE SMOOTH",
"1470 566 OFFCURVE",
"1575 761 OFFCURVE",
"1575 1004 CURVE SMOOTH",
"1575 1323 OFFCURVE",
"1437 1483 OFFCURVE",
"1161 1483 CURVE SMOOTH",
"901 1483 OFFCURVE",
"741 1306 OFFCURVE",
"741 1026 CURVE SMOOTH",
"741 516 LINE",
"478 531 OFFCURVE",
"328 696 OFFCURVE",
"328 971 CURVE SMOOTH",
"328 1462 LINE",
"143 1462 LINE",
"143 958 LINE SMOOTH",
"143 590 OFFCURVE",
"354 379 OFFCURVE",
"741 358 CURVE",
"741 -334 LINE"
);
},
{
closed = 1;
nodes = (
"926 1014 LINE SMOOTH",
"926 1221 OFFCURVE",
"1003 1325 OFFCURVE",
"1157 1325 CURVE SMOOTH",
"1312 1325 OFFCURVE",
"1384 1222 OFFCURVE",
"1384 995 CURVE SMOOTH",
"1384 699 OFFCURVE",
"1227 532 OFFCURVE",
"926 516 CURVE"
);
}
);
width = 1688;
}
);
note = uni2CE0;
unicode = 2CE0;
},
{
glyphname = uni2CE1;
lastChange = "2016-11-10 17:34:19 +0000";
layers = (
{
layerId = "B23D4CF3-C1D9-4344-818F-C48D5A58935E";
paths = (
{
closed = 1;
nodes = (
"829 -492 LINE",
"829 104 LINE",
"1192 132 OFFCURVE",
"1405 361 OFFCURVE",
"1405 678 CURVE SMOOTH",
"1405 973 OFFCURVE",
"1275 1118 OFFCURVE",
"1030 1118 CURVE SMOOTH",
"794 1118 OFFCURVE",
"655 961 OFFCURVE",
"655 696 CURVE SMOOTH",
"655 264 LINE",
"420 291 OFFCURVE",
"313 422 OFFCURVE",
"313 694 CURVE SMOOTH",
"313 1098 LINE",
"135 1098 LINE",
"135 664 LINE SMOOTH",
"135 335 OFFCURVE",
"332 125 OFFCURVE",
"655 104 CURVE",
"655 -492 LINE"
);
},
{
closed = 1;
nodes = (
"829 694 LINE SMOOTH",
"829 879 OFFCURVE",
"905 969 OFFCURVE",
"1028 969 CURVE SMOOTH",
"1152 969 OFFCURVE",
"1225 859 OFFCURVE",
"1225 680 CURVE SMOOTH",
"1225 439 OFFCURVE",
"1077 285 OFFCURVE",
"829 262 CURVE"
);
}
);
width = 1491;
}
);
note = uni2CE1;
unicode = 2CE1;
},
{
glyphname = uni2CE2;
lastChange = "2016-11-10 17:34:09 +0000";
layers = (
{
layerId = "B23D4CF3-C1D9-4344-818F-C48D5A58935E";
paths = (
{
closed = 1;
nodes = (
"961 -285 OFFCURVE",
"1255 -11 OFFCURVE",
"1255 432 CURVE SMOOTH",
"1255 751 OFFCURVE",
"1090 978 OFFCURVE",
"807 1051 CURVE",
"807 1300 LINE",
"1249 1300 LINE",
"1249 1462 LINE",
"92 1462 LINE",
"92 1300 LINE",
"623 1300 LINE",
"623 1057 LINE",
"292 1045 OFFCURVE",
"100 864 OFFCURVE",
"100 573 CURVE SMOOTH",
"100 318 OFFCURVE",
"235 166 OFFCURVE",
"455 166 CURVE SMOOTH",
"676 166 OFFCURVE",
"807 314 OFFCURVE",
"807 567 CURVE SMOOTH",
"807 883 LINE",
"966 819 OFFCURVE",
"1073 643 OFFCURVE",
"1073 442 CURVE SMOOTH",
"1073 83 OFFCURVE",
"865 -121 OFFCURVE",
"449 -170 CURVE",
"449 -334 LINE"
);
},
{
closed = 1;
nodes = (
"352 330 OFFCURVE",
"285 425 OFFCURVE",
"285 569 CURVE SMOOTH",
"285 769 OFFCURVE",
"406 894 OFFCURVE",
"623 905 CURVE",
"623 569 LINE SMOOTH",
"623 406 OFFCURVE",
"576 330 OFFCURVE",
"463 330 CURVE SMOOTH"
);
}
);
width = 1348;
}
);
note = uni2CE2;
unicode = 2CE2;
},
{
glyphname = uni2CE3;
lastChange = "2016-11-10 17:34:09 +0000";
layers = (
{
layerId = "B23D4CF3-C1D9-4344-818F-C48D5A58935E";
paths = (
{
closed = 1;
nodes = (
"541 -473 OFFCURVE",
"674 -434 OFFCURVE",
"783 -373 CURVE SMOOTH",
"1002 -250 OFFCURVE",
"1116 -50 OFFCURVE",
"1116 205 CURVE SMOOTH",
"1116 477 OFFCURVE",
"969 655 OFFCURVE",
"717 731 CURVE",
"717 946 LINE",
"1110 946 LINE",
"1110 1098 LINE",
"125 1098 LINE",
"125 946 LINE",
"539 946 LINE",
"539 739 LINE",
"263 719 OFFCURVE",
"82 553 OFFCURVE",
"82 322 CURVE SMOOTH",
"82 121 OFFCURVE",
"202 -12 OFFCURVE",
"391 -12 CURVE SMOOTH",
"575 -12 OFFCURVE",
"717 133 OFFCURVE",
"717 313 CURVE SMOOTH",
"717 561 LINE",
"845 502 OFFCURVE",
"934 359 OFFCURVE",
"934 195 CURVE SMOOTH",
"934 -112 OFFCURVE",
"751 -287 OFFCURVE",
"385 -328 CURVE",
"385 -489 LINE"
);
},
{
closed = 1;
nodes = (
"315 139 OFFCURVE",
"256 222 OFFCURVE",
"256 322 CURVE SMOOTH",
"256 475 OFFCURVE",
"367 573 OFFCURVE",
"539 584 CURVE",
"539 317 LINE SMOOTH",
"539 205 OFFCURVE",
"491 139 OFFCURVE",
"399 139 CURVE SMOOTH"
);
}
);
width = 1198;
}
);
note = uni2CE3;
unicode = 2CE3;
},
{
glyphname = uni2CE4;
lastChange = "2016-11-10 17:34:19 +0000";
layers = (
{
layerId = "B23D4CF3-C1D9-4344-818F-C48D5A58935E";
paths = (
{
closed = 1;
nodes = (
"1071 35 LINE",
"600 629 LINE",
"1044 1098 LINE",
"834 1098 LINE",
"483 727 LINE",
"413 643 LINE",
"352 565 LINE",
"344 565 LINE",
"352 743 LINE",
"352 1098 LINE",
"174 1098 LINE",
"174 0 LINE",
"352 0 LINE",
"352 403 LINE",
"477 512 LINE",
"836 57 LINE",
"451 -266 LINE",
"557 -397 LINE"
);
}
);
width = 1094;
}
);
note = uni2CE4;
unicode = 2CE4;
},
{
glyphname = uni2CE5;
lastChange = "2016-11-10 17:34:19 +0000";
layers = (
{
layerId = "B23D4CF3-C1D9-4344-818F-C48D5A58935E";
paths = (
{
closed = 1;
nodes = (
"721 -334 LINE",
"721 -158 LINE",
"840 -126 OFFCURVE",
"926 -30 OFFCURVE",
"979 131 CURVE",
"983 131 LINE",
"986 96 OFFCURVE",
"991 61 OFFCURVE",
"998 26 CURVE SMOOTH",
"1005 -9 OFFCURVE",
"1022 -71 OFFCURVE",
"1049 -160 CURVE",
"1200 -160 LINE",
"1156 -56 OFFCURVE",
"1107 128 OFFCURVE",
"1075 301 CURVE",
"1087 578 LINE",
"905 578 LINE",
"909 301 LINE",
"862 144 OFFCURVE",
"799 45 OFFCURVE",
"721 2 CURVE",
"721 719 LINE",
"936 719 LINE SMOOTH",
"1255 719 OFFCURVE",
"1432 857 OFFCURVE",
"1432 1108 CURVE SMOOTH",
"1432 1344 OFFCURVE",
"1278 1462 OFFCURVE",
"971 1462 CURVE SMOOTH",
"537 1462 LINE",
"537 -6 LINE",
"456 27 OFFCURVE",
"397 130 OFFCURVE",
"360 301 CURVE",
"369 578 LINE",
"184 578 LINE",
"193 301 LINE",
"149 132 OFFCURVE",
"98 -21 OFFCURVE",
"41 -160 CURVE",
"190 -160 LINE",
"214 -88 LINE SMOOTH",
"244 -1 OFFCURVE",
"263 72 OFFCURVE",
"270 131 CURVE",
"272 131 LINE",
"308 -30 OFFCURVE",
"401 -133 OFFCURVE",
"537 -164 CURVE",
"537 -334 LINE"
);
},
{
closed = 1;
nodes = (
"721 1305 LINE",
"954 1305 LINE SMOOTH",
"1145 1305 OFFCURVE",
"1241 1241 OFFCURVE",
"1241 1096 CURVE SMOOTH",
"1241 944 OFFCURVE",
"1146 877 OFFCURVE",
"934 877 CURVE SMOOTH",
"721 877 LINE"
);
}
);
width = 1534;
}
);
note = uni2CE5;
unicode = 2CE5;
},
{
glyphname = uni2CE6;
lastChange = "2016-11-10 17:34:19 +0000";
layers = (
{
layerId = "B23D4CF3-C1D9-4344-818F-C48D5A58935E";
paths = (
{
closed = 1;
nodes = (
"678 -334 LINE",
"678 442 LINE",
"891 442 LINE",
"891 -178 LINE",
"1071 -178 LINE",
"1071 596 LINE",
"678 596 LINE",
"678 719 LINE",
"893 719 LINE SMOOTH",
"1212 719 OFFCURVE",
"1389 857 OFFCURVE",
"1389 1108 CURVE SMOOTH",
"1389 1344 OFFCURVE",
"1235 1462 OFFCURVE",
"928 1462 CURVE SMOOTH",
"494 1462 LINE",
"494 596 LINE",
"102 596 LINE",
"102 -178 LINE",
"283 -178 LINE",
"283 442 LINE",
"494 442 LINE",
"494 -334 LINE"
);
},
{
closed = 1;
nodes = (
"678 1305 LINE",
"911 1305 LINE SMOOTH",
"1102 1305 OFFCURVE",
"1198 1241 OFFCURVE",
"1198 1096 CURVE SMOOTH",
"1198 944 OFFCURVE",
"1103 877 OFFCURVE",
"891 877 CURVE SMOOTH",
"678 877 LINE"
);
}
);
width = 1491;
}
);
note = uni2CE6;
unicode = 2CE6;
},
{
glyphname = uni2CE7;
lastChange = "2016-11-10 17:34:19 +0000";
layers = (
{
layerId = "B23D4CF3-C1D9-4344-818F-C48D5A58935E";
paths = (
{
closed = 1;
nodes = (
"961 -334 LINE",
"961 465 LINE",
"1681 465 LINE",
"1681 612 LINE",
"961 612 LINE",
"961 719 LINE",
"1176 719 LINE SMOOTH",
"1495 719 OFFCURVE",
"1671 859 OFFCURVE",
"1671 1108 CURVE SMOOTH",
"1671 1344 OFFCURVE",
"1517 1462 OFFCURVE",
"1210 1462 CURVE SMOOTH",
"776 1462 LINE",
"776 612 LINE",
"109 612 LINE",
"109 465 LINE",
"776 465 LINE",
"776 -334 LINE"
);
},
{
closed = 1;
nodes = (
"516 -338 OFFCURVE",
"582 -324 OFFCURVE",
"635 -295 CURVE",
"635 -170 LINE",
"562 -201 OFFCURVE",
"495 -217 OFFCURVE",
"434 -217 CURVE SMOOTH",
"314 -217 OFFCURVE",
"252 -132 OFFCURVE",
"252 23 CURVE SMOOTH",
"252 186 OFFCURVE",
"315 268 OFFCURVE",
"440 268 CURVE SMOOTH",
"486 268 OFFCURVE",
"541 256 OFFCURVE",
"604 231 CURVE",
"649 348 LINE",
"586 378 OFFCURVE",
"517 393 OFFCURVE",
"444 393 CURVE SMOOTH",
"227 393 OFFCURVE",
"98 262 OFFCURVE",
"98 23 CURVE SMOOTH",
"98 -208 OFFCURVE",
"220 -338 OFFCURVE",
"436 -338 CURVE SMOOTH"
);
},
{
closed = 1;
nodes = (
"1523 -338 OFFCURVE",
"1578 -326 OFFCURVE",
"1634 -295 CURVE",
"1634 -170 LINE",
"1562 -201 OFFCURVE",
"1495 -217 OFFCURVE",
"1434 -217 CURVE SMOOTH",
"1314 -217 OFFCURVE",
"1251 -132 OFFCURVE",
"1251 23 CURVE SMOOTH",
"1251 186 OFFCURVE",
"1314 268 OFFCURVE",
"1440 268 CURVE SMOOTH",
"1483 268 OFFCURVE",
"1537 256 OFFCURVE",
"1604 231 CURVE",
"1649 348 LINE",
"1588 378 OFFCURVE",
"1519 393 OFFCURVE",
"1444 393 CURVE SMOOTH",
"1227 393 OFFCURVE",
"1098 262 OFFCURVE",
"1098 23 CURVE SMOOTH",
"1098 -208 OFFCURVE",
"1220 -338 OFFCURVE",
"1436 -338 CURVE SMOOTH"
);
},
{
closed = 1;
nodes = (
"961 1305 LINE",
"1194 1305 LINE SMOOTH",
"1383 1305 OFFCURVE",
"1481 1241 OFFCURVE",
"1481 1096 CURVE SMOOTH",
"1481 944 OFFCURVE",
"1386 877 OFFCURVE",
"1174 877 CURVE SMOOTH",
"961 877 LINE"
);
}
);
width = 1784;
}
);
note = uni2CE7;
unicode = 2CE7;
},
{
glyphname = uni2CE8;
lastChange = "2016-11-10 17:34:19 +0000";
layers = (
{
layerId = "B23D4CF3-C1D9-4344-818F-C48D5A58935E";
paths = (
{
closed = 1;
nodes = (
"606 -334 LINE",
"606 383 LINE",
"1018 383 LINE",
"1018 530 LINE",
"606 530 LINE",
"606 719 LINE",
"821 719 LINE SMOOTH",
"1140 719 OFFCURVE",
"1317 857 OFFCURVE",
"1317 1108 CURVE SMOOTH",
"1317 1344 OFFCURVE",
"1163 1462 OFFCURVE",
"856 1462 CURVE SMOOTH",
"422 1462 LINE",
"422 530 LINE",
"25 530 LINE",
"25 383 LINE",
"422 383 LINE",
"422 -334 LINE"
);
},
{
closed = 1;
nodes = (
"606 1305 LINE",
"840 1305 LINE SMOOTH",
"1029 1305 OFFCURVE",
"1126 1241 OFFCURVE",
"1126 1096 CURVE SMOOTH",
"1126 944 OFFCURVE",
"1031 877 OFFCURVE",
"819 877 CURVE SMOOTH",
"606 877 LINE"
);
}
);
width = 1419;
}
);
note = uni2CE8;
unicode = 2CE8;
},
{
glyphname = uni2CE9;
lastChange = "2016-11-10 17:34:19 +0000";
layers = (
{
layerId = "B23D4CF3-C1D9-4344-818F-C48D5A58935E";
paths = (
{
closed = 1;
nodes = (
"606 -334 LINE",
"606 29 LINE",
"784 -178 LINE",
"997 -178 LINE",
"610 217 LINE",
"1018 596 LINE",
"791 596 LINE",
"606 395 LINE",
"606 719 LINE",
"821 719 LINE SMOOTH",
"1140 719 OFFCURVE",
"1317 857 OFFCURVE",
"1317 1108 CURVE SMOOTH",
"1317 1344 OFFCURVE",
"1163 1462 OFFCURVE",
"856 1462 CURVE SMOOTH",
"422 1462 LINE",
"422 395 LINE",
"240 596 LINE",
"27 596 LINE",
"414 217 LINE",
"16 -178 LINE",
"227 -178 LINE",
"422 35 LINE",
"422 -334 LINE"
);
},
{
closed = 1;
nodes = (
"606 1305 LINE",
"840 1305 LINE SMOOTH",
"1029 1305 OFFCURVE",
"1126 1241 OFFCURVE",
"1126 1096 CURVE SMOOTH",
"1126 944 OFFCURVE",
"1031 877 OFFCURVE",
"819 877 CURVE SMOOTH",
"606 877 LINE"
);
}
);
width = 1419;
}
);
note = uni2CE9;
unicode = 2CE9;
},
{
glyphname = uni2CEA;
lastChange = "2016-11-10 17:34:19 +0000";
layers = (
{
layerId = "B23D4CF3-C1D9-4344-818F-C48D5A58935E";
paths = (
{
closed = 1;
nodes = (
"940 -20 OFFCURVE",
"1128 188 OFFCURVE",
"1128 541 CURVE SMOOTH",
"1128 721 OFFCURVE",
"1071 871 OFFCURVE",
"975 946 CURVE",
"1417 946 LINE",
"1319 861 OFFCURVE",
"1270 723 OFFCURVE",
"1270 532 CURVE SMOOTH",
"1270 175 OFFCURVE",
"1449 -20 OFFCURVE",
"1772 -20 CURVE SMOOTH",
"1884 -20 OFFCURVE",
"1978 0 OFFCURVE",
"2054 39 CURVE",
"2054 199 LINE",
"1961 156 OFFCURVE",
"1866 135 OFFCURVE",
"1769 135 CURVE SMOOTH",
"1560 135 OFFCURVE",
"1456 268 OFFCURVE",
"1456 535 CURVE SMOOTH",
"1456 808 OFFCURVE",
"1561 940 OFFCURVE",
"1780 940 CURVE SMOOTH",
"1847 940 OFFCURVE",
"1926 923 OFFCURVE",
"2017 889 CURVE",
"2073 1038 LINE",
"1996 1075 OFFCURVE",
"1889 1098 OFFCURVE",
"1784 1098 CURVE SMOOTH",
"623 1098 LINE SMOOTH",
"299 1098 OFFCURVE",
"113 897 OFFCURVE",
"113 541 CURVE SMOOTH",
"113 194 OFFCURVE",
"309 -20 OFFCURVE",
"616 -20 CURVE SMOOTH"
);
},
{
closed = 1;
nodes = (
"406 129 OFFCURVE",
"299 266 OFFCURVE",
"299 541 CURVE SMOOTH",
"299 801 OFFCURVE",
"395 946 OFFCURVE",
"618 946 CURVE SMOOTH",
"834 946 OFFCURVE",
"942 811 OFFCURVE",
"942 541 CURVE SMOOTH",
"942 268 OFFCURVE",
"832 129 OFFCURVE",
"621 129 CURVE SMOOTH"
);
}
);
width = 2140;
}
);
note = uni2CEA;
unicode = 2CEA;
},
{
glyphname = uni2CEB;
lastChange = "2016-11-10 17:34:19 +0000";
layers = (
{
layerId = "B23D4CF3-C1D9-4344-818F-C48D5A58935E";
paths = (
{
closed = 1;
nodes = (
"1459 623 OFFCURVE",
"1593 767 OFFCURVE",
"1593 1010 CURVE SMOOTH",
"1593 1249 OFFCURVE",
"1460 1395 OFFCURVE",
"1233 1395 CURVE SMOOTH",
"1000 1395 OFFCURVE",
"870 1257 OFFCURVE",
"870 1010 CURVE SMOOTH",
"870 761 OFFCURVE",
"1003 623 OFFCURVE",
"1231 623 CURVE SMOOTH"
);
},
{
closed = 1;
nodes = (
"1593 356 LINE",
"1593 535 LINE",
"82 535 LINE",
"82 356 LINE"
);
},
{
closed = 1;
nodes = (
"669 623 OFFCURVE",
"805 766 OFFCURVE",
"805 1010 CURVE SMOOTH",
"805 1250 OFFCURVE",
"669 1395 OFFCURVE",
"444 1395 CURVE SMOOTH",
"212 1395 OFFCURVE",
"82 1257 OFFCURVE",
"82 1010 CURVE SMOOTH",
"82 761 OFFCURVE",
"215 623 OFFCURVE",
"442 623 CURVE SMOOTH"
);
},
{
closed = 1;
nodes = (
"307 758 OFFCURVE",
"240 842 OFFCURVE",
"240 1010 CURVE SMOOTH",
"240 1165 OFFCURVE",
"303 1260 OFFCURVE",
"444 1260 CURVE SMOOTH",
"578 1260 OFFCURVE",
"645 1177 OFFCURVE",
"645 1010 CURVE SMOOTH",
"645 842 OFFCURVE",
"577 758 OFFCURVE",
"442 758 CURVE SMOOTH"
);
},
{
closed = 1;
nodes = (
"1096 758 OFFCURVE",
"1028 842 OFFCURVE",
"1028 1010 CURVE SMOOTH",
"1028 1166 OFFCURVE",
"1092 1260 OFFCURVE",
"1233 1260 CURVE SMOOTH",
"1372 1260 OFFCURVE",
"1434 1165 OFFCURVE",
"1434 1010 CURVE SMOOTH",
"1434 842 OFFCURVE",
"1366 758 OFFCURVE",
"1231 758 CURVE SMOOTH"
);
}
);
width = 1675;
}
);
note = uni2CEB;
unicode = 2CEB;
},
{
glyphname = uni2CEC;
lastChange = "2016-11-10 17:34:19 +0000";
layers = (
{
layerId = "B23D4CF3-C1D9-4344-818F-C48D5A58935E";
paths = (
{
closed = 1;
nodes = (
"1044 453 OFFCURVE",
"1143 553 OFFCURVE",
"1143 729 CURVE SMOOTH",
"1143 893 OFFCURVE",
"1042 999 OFFCURVE",
"889 999 CURVE SMOOTH",
"728 999 OFFCURVE",
"631 902 OFFCURVE",
"631 729 CURVE SMOOTH",
"631 560 OFFCURVE",
"733 453 OFFCURVE",
"885 453 CURVE SMOOTH"
);
},
{
closed = 1;
nodes = (
"1143 205 LINE",
"1143 379 LINE",
"70 379 LINE",
"70 205 LINE"
);
},
{
closed = 1;
nodes = (
"483 453 OFFCURVE",
"582 553 OFFCURVE",
"582 729 CURVE SMOOTH",
"582 893 OFFCURVE",
"481 999 OFFCURVE",
"328 999 CURVE SMOOTH",
"167 999 OFFCURVE",
"70 902 OFFCURVE",
"70 729 CURVE SMOOTH",
"70 560 OFFCURVE",
"172 453 OFFCURVE",
"324 453 CURVE SMOOTH"
);
},
{
closed = 1;
nodes = (
"245 565 OFFCURVE",
"205 620 OFFCURVE",
"205 729 CURVE SMOOTH",
"205 834 OFFCURVE",
"245 887 OFFCURVE",
"326 887 CURVE SMOOTH",
"408 887 OFFCURVE",
"449 834 OFFCURVE",
"449 729 CURVE SMOOTH",
"449 620 OFFCURVE",
"408 565 OFFCURVE",
"326 565 CURVE SMOOTH"
);
},
{
closed = 1;
nodes = (
"806 565 OFFCURVE",
"766 620 OFFCURVE",
"766 729 CURVE SMOOTH",
"766 834 OFFCURVE",
"806 887 OFFCURVE",
"887 887 CURVE SMOOTH",
"969 887 OFFCURVE",
"1010 834 OFFCURVE",
"1010 729 CURVE SMOOTH",
"1010 620 OFFCURVE",
"969 565 OFFCURVE",
"887 565 CURVE SMOOTH"
);
}
);
width = 1212;
}
);
note = uni2CEC;
unicode = 2CEC;
},
{
glyphname = uni2CED;
lastChange = "2016-11-10 17:34:19 +0000";
layers = (
{
layerId = "B23D4CF3-C1D9-4344-818F-C48D5A58935E";
paths = (
{
closed = 1;
nodes = (
"379 0 LINE",
"772 584 LINE",
"1143 0 LINE",
"1358 0 LINE",
"1358 1462 LINE",
"1174 1462 LINE",
"784 874 LINE",
"412 1462 LINE",
"199 1462 LINE",
"199 0 LINE"
);
},
{
closed = 1;
nodes = (
"369 1221 LINE",
"684 723 LINE",
"369 246 LINE"
);
},
{
closed = 1;
nodes = (
"872 735 LINE",
"1186 1198 LINE",
"1186 242 LINE"
);
}
);
width = 1556;
}
);
note = uni2CED;
unicode = 2CED;
},
{
glyphname = uni2CEE;
lastChange = "2016-11-10 17:34:19 +0000";
layers = (
{
layerId = "B23D4CF3-C1D9-4344-818F-C48D5A58935E";
paths = (
{
closed = 1;
nodes = (
"354 0 LINE",
"672 424 LINE",
"971 0 LINE",
"1180 0 LINE",
"1180 1098 LINE",
"995 1098 LINE",
"682 668 LINE",
"383 1098 LINE",
"174 1098 LINE",
"174 0 LINE"
);
},
{
closed = 1;
nodes = (
"336 895 LINE",
"582 541 LINE",
"336 205 LINE"
);
},
{
closed = 1;
nodes = (
"772 551 LINE",
"1016 879 LINE",
"1016 203 LINE"
);
}
);
width = 1354;
}
);
note = uni2CEE;
unicode = 2CEE;
},
{
glyphname = uni2CEF;
lastChange = "2016-11-10 17:34:19 +0000";
layers = (
{
layerId = "B23D4CF3-C1D9-4344-818F-C48D5A58935E";
paths = (
{
closed = 1;
nodes = (
"-125 1163 LINE",
"-125 1314 OFFCURVE",
"-182 1368 OFFCURVE",
"-319 1368 CURVE SMOOTH",
"-754 1368 LINE SMOOTH",
"-827 1368 OFFCURVE",
"-856 1393 OFFCURVE",
"-856 1466 CURVE",
"-967 1466 LINE",
"-967 1315 OFFCURVE",
"-911 1262 OFFCURVE",
"-772 1262 CURVE SMOOTH",
"-338 1262 LINE SMOOTH",
"-263 1262 OFFCURVE",
"-236 1238 OFFCURVE",
"-236 1163 CURVE"
);
}
);
width = 0;
}
);
note = uni2CEF;
unicode = 2CEF;
},
{
glyphname = uni2CF0;
lastChange = "2016-11-10 17:34:09 +0000";
layers = (
{
layerId = "B23D4CF3-C1D9-4344-818F-C48D5A58935E";
paths = (
{
closed = 1;
nodes = (
"-834 1147 LINE",
"-834 1262 LINE",
"-383 1262 LINE",
"-383 1368 LINE",
"-834 1368 LINE",
"-834 1483 LINE",
"-940 1483 LINE",
"-940 1147 LINE"
);
}
);
width = 0;
}
);
note = uni2CF0;
unicode = 2CF0;
},
{
glyphname = uni2CF1;
lastChange = "2016-11-10 17:34:19 +0000";
layers = (
{
layerId = "B23D4CF3-C1D9-4344-818F-C48D5A58935E";
paths = (
{
closed = 1;
nodes = (
"-383 1147 LINE",
"-383 1483 LINE",
"-489 1483 LINE",
"-489 1368 LINE",
"-940 1368 LINE",
"-940 1262 LINE",
"-489 1262 LINE",
"-489 1147 LINE"
);
}
);
width = 0;
}
);
note = uni2CF1;
unicode = 2CF1;
},
{
glyphname = uni2CF2;
lastChange = "2016-11-10 17:34:19 +0000";
layers = (
{
layerId = "B23D4CF3-C1D9-4344-818F-C48D5A58935E";
paths = (
{
closed = 1;
nodes = (
"777 -20 OFFCURVE",
"905 7 OFFCURVE",
"1016 62 CURVE SMOOTH",
"1236 170 OFFCURVE",
"1370 395 OFFCURVE",
"1370 659 CURVE SMOOTH",
"1370 1067 OFFCURVE",
"1121 1298 OFFCURVE",
"680 1298 CURVE SMOOTH",
"641 1298 LINE",
"704 1389 OFFCURVE",
"735 1471 OFFCURVE",
"735 1544 CURVE SMOOTH",
"735 1649 OFFCURVE",
"676 1718 OFFCURVE",
"539 1718 CURVE SMOOTH",
"504 1718 OFFCURVE",
"480 1717 OFFCURVE",
"465 1714 CURVE",
"465 1579 LINE",
"480 1581 LINE",
"496 1581 LINE SMOOTH",
"546 1581 OFFCURVE",
"571 1555 OFFCURVE",
"571 1503 CURVE SMOOTH",
"571 1458 OFFCURVE",
"548 1403 OFFCURVE",
"502 1337 CURVE SMOOTH",
"473 1294 LINE",
"473 1141 LINE",
"635 1141 LINE SMOOTH",
"1000 1141 OFFCURVE",
"1176 980 OFFCURVE",
"1176 647 CURVE SMOOTH",
"1176 336 OFFCURVE",
"970 137 OFFCURVE",
"649 137 CURVE SMOOTH",
"445 137 OFFCURVE",
"383 193 OFFCURVE",
"383 369 CURVE SMOOTH",
"383 1141 LINE",
"199 1141 LINE",
"199 330 LINE SMOOTH",
"199 83 OFFCURVE",
"340 -20 OFFCURVE",
"631 -20 CURVE SMOOTH"
);
}
);
width = 1495;
}
);
note = uni2CF2;
unicode = 2CF2;
},
{
glyphname = uni2CF3;
lastChange = "2016-11-10 17:34:19 +0000";
layers = (
{
layerId = "B23D4CF3-C1D9-4344-818F-C48D5A58935E";
paths = (
{
closed = 1;
nodes = (
"664 -20 OFFCURVE",
"769 3 OFFCURVE",
"859 50 CURVE SMOOTH",
"1039 142 OFFCURVE",
"1147 334 OFFCURVE",
"1147 569 CURVE SMOOTH",
"1147 902 OFFCURVE",
"951 1098 OFFCURVE",
"618 1098 CURVE SMOOTH",
"606 1098 LINE",
"675 1218 OFFCURVE",
"702 1307 OFFCURVE",
"702 1380 CURVE SMOOTH",
"702 1489 OFFCURVE",
"635 1561 OFFCURVE",
"522 1561 CURVE SMOOTH",
"473 1561 OFFCURVE",
"441 1559 OFFCURVE",
"428 1556 CURVE",
"428 1425 LINE",
"455 1425 LINE SMOOTH",
"506 1425 OFFCURVE",
"535 1394 OFFCURVE",
"535 1339 CURVE SMOOTH",
"535 1284 OFFCURVE",
"510 1219 OFFCURVE",
"460 1146 CURVE SMOOTH",
"428 1098 LINE",
"428 956 LINE",
"524 956 LINE SMOOTH",
"816 956 OFFCURVE",
"961 827 OFFCURVE",
"961 551 CURVE SMOOTH",
"961 470 OFFCURVE",
"945 397 OFFCURVE",
"914 332 CURVE SMOOTH",
"851 203 OFFCURVE",
"731 129 OFFCURVE",
"571 129 CURVE SMOOTH",
"414 129 OFFCURVE",
"354 194 OFFCURVE",
"354 330 CURVE SMOOTH",
"354 956 LINE",
"174 956 LINE",
"174 295 LINE SMOOTH",
"174 85 OFFCURVE",
"297 -20 OFFCURVE",
"543 -20 CURVE SMOOTH"
);
}
);
width = 1260;
}
);
note = uni2CF3;
unicode = 2CF3;
},
{
glyphname = uni2CF9;
lastChange = "2016-11-10 17:34:09 +0000";
layers = (
{
layerId = "B23D4CF3-C1D9-4344-818F-C48D5A58935E";
paths = (
{
closed = 1;
nodes = (
"1661 184 LINE",
"938 1065 LINE SMOOTH",
"889 1125 OFFCURVE",
"838 1151 OFFCURVE",
"770 1151 CURVE SMOOTH",
"686 1151 OFFCURVE",
"627 1099 OFFCURVE",
"627 1012 CURVE SMOOTH",
"627 927 OFFCURVE",
"684 870 OFFCURVE",
"768 870 CURVE SMOOTH",
"805 870 OFFCURVE",
"837 880 OFFCURVE",
"864 901 CURVE",
"1536 82 LINE"
);
},
{
closed = 1;
nodes = (
"1083 184 LINE",
"360 1065 LINE SMOOTH",
"311 1125 OFFCURVE",
"261 1151 OFFCURVE",
"193 1151 CURVE SMOOTH",
"109 1151 OFFCURVE",
"49 1099 OFFCURVE",
"49 1012 CURVE SMOOTH",
"49 927 OFFCURVE",
"106 870 OFFCURVE",
"190 870 CURVE SMOOTH",
"227 870 OFFCURVE",
"259 880 OFFCURVE",
"287 901 CURVE",
"958 82 LINE"
);
}
);
width = 1712;
}
);
note = uni2CF9;
unicode = 2CF9;
},
{
glyphname = uni2CFA;
lastChange = "2016-11-10 17:34:19 +0000";
layers = (
{
layerId = "B23D4CF3-C1D9-4344-818F-C48D5A58935E";
paths = (
{
closed = 1;
nodes = (
"848 901 LINE",
"875 880 OFFCURVE",
"907 870 OFFCURVE",
"944 870 CURVE SMOOTH",
"1028 870 OFFCURVE",
"1085 928 OFFCURVE",
"1085 1012 CURVE SMOOTH",
"1085 1099 OFFCURVE",
"1026 1151 OFFCURVE",
"942 1151 CURVE SMOOTH",
"874 1151 OFFCURVE",
"823 1125 OFFCURVE",
"774 1065 CURVE SMOOTH",
"51 184 LINE",
"176 82 LINE"
);
},
{
closed = 1;
nodes = (
"720 92 OFFCURVE",
"768 146 OFFCURVE",
"768 231 CURVE SMOOTH",
"768 319 OFFCURVE",
"720 369 OFFCURVE",
"639 369 CURVE SMOOTH",
"559 369 OFFCURVE",
"514 322 OFFCURVE",
"514 231 CURVE SMOOTH",
"514 142 OFFCURVE",
"560 92 OFFCURVE",
"639 92 CURVE SMOOTH"
);
}
);
width = 1135;
}
);
note = uni2CFA;
unicode = 2CFA;
},
{
glyphname = uni2CFB;
lastChange = "2016-11-10 17:34:19 +0000";
layers = (
{
layerId = "B23D4CF3-C1D9-4344-818F-C48D5A58935E";
paths = (
{
closed = 1;
nodes = (
"1083 184 LINE",
"360 1065 LINE SMOOTH",
"311 1125 OFFCURVE",
"261 1151 OFFCURVE",
"193 1151 CURVE SMOOTH",
"109 1151 OFFCURVE",
"49 1099 OFFCURVE",
"49 1012 CURVE SMOOTH",
"49 927 OFFCURVE",
"106 870 OFFCURVE",
"190 870 CURVE SMOOTH",
"227 870 OFFCURVE",
"259 880 OFFCURVE",
"287 901 CURVE",
"958 82 LINE"
);
},
{
closed = 1;
nodes = (
"573 92 OFFCURVE",
"621 144 OFFCURVE",
"621 231 CURVE SMOOTH",
"621 319 OFFCURVE",
"576 369 OFFCURVE",
"496 369 CURVE SMOOTH",
"413 369 OFFCURVE",
"367 318 OFFCURVE",
"367 231 CURVE SMOOTH",
"367 146 OFFCURVE",
"416 92 OFFCURVE",
"496 92 CURVE SMOOTH"
);
}
);
width = 1135;
}
);
note = uni2CFB;
unicode = 2CFB;
},
{
glyphname = uni2CFC;
lastChange = "2016-11-10 17:34:19 +0000";
layers = (
{
layerId = "B23D4CF3-C1D9-4344-818F-C48D5A58935E";
paths = (
{
closed = 1;
nodes = (
"1425 901 LINE",
"1453 880 OFFCURVE",
"1485 870 OFFCURVE",
"1522 870 CURVE SMOOTH",
"1606 870 OFFCURVE",
"1663 928 OFFCURVE",
"1663 1012 CURVE SMOOTH",
"1663 1099 OFFCURVE",
"1604 1151 OFFCURVE",
"1520 1151 CURVE SMOOTH",
"1452 1151 OFFCURVE",
"1401 1125 OFFCURVE",
"1352 1065 CURVE SMOOTH",
"629 184 LINE",
"754 82 LINE"
);
},
{
closed = 1;
nodes = (
"848 901 LINE",
"875 880 OFFCURVE",
"907 870 OFFCURVE",
"944 870 CURVE SMOOTH",
"1028 870 OFFCURVE",
"1085 928 OFFCURVE",
"1085 1012 CURVE SMOOTH",
"1085 1099 OFFCURVE",
"1026 1151 OFFCURVE",
"942 1151 CURVE SMOOTH",
"874 1151 OFFCURVE",
"823 1125 OFFCURVE",
"774 1065 CURVE SMOOTH",
"51 184 LINE",
"176 82 LINE"
);
}
);
width = 1712;
}
);
note = uni2CFC;
unicode = 2CFC;
},
{
glyphname = uni2CFD;
lastChange = "2016-11-10 17:34:19 +0000";
layers = (
{
layerId = "B23D4CF3-C1D9-4344-818F-C48D5A58935E";
paths = (
{
closed = 1;
nodes = (
"361 33 OFFCURVE",
"522 144 OFFCURVE",
"522 352 CURVE SMOOTH",
"522 427 OFFCURVE",
"498 501 OFFCURVE",
"451 573 CURVE SMOOTH",
"395 658 OFFCURVE",
"379 698 OFFCURVE",
"379 750 CURVE SMOOTH",
"379 867 OFFCURVE",
"466 918 OFFCURVE",
"647 918 CURVE",
"647 1067 LINE",
"366 1067 OFFCURVE",
"203 946 OFFCURVE",
"203 743 CURVE SMOOTH",
"203 676 OFFCURVE",
"227 607 OFFCURVE",
"275 536 CURVE SMOOTH",
"324 460 OFFCURVE",
"346 407 OFFCURVE",
"346 344 CURVE SMOOTH",
"346 233 OFFCURVE",
"256 186 OFFCURVE",
"61 186 CURVE",
"61 33 LINE"
);
}
);
width = 709;
}
);
note = uni2CFD;
unicode = 2CFD;
},
{
glyphname = uni2CFE;
lastChange = "2016-11-10 17:34:19 +0000";
layers = (
{
layerId = "B23D4CF3-C1D9-4344-818F-C48D5A58935E";
paths = (
{
closed = 1;
nodes = (
"596 0 LINE",
"596 63 LINE SMOOTH",
"596 154 OFFCURVE",
"564 240 OFFCURVE",
"500 320 CURVE SMOOTH",
"435 399 OFFCURVE",
"403 469 OFFCURVE",
"403 549 CURVE",
"256 549 LINE",
"256 496 LINE SMOOTH",
"256 419 OFFCURVE",
"286 350 OFFCURVE",
"357 265 CURVE SMOOTH",
"424 182 OFFCURVE",
"457 94 OFFCURVE",
"457 0 CURVE"
);
},
{
closed = 1;
nodes = (
"221 154 OFFCURVE",
"266 185 OFFCURVE",
"266 260 CURVE SMOOTH",
"266 336 OFFCURVE",
"221 365 OFFCURVE",
"168 365 CURVE SMOOTH",
"104 365 OFFCURVE",
"72 330 OFFCURVE",
"72 260 CURVE SMOOTH",
"72 185 OFFCURVE",
"112 154 OFFCURVE",
"168 154 CURVE SMOOTH"
);
},
{
closed = 1;
nodes = (
"754 162 OFFCURVE",
"801 198 OFFCURVE",
"801 270 CURVE SMOOTH",
"801 343 OFFCURVE",
"754 375 OFFCURVE",
"702 375 CURVE SMOOTH",
"638 375 OFFCURVE",
"606 340 OFFCURVE",
"606 270 CURVE SMOOTH",
"606 198 OFFCURVE",
"646 162 OFFCURVE",
"702 162 CURVE SMOOTH"
);
}
);
width = 872;
}
);
note = uni2CFE;
unicode = 2CFE;
},
{
glyphname = uni2CFF;
lastChange = "2016-11-10 17:34:19 +0000";
layers = (
{
layerId = "B23D4CF3-C1D9-4344-818F-C48D5A58935E";
paths = (
{
closed = 1;
nodes = (
"530 1014 LINE",
"530 1149 LINE",
"441 1277 OFFCURVE",
"294 1364 OFFCURVE",
"131 1395 CURVE",
"100 1395 LINE",
"100 1219 LINE",
"231 1206 OFFCURVE",
"359 1138 OFFCURVE",
"483 1014 CURVE"
);
}
);
width = 614;
}
);
note = uni2CFF;
unicode = 2CFF;
},
{
glyphname = uniFE24;
lastChange = "2016-11-10 17:34:09 +0000";
layers = (
{
layerId = "B23D4CF3-C1D9-4344-818F-C48D5A58935E";
paths = (
{
closed = 1;
nodes = (
"0 1241 LINE",
"0 1386 LINE",
"-820 1386 LINE",
"-820 1241 LINE"
);
}
);
width = 0;
}
);
note = uniFE24;
unicode = FE25;
},
{
glyphname = uniFE25;
lastChange = "2016-11-10 17:34:09 +0000";
layers = (
{
layerId = "B23D4CF3-C1D9-4344-818F-C48D5A58935E";
paths = (
{
closed = 1;
nodes = (
"820 1241 LINE",
"820 1386 LINE",
"0 1386 LINE",
"0 1241 LINE"
);
}
);
width = 0;
}
);
note = uniFE25;
unicode = FE24;
},
{
glyphname = uniFE26;
lastChange = "2016-11-10 17:34:09 +0000";
layers = (
{
layerId = "B23D4CF3-C1D9-4344-818F-C48D5A58935E";
paths = (
{
closed = 1;
nodes = (
"640 1241 LINE",
"640 1386 LINE",
"-640 1386 LINE",
"-640 1241 LINE"
);
}
);
width = 0;
}
);
note = uniFE26;
unicode = FE26;
},
{
glyphname = uni0305_small;
lastChange = "2016-11-10 17:34:09 +0000";
layers = (
{
layerId = "B23D4CF3-C1D9-4344-818F-C48D5A58935E";
paths = (
{
closed = 1;
nodes = (
"340 1702 LINE",
"340 1797 LINE",
"-340 1797 LINE",
"-340 1702 LINE"
);
}
);
width = 0;
}
);
note = uni0305_small;
},
{
glyphname = uni0305_medium;
lastChange = "2016-11-10 17:34:09 +0000";
layers = (
{
layerId = "B23D4CF3-C1D9-4344-818F-C48D5A58935E";
paths = (
{
closed = 1;
nodes = (
"540 1702 LINE",
"540 1797 LINE",
"-540 1797 LINE",
"-540 1702 LINE"
);
}
);
width = 0;
}
);
note = uni0305_medium;
},
{
glyphname = uni0305_large;
lastChange = "2016-11-10 17:34:09 +0000";
layers = (
{
layerId = "B23D4CF3-C1D9-4344-818F-C48D5A58935E";
paths = (
{
closed = 1;
nodes = (
"770 1702 LINE",
"770 1797 LINE",
"-770 1797 LINE",
"-770 1702 LINE"
);
}
);
width = 0;
}
);
note = uni0305_large;
},
{
glyphname = uni0305_xlarge;
lastChange = "2016-11-10 17:34:09 +0000";
layers = (
{
layerId = "B23D4CF3-C1D9-4344-818F-C48D5A58935E";
paths = (
{
closed = 1;
nodes = (
"870 1702 LINE",
"870 1797 LINE",
"-870 1797 LINE",
"-870 1702 LINE"
);
}
);
width = 0;
}
);
note = uni0305_xlarge;
},
{
glyphname = uni0305_xxlarge;
lastChange = "2016-11-10 17:34:09 +0000";
layers = (
{
layerId = "B23D4CF3-C1D9-4344-818F-C48D5A58935E";
paths = (
{
closed = 1;
nodes = (
"1100 1702 LINE",
"1100 1797 LINE",
"-1100 1797 LINE",
"-1100 1702 LINE"
);
}
);
width = 0;
}
);
note = uni0305_xxlarge;
},
{
glyphname = dotbelowcomb;
lastChange = "2016-11-10 17:34:19 +0000";
layers = (
{
layerId = "B23D4CF3-C1D9-4344-818F-C48D5A58935E";
paths = (
{
closed = 1;
nodes = (
"162 -329 OFFCURVE",
"211 -293 OFFCURVE",
"211 -214 CURVE SMOOTH",
"211 -134 OFFCURVE",
"162 -100 OFFCURVE",
"106 -100 CURVE SMOOTH",
"46 -100 OFFCURVE",
"0 -134 OFFCURVE",
"0 -214 CURVE SMOOTH",
"0 -293 OFFCURVE",
"46 -329 OFFCURVE",
"106 -329 CURVE SMOOTH"
);
}
);
width = 0;
}
);
note = dotbelowcomb;
unicode = 0323;
},
{
glyphname = uni033F;
lastChange = "2016-11-10 17:34:09 +0000";
layers = (
{
layerId = "B23D4CF3-C1D9-4344-818F-C48D5A58935E";
paths = (
{
closed = 1;
nodes = (
"640 1411 LINE",
"640 1486 LINE",
"-640 1486 LINE",
"-640 1411 LINE"
);
},
{
closed = 1;
nodes = (
"640 1241 LINE",
"640 1316 LINE",
"-640 1316 LINE",
"-640 1241 LINE"
);
}
);
width = 0;
}
);
note = uni033F;
unicode = 033F;
},
{
glyphname = uniFE26.small;
lastChange = "2016-11-10 17:34:09 +0000";
layers = (
{
layerId = "B23D4CF3-C1D9-4344-818F-C48D5A58935E";
paths = (
{
closed = 1;
nodes = (
"340 1241 LINE",
"340 1386 LINE",
"-340 1386 LINE",
"-340 1241 LINE"
);
}
);
width = 0;
}
);
note = uniFE26.small;
},
{
glyphname = uniFE26.medium;
lastChange = "2016-11-10 17:34:09 +0000";
layers = (
{
layerId = "B23D4CF3-C1D9-4344-818F-C48D5A58935E";
paths = (
{
closed = 1;
nodes = (
"540 1241 LINE",
"540 1386 LINE",
"-540 1386 LINE",
"-540 1241 LINE"
);
}
);
width = 0;
}
);
note = uniFE26.medium;
},
{
glyphname = uniFE26.large;
lastChange = "2016-11-10 17:34:09 +0000";
layers = (
{
layerId = "B23D4CF3-C1D9-4344-818F-C48D5A58935E";
paths = (
{
closed = 1;
nodes = (
"770 1241 LINE",
"770 1387 LINE",
"-770 1387 LINE",
"-770 1241 LINE"
);
}
);
width = 0;
}
);
note = uniFE26.large;
},
{
glyphname = uniFE26.xlarge;
lastChange = "2016-11-10 17:34:09 +0000";
layers = (
{
layerId = "B23D4CF3-C1D9-4344-818F-C48D5A58935E";
paths = (
{
closed = 1;
nodes = (
"870 1241 LINE",
"870 1387 LINE",
"-870 1387 LINE",
"-870 1241 LINE"
);
}
);
width = 0;
}
);
note = uniFE26.xlarge;
},
{
glyphname = uniFE26.xxlarge;
lastChange = "2016-11-10 17:34:09 +0000";
layers = (
{
layerId = "B23D4CF3-C1D9-4344-818F-C48D5A58935E";
paths = (
{
closed = 1;
nodes = (
"1100 1241 LINE",
"1100 1387 LINE",
"-1100 1387 LINE",
"-1100 1241 LINE"
);
}
);
width = 0;
}
);
note = uniFE26.xxlarge;
},
{
glyphname = uni033F.small;
lastChange = "2016-11-10 17:34:09 +0000";
layers = (
{
layerId = "B23D4CF3-C1D9-4344-818F-C48D5A58935E";
paths = (
{
closed = 1;
nodes = (
"340 1411 LINE",
"340 1486 LINE",
"-340 1486 LINE",
"-340 1411 LINE"
);
},
{
closed = 1;
nodes = (
"340 1241 LINE",
"340 1316 LINE",
"-340 1316 LINE",
"-340 1241 LINE"
);
}
);
width = 0;
}
);
note = uni033F.small;
},
{
glyphname = uni033F.medium;
lastChange = "2016-11-10 17:34:09 +0000";
layers = (
{
layerId = "B23D4CF3-C1D9-4344-818F-C48D5A58935E";
paths = (
{
closed = 1;
nodes = (
"540 1411 LINE",
"540 1486 LINE",
"-540 1486 LINE",
"-540 1411 LINE"
);
},
{
closed = 1;
nodes = (
"540 1241 LINE",
"540 1316 LINE",
"-540 1316 LINE",
"-540 1241 LINE"
);
}
);
width = 0;
}
);
note = uni033F.medium;
},
{
glyphname = uni033F.large;
lastChange = "2016-11-10 17:34:09 +0000";
layers = (
{
layerId = "B23D4CF3-C1D9-4344-818F-C48D5A58935E";
paths = (
{
closed = 1;
nodes = (
"770 1411 LINE",
"770 1486 LINE",
"-770 1486 LINE",
"-770 1411 LINE"
);
},
{
closed = 1;
nodes = (
"770 1241 LINE",
"770 1316 LINE",
"-770 1316 LINE",
"-770 1241 LINE"
);
}
);
width = 0;
}
);
note = uni033F.large;
},
{
glyphname = uni033F.xlarge;
lastChange = "2016-11-10 17:34:09 +0000";
layers = (
{
layerId = "B23D4CF3-C1D9-4344-818F-C48D5A58935E";
paths = (
{
closed = 1;
nodes = (
"870 1411 LINE",
"870 1486 LINE",
"-870 1486 LINE",
"-870 1411 LINE"
);
},
{
closed = 1;
nodes = (
"870 1241 LINE",
"870 1316 LINE",
"-870 1316 LINE",
"-870 1241 LINE"
);
}
);
width = 0;
}
);
note = uni033F.xlarge;
},
{
glyphname = uni033F.xxlarge;
lastChange = "2016-11-10 17:34:09 +0000";
layers = (
{
layerId = "B23D4CF3-C1D9-4344-818F-C48D5A58935E";
paths = (
{
closed = 1;
nodes = (
"1100 1411 LINE",
"1100 1486 LINE",
"-1100 1486 LINE",
"-1100 1411 LINE"
);
},
{
closed = 1;
nodes = (
"1100 1241 LINE",
"1100 1316 LINE",
"-1100 1316 LINE",
"-1100 1241 LINE"
);
}
);
width = 0;
}
);
note = uni033F.xxlarge;
},
{
glyphname = uniFE24.cap;
lastChange = "2016-11-10 17:34:09 +0000";
layers = (
{
layerId = "B23D4CF3-C1D9-4344-818F-C48D5A58935E";
paths = (
{
closed = 1;
nodes = (
"0 1702 LINE",
"0 1847 LINE",
"-820 1847 LINE",
"-820 1702 LINE"
);
}
);
width = 0;
}
);
note = uniFE24.cap;
},
{
glyphname = uniFE25.cap;
lastChange = "2016-11-10 17:34:09 +0000";
layers = (
{
layerId = "B23D4CF3-C1D9-4344-818F-C48D5A58935E";
paths = (
{
closed = 1;
nodes = (
"820 1702 LINE",
"820 1847 LINE",
"0 1847 LINE",
"0 1702 LINE"
);
}
);
width = 0;
}
);
note = uniFE25.cap;
},
{
glyphname = uniFE26.cap;
lastChange = "2016-11-10 17:34:09 +0000";
layers = (
{
layerId = "B23D4CF3-C1D9-4344-818F-C48D5A58935E";
paths = (
{
closed = 1;
nodes = (
"640 1702 LINE",
"640 1847 LINE",
"-640 1847 LINE",
"-640 1702 LINE"
);
}
);
width = 0;
}
);
note = uniFE26.cap;
},
{
glyphname = uni0305_small.cap;
lastChange = "2016-11-10 17:34:09 +0000";
layers = (
{
layerId = "B23D4CF3-C1D9-4344-818F-C48D5A58935E";
paths = (
{
closed = 1;
nodes = (
"340 1702 LINE",
"340 1797 LINE",
"-340 1797 LINE",
"-340 1702 LINE"
);
}
);
width = 0;
}
);
note = uni0305_small.cap;
},
{
glyphname = uni0305_medium.cap;
lastChange = "2016-11-10 17:34:09 +0000";
layers = (
{
layerId = "B23D4CF3-C1D9-4344-818F-C48D5A58935E";
paths = (
{
closed = 1;
nodes = (
"540 1702 LINE",
"540 1797 LINE",
"-540 1797 LINE",
"-540 1702 LINE"
);
}
);
width = 0;
}
);
note = uni0305_medium.cap;
},
{
glyphname = uni0305_large.cap;
lastChange = "2016-11-10 17:34:09 +0000";
layers = (
{
layerId = "B23D4CF3-C1D9-4344-818F-C48D5A58935E";
paths = (
{
closed = 1;
nodes = (
"770 1702 LINE",
"770 1797 LINE",
"-770 1797 LINE",
"-770 1702 LINE"
);
}
);
width = 0;
}
);
note = uni0305_large.cap;
},
{
glyphname = uni0305_xlarge.cap;
lastChange = "2016-11-10 17:34:09 +0000";
layers = (
{
layerId = "B23D4CF3-C1D9-4344-818F-C48D5A58935E";
paths = (
{
closed = 1;
nodes = (
"870 1702 LINE",
"870 1797 LINE",
"-870 1797 LINE",
"-870 1702 LINE"
);
}
);
width = 0;
}
);
note = uni0305_xlarge.cap;
},
{
glyphname = uni0305_xxlarge.cap;
lastChange = "2016-11-10 17:34:09 +0000";
layers = (
{
layerId = "B23D4CF3-C1D9-4344-818F-C48D5A58935E";
paths = (
{
closed = 1;
nodes = (
"1100 1702 LINE",
"1100 1797 LINE",
"-1100 1797 LINE",
"-1100 1702 LINE"
);
}
);
width = 0;
}
);
note = uni0305_xxlarge.cap;
},
{
glyphname = uni033F.cap;
lastChange = "2016-11-10 17:34:09 +0000";
layers = (
{
layerId = "B23D4CF3-C1D9-4344-818F-C48D5A58935E";
paths = (
{
closed = 1;
nodes = (
"640 1872 LINE",
"640 1947 LINE",
"-640 1947 LINE",
"-640 1872 LINE"
);
},
{
closed = 1;
nodes = (
"640 1702 LINE",
"640 1777 LINE",
"-640 1777 LINE",
"-640 1702 LINE"
);
}
);
width = 0;
}
);
note = uni033F.cap;
},
{
glyphname = uniFE26.small.cap;
lastChange = "2016-11-10 17:34:09 +0000";
layers = (
{
layerId = "B23D4CF3-C1D9-4344-818F-C48D5A58935E";
paths = (
{
closed = 1;
nodes = (
"340 1702 LINE",
"340 1847 LINE",
"-340 1847 LINE",
"-340 1702 LINE"
);
}
);
width = 0;
}
);
note = uniFE26.small.cap;
},
{
glyphname = uniFE26.medium.cap;
lastChange = "2016-11-10 17:34:09 +0000";
layers = (
{
layerId = "B23D4CF3-C1D9-4344-818F-C48D5A58935E";
paths = (
{
closed = 1;
nodes = (
"540 1702 LINE",
"540 1847 LINE",
"-540 1847 LINE",
"-540 1702 LINE"
);
}
);
width = 0;
}
);
note = uniFE26.medium.cap;
},
{
glyphname = uniFE26.large.cap;
lastChange = "2016-11-10 17:34:09 +0000";
layers = (
{
layerId = "B23D4CF3-C1D9-4344-818F-C48D5A58935E";
paths = (
{
closed = 1;
nodes = (
"770 1702 LINE",
"770 1848 LINE",
"-770 1848 LINE",
"-770 1702 LINE"
);
}
);
width = 0;
}
);
note = uniFE26.large.cap;
},
{
glyphname = uniFE26.xlarge.cap;
lastChange = "2016-11-10 17:34:09 +0000";
layers = (
{
layerId = "B23D4CF3-C1D9-4344-818F-C48D5A58935E";
paths = (
{
closed = 1;
nodes = (
"870 1702 LINE",
"870 1848 LINE",
"-870 1848 LINE",
"-870 1702 LINE"
);
}
);
width = 0;
}
);
note = uniFE26.xlarge.cap;
},
{
glyphname = uniFE26.xxlarge.cap;
lastChange = "2016-11-10 17:34:09 +0000";
layers = (
{
layerId = "B23D4CF3-C1D9-4344-818F-C48D5A58935E";
paths = (
{
closed = 1;
nodes = (
"1100 1702 LINE",
"1100 1848 LINE",
"-1100 1848 LINE",
"-1100 1702 LINE"
);
}
);
width = 0;
}
);
note = uniFE26.xxlarge.cap;
},
{
glyphname = uni033F.small.cap;
lastChange = "2016-11-10 17:34:09 +0000";
layers = (
{
layerId = "B23D4CF3-C1D9-4344-818F-C48D5A58935E";
paths = (
{
closed = 1;
nodes = (
"340 1872 LINE",
"340 1947 LINE",
"-340 1947 LINE",
"-340 1872 LINE"
);
},
{
closed = 1;
nodes = (
"340 1702 LINE",
"340 1777 LINE",
"-340 1777 LINE",
"-340 1702 LINE"
);
}
);
width = 0;
}
);
note = uni033F.small.cap;
},
{
glyphname = uni033F.medium.cap;
lastChange = "2016-11-10 17:34:09 +0000";
layers = (
{
layerId = "B23D4CF3-C1D9-4344-818F-C48D5A58935E";
paths = (
{
closed = 1;
nodes = (
"540 1872 LINE",
"540 1947 LINE",
"-540 1947 LINE",
"-540 1872 LINE"
);
},
{
closed = 1;
nodes = (
"540 1702 LINE",
"540 1777 LINE",
"-540 1777 LINE",
"-540 1702 LINE"
);
}
);
width = 0;
}
);
note = uni033F.medium.cap;
},
{
glyphname = uni033F.large.cap;
lastChange = "2016-11-10 17:34:09 +0000";
layers = (
{
layerId = "B23D4CF3-C1D9-4344-818F-C48D5A58935E";
paths = (
{
closed = 1;
nodes = (
"770 1872 LINE",
"770 1947 LINE",
"-770 1947 LINE",
"-770 1872 LINE"
);
},
{
closed = 1;
nodes = (
"770 1702 LINE",
"770 1777 LINE",
"-770 1777 LINE",
"-770 1702 LINE"
);
}
);
width = 0;
}
);
note = uni033F.large.cap;
},
{
glyphname = uni033F.xlarge.cap;
lastChange = "2016-11-10 17:34:09 +0000";
layers = (
{
layerId = "B23D4CF3-C1D9-4344-818F-C48D5A58935E";
paths = (
{
closed = 1;
nodes = (
"870 1872 LINE",
"870 1947 LINE",
"-870 1947 LINE",
"-870 1872 LINE"
);
},
{
closed = 1;
nodes = (
"870 1702 LINE",
"870 1777 LINE",
"-870 1777 LINE",
"-870 1702 LINE"
);
}
);
width = 0;
}
);
note = uni033F.xlarge.cap;
},
{
glyphname = uni033F.xxlarge.cap;
lastChange = "2016-11-10 17:34:09 +0000";
layers = (
{
layerId = "B23D4CF3-C1D9-4344-818F-C48D5A58935E";
paths = (
{
closed = 1;
nodes = (
"1100 1872 LINE",
"1100 1947 LINE",
"-1100 1947 LINE",
"-1100 1872 LINE"
);
},
{
closed = 1;
nodes = (
"1100 1702 LINE",
"1100 1777 LINE",
"-1100 1777 LINE",
"-1100 1702 LINE"
);
}
);
width = 0;
}
);
note = uni033F.xxlarge.cap;
},
{
glyphname = uni0305.cap;
lastChange = "2016-11-10 17:34:09 +0000";
layers = (
{
layerId = "B23D4CF3-C1D9-4344-818F-C48D5A58935E";
paths = (
{
closed = 1;
nodes = (
"640 1702 LINE",
"640 1797 LINE",
"-640 1797 LINE",
"-640 1702 LINE"
);
}
);
width = 0;
}
);
note = uni0305.cap;
},
{
glyphname = uni25CC;
lastChange = "2016-11-10 17:34:19 +0000";
layers = (
{
layerId = "B23D4CF3-C1D9-4344-818F-C48D5A58935E";
paths = (
{
closed = 1;
nodes = (
"1240 1098 OFFCURVE",
"1262 1121 OFFCURVE",
"1262 1167 CURVE SMOOTH",
"1262 1213 OFFCURVE",
"1240 1236 OFFCURVE",
"1196 1236 CURVE SMOOTH",
"1148 1236 OFFCURVE",
"1124 1213 OFFCURVE",
"1124 1167 CURVE SMOOTH",
"1124 1121 OFFCURVE",
"1148 1098 OFFCURVE",
"1196 1098 CURVE SMOOTH"
);
},
{
closed = 1;
nodes = (
"352 208 OFFCURVE",
"375 231 OFFCURVE",
"375 276 CURVE SMOOTH",
"375 323 OFFCURVE",
"352 346 OFFCURVE",
"306 346 CURVE SMOOTH",
"260 346 OFFCURVE",
"237 323 OFFCURVE",
"237 276 CURVE SMOOTH",
"237 231 OFFCURVE",
"260 208 OFFCURVE",
"306 208 CURVE SMOOTH"
);
},
{
closed = 1;
nodes = (
"215 415 OFFCURVE",
"238 438 OFFCURVE",
"238 483 CURVE SMOOTH",
"238 530 OFFCURVE",
"215 553 OFFCURVE",
"169 553 CURVE SMOOTH",
"123 553 OFFCURVE",
"100 530 OFFCURVE",
"100 483 CURVE SMOOTH",
"100 438 OFFCURVE",
"123 415 OFFCURVE",
"169 415 CURVE SMOOTH"
);
},
{
closed = 1;
nodes = (
"555 75 OFFCURVE",
"579 99 OFFCURVE",
"579 146 CURVE SMOOTH",
"579 191 OFFCURVE",
"555 213 OFFCURVE",
"508 213 CURVE SMOOTH",
"463 213 OFFCURVE",
"441 189 OFFCURVE",
"441 141 CURVE SMOOTH",
"441 97 OFFCURVE",
"463 75 OFFCURVE",
"508 75 CURVE SMOOTH"
);
},
{
closed = 1;
nodes = (
"166 654 OFFCURVE",
"188 677 OFFCURVE",
"188 723 CURVE SMOOTH",
"188 769 OFFCURVE",
"166 792 OFFCURVE",
"122 792 CURVE SMOOTH",
"74 792 OFFCURVE",
"50 769 OFFCURVE",
"50 723 CURVE SMOOTH",
"50 677 OFFCURVE",
"74 654 OFFCURVE",
"122 654 CURVE SMOOTH"
);
},
{
closed = 1;
nodes = (
"794 25 OFFCURVE",
"817 48 OFFCURVE",
"817 95 CURVE SMOOTH",
"817 140 OFFCURVE",
"794 163 OFFCURVE",
"748 163 CURVE SMOOTH",
"703 163 OFFCURVE",
"680 140 OFFCURVE",
"680 95 CURVE SMOOTH",
"680 48 OFFCURVE",
"703 25 OFFCURVE",
"748 25 CURVE SMOOTH"
);
},
{
closed = 1;
nodes = (
"216 893 OFFCURVE",
"238 916 OFFCURVE",
"238 963 CURVE SMOOTH",
"238 1008 OFFCURVE",
"215 1031 OFFCURVE",
"169 1031 CURVE SMOOTH",
"123 1031 OFFCURVE",
"100 1008 OFFCURVE",
"100 963 CURVE SMOOTH",
"100 916 OFFCURVE",
"124 893 OFFCURVE",
"172 893 CURVE SMOOTH"
);
},
{
closed = 1;
nodes = (
"1036 75 OFFCURVE",
"1058 97 OFFCURVE",
"1058 141 CURVE SMOOTH",
"1058 189 OFFCURVE",
"1036 213 OFFCURVE",
"991 213 CURVE SMOOTH",
"944 213 OFFCURVE",
"920 189 OFFCURVE",
"920 141 CURVE SMOOTH",
"920 97 OFFCURVE",
"944 75 OFFCURVE",
"991 75 CURVE SMOOTH"
);
},
{
closed = 1;
nodes = (
"1240 208 OFFCURVE",
"1262 231 OFFCURVE",
"1262 276 CURVE SMOOTH",
"1262 323 OFFCURVE",
"1240 346 OFFCURVE",
"1196 346 CURVE SMOOTH",
"1148 346 OFFCURVE",
"1124 323 OFFCURVE",
"1124 276 CURVE SMOOTH",
"1124 231 OFFCURVE",
"1148 208 OFFCURVE",
"1196 208 CURVE SMOOTH"
);
},
{
closed = 1;
nodes = (
"352 1098 OFFCURVE",
"375 1121 OFFCURVE",
"375 1167 CURVE SMOOTH",
"375 1213 OFFCURVE",
"352 1236 OFFCURVE",
"306 1236 CURVE SMOOTH",
"260 1236 OFFCURVE",
"237 1212 OFFCURVE",
"237 1163 CURVE SMOOTH",
"237 1120 OFFCURVE",
"260 1098 OFFCURVE",
"306 1098 CURVE SMOOTH"
);
},
{
closed = 1;
nodes = (
"1375 415 OFFCURVE",
"1398 438 OFFCURVE",
"1398 483 CURVE SMOOTH",
"1398 530 OFFCURVE",
"1375 553 OFFCURVE",
"1328 553 CURVE SMOOTH",
"1283 553 OFFCURVE",
"1260 530 OFFCURVE",
"1260 483 CURVE SMOOTH",
"1260 438 OFFCURVE",
"1283 415 OFFCURVE",
"1328 415 CURVE SMOOTH"
);
},
{
closed = 1;
nodes = (
"555 1235 OFFCURVE",
"579 1258 OFFCURVE",
"579 1303 CURVE SMOOTH",
"579 1350 OFFCURVE",
"555 1373 OFFCURVE",
"508 1373 CURVE SMOOTH",
"463 1373 OFFCURVE",
"441 1350 OFFCURVE",
"441 1303 CURVE SMOOTH",
"441 1258 OFFCURVE",
"463 1235 OFFCURVE",
"508 1235 CURVE SMOOTH"
);
},
{
closed = 1;
nodes = (
"794 1283 OFFCURVE",
"817 1307 OFFCURVE",
"817 1354 CURVE SMOOTH",
"817 1399 OFFCURVE",
"794 1421 OFFCURVE",
"748 1421 CURVE SMOOTH",
"703 1421 OFFCURVE",
"680 1399 OFFCURVE",
"680 1354 CURVE SMOOTH",
"680 1307 OFFCURVE",
"703 1283 OFFCURVE",
"748 1283 CURVE SMOOTH"
);
},
{
closed = 1;
nodes = (
"1426 654 OFFCURVE",
"1448 677 OFFCURVE",
"1448 723 CURVE SMOOTH",
"1448 769 OFFCURVE",
"1426 792 OFFCURVE",
"1382 792 CURVE SMOOTH",
"1334 792 OFFCURVE",
"1310 769 OFFCURVE",
"1310 723 CURVE SMOOTH",
"1310 677 OFFCURVE",
"1334 654 OFFCURVE",
"1382 654 CURVE SMOOTH"
);
},
{
closed = 1;
nodes = (
"1375 893 OFFCURVE",
"1398 916 OFFCURVE",
"1398 963 CURVE SMOOTH",
"1398 1008 OFFCURVE",
"1376 1031 OFFCURVE",
"1331 1031 CURVE SMOOTH",
"1284 1031 OFFCURVE",
"1260 1008 OFFCURVE",
"1260 963 CURVE SMOOTH",
"1260 916 OFFCURVE",
"1283 893 OFFCURVE",
"1328 893 CURVE SMOOTH"
);
},
{
closed = 1;
nodes = (
"1036 1235 OFFCURVE",
"1058 1258 OFFCURVE",
"1058 1303 CURVE SMOOTH",
"1058 1350 OFFCURVE",
"1036 1373 OFFCURVE",
"991 1373 CURVE SMOOTH",
"944 1373 OFFCURVE",
"920 1350 OFFCURVE",
"920 1303 CURVE SMOOTH",
"920 1258 OFFCURVE",
"944 1235 OFFCURVE",
"991 1235 CURVE SMOOTH"
);
}
);
width = 1498;
}
);
note = uni25CC;
unicode = 25CC;
},
